SplineFontDB: 3.0
FontName: ObliquayCondensed
FullName: Obliquay Condensed
FamilyName: Obliquay
Weight: Regular
Copyright: (c) Frank Sikernitsky, 2014-2017
Version: Version 1.4.067
ItalicAngle: 0
UnderlinePosition: -100
UnderlineWidth: 50
Ascent: 1050
Descent: 235
InvalidEm: 0
sfntRevision: 0x00010000
LayerCount: 2
Layer: 0 0 "Back" 1
Layer: 1 0 "Fore" 0
XUID: [1021 668 1240808111 15182958]
StyleMap: 0x0040
FSType: 0
OS2Version: 3
OS2_WeightWidthSlopeOnly: 0
OS2_UseTypoMetrics: 1
CreationTime: -2082844800
ModificationTime: 1490667621
PfmFamily: 81
TTFWeight: 400
TTFWidth: 3
LineGap: 0
VLineGap: 0
Panose: 0 0 0 0 0 0 0 0 0 0
OS2TypoAscent: 0
OS2TypoAOffset: 1
OS2TypoDescent: 0
OS2TypoDOffset: 1
OS2TypoLinegap: 0
OS2WinAscent: 0
OS2WinAOffset: 1
OS2WinDescent: 0
OS2WinDOffset: 1
HheadAscent: 0
HheadAOffset: 1
HheadDescent: 0
HheadDOffset: 1
OS2SubXSize: 650
OS2SubYSize: 699
OS2SubXOff: 0
OS2SubYOff: 140
OS2SupXSize: 650
OS2SupYSize: 699
OS2SupXOff: 0
OS2SupYOff: 479
OS2StrikeYSize: 49
OS2StrikeYPos: 258
OS2Vendor: 'XXXX'
OS2CodePages: 00000001.00000000
OS2UnicodeRanges: a000003f.5000004f.00000000.00000000
Lookup: 258 0 0 "'kern' Horizontal Kerning in Latin lookup 1" { "'kern' Horizontal Kerning in Latin lookup 1-1" [155,0,0] } ['kern' ('DFLT' <'dflt' > 'latn' <'dflt' > ) ]
Lookup: 258 0 0 "'dist' Distance in Latin lookup 0" { } ['dist' ('DFLT' <'dflt' > 'latn' <'dflt' > ) ]
MarkAttachClasses: 1
DEI: 91125
KernClass2: 35 29 "'kern' Horizontal Kerning in Latin lookup 1-1"
 1 A
 1 B
 1 C
 1 D
 1 E
 1 F
 3 G S
 13 H I M N i l d
 3 J U
 1 K
 1 L
 3 O Q
 1 P
 1 R
 1 T
 1 V
 1 W
 1 X
 1 Y
 1 Z
 7 a h m n
 5 b p s
 1 c
 1 e
 1 f
 5 g q u
 1 j
 1 k
 1 o
 1 r
 1 t
 5 v w y
 1 x
 1 z
 1 A
 31 B D E F H I K L M N P R b h i l
 5 C O Q
 1 G
 1 J
 1 S
 1 T
 1 U
 1 V
 1 W
 1 X
 1 Y
 1 Z
 1 a
 5 c e o
 1 d
 3 f t
 1 g
 1 j
 1 k
 9 m n p r u
 1 q
 1 s
 3 v y
 1 w
 1 x
 1 z
 0 

StartChar: .notdef
Encoding: 0 -1 0
AltUni2: 000000.ffffffff.0
Width: 572
VWidth: 1024
Flags: W
HStem: 0 50<120 452> 650 50<120 452>
VStem: 70 50<50 650> 452 50<50 650>
LayerCount: 2
Fore
SplineSet
70 700 m 1
 502 700 l 1
 502 0 l 1
 70 0 l 1
 70 700 l 1
120 50 m 1
 452 50 l 1
 452 650 l 1
 120 650 l 1
 120 50 l 1
EndSplineSet
EndChar

StartChar: exclam
Encoding: 33 33 2
Width: 267
VWidth: 1024
Flags: W
HStem: -6 123<75 194>
VStem: 71 123<-6 113 459.794 931>
LayerCount: 2
Fore
SplineSet
70 931 m 1
 190 943 l 1
 198 539 l 1
 173 206 l 1
 90 210 l 1
 70 553 l 1
 70 931 l 1
75 -6 m 1
 71 117 l 1
 194 113 l 1
 194 -6 l 1
 75 -6 l 1
EndSplineSet
EndChar

StartChar: quotedbl
Encoding: 34 34 3
Width: 423
VWidth: 1024
Flags: W
HStem: 709 218<92.2702 147>
VStem: 66 101<808.125 921> 94 53<715 746.482> 244 110<781.684 919>
LayerCount: 2
Fore
SplineSet
66 927 m 1xd0
 167 921 l 1xd0
 175 813 l 1
 147 715 l 1
 94 709 l 1xb0
 74 813 l 1
 66 927 l 1xd0
244 919 m 1
 354 927 l 1
 354 813 l 1
 325 709 l 1
 271 719 l 1
 244 813 l 1
 244 919 l 1
EndSplineSet
EndChar

StartChar: numbersign
Encoding: 35 35 4
Width: 807
VWidth: 1024
Flags: W
HStem: 0 21G<184 268.567 410 522.021> 187 86<63 202 301 434 547 671> 656 82<144.938 249 361 495 593 742>
LayerCount: 2
Fore
SplineSet
351 658 m 1
 301 273 l 1
 445 273 l 1
 495 656 l 1
 351 658 l 1
530 927 m 1
 612 927 l 1
 593 740 l 1
 755 742 l 1
 742 652 l 1
 585 654 l 1
 547 272 l 1
 682 271 l 1
 671 189 l 1
 539 188 l 1
 520 0 l 1
 410 0 l 1
 434 187 l 1
 290 187 l 1
 266 0 l 1
 184 0 l 1
 202 186 l 1
 51 185 l 1
 63 275 l 1
 211 274 l 1
 249 659 l 1
 124 662 l 1
 134 733 l 1
 257 735 l 1
 276 927 l 1
 386 927 l 1
 361 736 l 1
 506 738 l 1
 530 927 l 1
EndSplineSet
EndChar

StartChar: dollar
Encoding: 36 36 5
Width: 652
VWidth: 1024
Flags: W
HStem: 4 100<183.784 281 401 462.164>
VStem: 57 112<551.575 801.926> 261 120<941 1097.91> 281 120<-155.908 4.53878> 477 118<117.965 358.552>
LayerCount: 2
Fore
SplineSet
89 163 m 1xd8
 232 113 261 107 384 104 c 1
 472 106 477 126 477 251 c 0
 477 363 469 372 305 406 c 0
 69 455 57 467 57 690 c 0
 57 893 86 936 261 941 c 1
 263 975 267 1098 267 1098 c 1
 377 1106 l 1
 381 939 l 1xe8
 423 935 481 925 570 897 c 1
 519 792 l 1
 443 817 423 831 301 831 c 0
 187 831 169 805 169 641 c 0
 169 544 180 537 391 493 c 0
 585 453 595 442 595 261 c 0
 595 58 585 13 401 3 c 1
 400 -29 395 -156 395 -156 c 1
 285 -164 l 1
 281 4 l 1
 118 15 65 58 65 58 c 1
 89 163 l 1xd8
EndSplineSet
EndChar

StartChar: percent
Encoding: 37 37 6
Width: 787
VWidth: 1024
Flags: W
HStem: -15 63<543.587 659.73> 0 21G<60 210.574> 261 72<554.947 656.553> 585 85<140.102 244.961> 874 67<140.113 247.87>
VStem: 58 76<677.65 868.438> 251 64<675.894 872.137> 473 72<50.6759 255.018> 668 62<56.7188 250.856>
LayerCount: 2
Fore
SplineSet
60 18 m 1x7f80
 588 927 l 1
 670 889 l 1
 200 0 l 1
 60 18 l 1x7f80
178 941 m 2
 194 941 l 2
 309 941 315 919 315 791 c 2
 315 749 l 2
 315 645 309 586 200 585 c 0
 78 586 58 662 58 791 c 0
 58 919 64 941 178 941 c 2
134 794 m 2
 134 756 l 2
 134 693 136 670 194 670 c 0
 247 670 251 697 251 749 c 2
 251 823 l 2
 251 868 247 874 194 874 c 0
 136 874 134 857 134 794 c 2
601 -15 m 0xbf80
 479 -15 473 11 473 141 c 0
 473 271 475 333 597 333 c 0
 720 333 730 265 730 135 c 0
 730 5 724 -15 601 -15 c 0xbf80
593 48 m 0
 656 48 668 62 668 132 c 0
 668 135 668 138 668 142 c 0
 668 216 667 261 605 261 c 0
 547 261 545 224 545 159 c 2
 545 139 l 2
 545 136 545 132 545 129 c 0
 545 111 543 95 543 83 c 0
 543 61 550 48 593 48 c 0
EndSplineSet
EndChar

StartChar: ampersand
Encoding: 38 38 7
Width: 562
VWidth: 1024
Flags: W
HStem: -13 89<189.783 238 343 403.662> 344 103<206.01 365> 688 84<326 410.083>
VStem: 58 104<99.5964 313.546> 85 94<475.454 659.211>
LayerCount: 2
Fore
SplineSet
238 -13 m 1xf0
 97 -2 58 69 58 178 c 0xf0
 58 188 58 199 59 209 c 0
 64 309 64 374 185 404 c 1
 101 426 90 449 85 568 c 1
 85 585 l 2
 85 717 154 758 237 770 c 1
 233 810 221 921 221 921 c 1
 330 925 l 1
 326 772 l 1
 394 768 433 749 493 701 c 1
 437 633 l 1
 404 674 371 688 326 688 c 0
 317 688 307 687 296 686 c 0
 208 678 181 661 179 561 c 1xe8
 182 482 208 447 296 447 c 1
 366 455 l 1
 371 399 l 1
 365 336 l 1
 294 344 l 1
 179 344 169 307 163 213 c 0
 162 203 162 194 162 185 c 0
 162 106 192 76 280 76 c 0
 373 76 399 85 454 159 c 1
 514 84 l 1
 459 35 459 -3 343 -13 c 1
 345 -51 351 -162 351 -162 c 1
 226 -164 l 1
 238 -13 l 1xf0
EndSplineSet
EndChar

StartChar: quotesingle
Encoding: 39 39 8
Width: 249
VWidth: 1024
Flags: W
HStem: 703 218
VStem: 69 89<705 769.82>
LayerCount: 2
Fore
SplineSet
77 921 m 1
 182 913 l 1
 172 807 l 1
 158 703 l 1
 69 705 l 1
 75 807 l 1
 77 921 l 1
EndSplineSet
EndChar

StartChar: parenleft
Encoding: 40 40 9
Width: 368
VWidth: 1024
Flags: W
HStem: 915 20G<160.5 257.474>
VStem: 67 94<133.421 745.199>
LayerCount: 2
Fore
SplineSet
243 935 m 1
 298 859 l 1
 189 791 161 817 161 441 c 0
 161 93 195 37 322 -34 c 1
 269 -95 l 1
 76 13 67 19 67 417 c 2
 67 572 l 2
 67 834 78 835 243 935 c 1
EndSplineSet
EndChar

StartChar: parenright
Encoding: 41 41 10
Width: 358
VWidth: 1024
Flags: W
VStem: 185 109<128.15 764.858>
LayerCount: 2
Fore
SplineSet
116 -119 m 1
 46 -41 l 1
 178 46 185 70 185 447 c 1
 173 795 167 817 51 899 c 1
 116 972 l 1
 273 861 281 835 294 447 c 1
 294 21 285 -7 116 -119 c 1
EndSplineSet
EndChar

StartChar: asterisk
Encoding: 42 42 11
Width: 546
VWidth: 1024
Flags: W
LayerCount: 2
Fore
SplineSet
455 735 m 1
 492 621 l 1
 345 569 l 1
 466 427 l 1
 372 358 l 1
 282 539 l 1
 197 404 l 1
 104 474 l 1
 188 583 l 1
 54 599 l 1
 101 748 l 1
 227 673 l 1
 211 817 l 1
 326 817 l 1
 306 634 l 1
 455 735 l 1
EndSplineSet
EndChar

StartChar: plus
Encoding: 43 43 12
Width: 781
VWidth: 1024
Flags: W
HStem: 395 109<483.588 724> 409 87<315.045 344 433 618.895> 419 67<53 314.755>
VStem: 344 89<500 777> 353 71<126 406>
LayerCount: 2
Fore
SplineSet
346 409 m 1x48
 53 419 l 1
 53 486 l 1x28
 344 496 l 1x50
 337 777 l 1
 439 777 l 1
 433 500 l 1
 724 504 l 1
 724 395 l 1x90
 430 406 l 1
 424 126 l 1
 353 126 l 1
 346 409 l 1x48
EndSplineSet
EndChar

StartChar: comma
Encoding: 44 44 13
Width: 253
VWidth: 1024
Flags: W
HStem: -99 57<84 98.284> 0 109<76 109 162.996 175.11>
VStem: 76 99<29.2987 109>
LayerCount: 2
Fore
SplineSet
76 109 m 1
 175 117 l 1
 187 0 l 1
 181 0 l 1
 110 -96 117 -99 91 -99 c 2
 84 -99 l 1
 72 -42 l 1
 73 -42 l 2
 78 -42 80 -40 109 0 c 1
 68 0 l 1
 76 109 l 1
EndSplineSet
EndChar

StartChar: hyphen
Encoding: 45 45 14
Width: 405
VWidth: 1024
Flags: W
HStem: 398 118<70 240.76> 403 99<163.24 338>
VStem: 70 268
LayerCount: 2
Fore
SplineSet
70 398 m 1xa0
 66 516 l 5xa0
 338 502 l 1
 338 403 l 1x60
 70 398 l 1xa0
EndSplineSet
EndChar

StartChar: period
Encoding: 46 46 15
Width: 256
VWidth: 1024
Flags: W
HStem: 0 111<69 180>
VStem: 69 111<0 111>
LayerCount: 2
Fore
SplineSet
69 -8 m 1
 69 119 l 1
 180 111 l 1
 188 0 l 1
 69 -8 l 1
EndSplineSet
EndChar

StartChar: slash
Encoding: 47 47 16
Width: 438
VWidth: 1024
Flags: W
HStem: 919 20G<305.42 379.696>
VStem: 49 341
LayerCount: 2
Fore
SplineSet
49 0 m 1
 311 939 l 1
 390 916 l 1
 141 -30 l 1
 49 0 l 1
EndSplineSet
EndChar

StartChar: zero
Encoding: 48 48 17
Width: 756
VWidth: 1024
Flags: W
HStem: -15 102<253.345 519.228> 840 101<264.854 507.515>
VStem: 87 123<138.229 778.111> 563 122<138.229 778.111>
LayerCount: 2
Fore
SplineSet
87 463 m 0
 87 897 114 941 386 941 c 0
 658 941 685 897 685 463 c 0
 685 8 671 -15 386 -15 c 0
 102 -15 87 8 87 463 c 0
386 87 m 0
 554 87 563 105 563 463 c 0
 563 805 547 840 386 840 c 0
 226 840 210 805 210 463 c 0
 210 105 219 87 386 87 c 0
EndSplineSet
EndChar

StartChar: one
Encoding: 49 49 18
Width: 421
VWidth: 1024
Flags: W
HStem: -11 5<271 290> 909 20G<196.409 329>
VStem: 212 117<4 770>
LayerCount: 2
Fore
SplineSet
290 -6 m 1
 212 4 l 1
 212 770 l 1
 51 746 l 1
 55 841 l 1
 238 929 l 1
 329 927 l 1
 329 -6 l 2
 330 -6 330 -6 329 -9 c 0
 330 -11 330 -11 329 -11 c 2
 271 -11 l 1
 271 -6 l 1
 290 -6 l 1
EndSplineSet
EndChar

StartChar: two
Encoding: 50 50 19
Width: 587
VWidth: 1024
Flags: W
HStem: 0 114<183 492> 845 96<188.375 374.514>
VStem: 49 134<114 244.006> 53 120<711 826.387> 399 118<537.634 821.042>
LayerCount: 2
Fore
SplineSet
49 0 m 1xe8
 49 61 l 2xe8
 49 314 54 269 204 383 c 0
 373 512 399 548 399 654 c 0
 399 819 384 845 288 845 c 0
 189 845 173 829 173 725 c 0
 173 668 172 650 168 650 c 0
 167 650 165 652 163 654 c 2
 54 711 l 2
 53 713 53 715 53 725 c 0xd8
 53 912 84 941 285 941 c 0
 486 941 517 901 517 642 c 0
 516 505 494 467 353 359 c 0
 207 247 186 265 183 114 c 1
 492 106 l 1
 532 0 l 1
 49 0 l 1xe8
EndSplineSet
EndChar

StartChar: three
Encoding: 51 51 20
Width: 670
VWidth: 1024
Flags: W
HStem: -15 111<219.534 448.42> 434 111<243 429.215> 839 101<207.822 426.919>
VStem: 58 133<125.675 230 763 822> 463 119<580.832 803.719> 474 137<121.943 400.846>
LayerCount: 2
Fore
SplineSet
279 940 m 4xf8
 441 940 582 925 582 743 c 0xf8
 582 728 581 712 579 695 c 0
 563 555 542 522 436 495 c 1
 587 459 611 423 611 257 c 0
 611 23 573 -15 335 -15 c 0
 111 -15 74 19 58 237 c 1
 191 230 l 1
 199 114 219 96 335 96 c 0
 456 96 474 119 474 262 c 0xf4
 474 412 451 434 308 434 c 2
 243 434 l 1
 243 489 l 1
 240 545 l 1
 316 545 l 2
 426 545 445 554 461 686 c 0
 462 697 463 708 463 718 c 0
 463 797 428 838 315 838 c 0
 307 838 299 839 291 839 c 0
 222 839 193 820 186 759 c 1
 59 763 l 1
 75 905 106 940 279 940 c 4xf8
EndSplineSet
EndChar

StartChar: four
Encoding: 52 52 21
Width: 662
VWidth: 1024
Flags: W
HStem: 248 111<496 608> 260 109<176 379> 917 20G<403 496>
VStem: 379 117<6 248 362 703>
LayerCount: 2
Fore
SplineSet
176 369 m 1x70
 379 362 l 1
 378 683 l 1
 380 703 l 1
 176 369 l 1x70
404 937 m 1
 496 927 l 1
 496 901 l 1
 500 900 l 1
 496 893 l 1
 496 359 l 1
 608 355 l 1
 608 244 l 1
 496 248 l 1xb0
 496 6 l 1
 380 -17 l 1
 379 252 l 1
 145 260 l 1
 55 258 l 1
 55 355 l 1
 403 925 l 1
 404 937 l 1
EndSplineSet
EndChar

StartChar: five
Encoding: 53 53 22
Width: 625
VWidth: 1024
Flags: W
HStem: -15 111<227.854 408.044> 495 97<223 406.994> 820 107<243 525>
VStem: 438 127<124.251 465.392>
LayerCount: 2
Fore
SplineSet
91 494 m 1
 123 927 l 1
 534 927 l 1
 525 813 l 1
 243 820 l 1
 223 592 l 1
 342 592 l 2
 535 592 565 551 565 290 c 0
 565 26 530 -15 308 -15 c 0
 156 -15 121 14 51 203 c 1
 165 250 l 1
 214 117 234 96 308 96 c 0
 420 96 438 122 438 290 c 0
 438 467 421 495 319 495 c 2
 214 495 l 1
 214 490 l 1
 91 494 l 1
EndSplineSet
EndChar

StartChar: six
Encoding: 54 54 23
Width: 663
VWidth: 1024
Flags: W
HStem: -15 102<229.33 449.419> 428 101<208.344 441.917> 724 21G<449 510.667> 845 96<236.371 415.263>
VStem: 478 127<116.262 389.254>
LayerCount: 2
Fore
SplineSet
572 784 m 1
 480 724 l 1
 418 829 399 845 345 845 c 0
 187 845 185 770 185 510 c 1
 188 510 221 529 331 529 c 2
 346 529 l 2
 568 526 566 514 596 303 c 0
 602 258 605 220 605 186 c 0
 605 17 523 -15 333 -15 c 0
 80 -15 67 9 67 490 c 0
 67 879 80 941 345 941 c 0
 460 941 491 920 572 784 c 1
323 428 m 1
 212 424 176 392 176 327 c 0
 176 326 176 325 176 324 c 0
 184 126 214 87 333 87 c 0
 428 87 478 101 478 207 c 0
 478 233 475 265 469 303 c 0
 452 412 449 428 356 428 c 2
 323 428 l 1
EndSplineSet
EndChar

StartChar: seven
Encoding: 55 55 24
Width: 581
VWidth: 1024
Flags: W
HStem: 823 116<76 353>
VStem: 174 132<-8 282.216>
LayerCount: 2
Fore
SplineSet
76 939 m 1
 534 939 l 1
 490 834 l 1
 312 233 306 220 306 36 c 2
 306 -8 l 1
 174 -8 l 1
 174 40 l 2
 174 237 180 250 353 831 c 1
 49 823 l 1
 76 939 l 1
EndSplineSet
EndChar

StartChar: eight
Encoding: 56 56 25
Width: 649
VWidth: 1024
Flags: W
HStem: -15 102<188.147 444.307> 439 111<205.428 432.989> 845 96<222.78 420.948>
VStem: 63 112<104.574 409.56> 84 111<562.851 820.547> 450 101<561.659 816.864> 462 127<101.5 409.025>
LayerCount: 2
Fore
SplineSet
325 87 m 0xf2
 433 87 462 88 462 200 c 0
 462 218 461 238 460 262 c 0
 452 415 450 439 325 439 c 0
 195 439 175 438 175 206 c 0
 175 103 175 87 325 87 c 0xf2
90 698 m 0
 109 929 139 941 325 941 c 0
 540 941 551 909 551 706 c 0xec
 551 578 542 521 499 496 c 1
 575 469 579 403 586 251 c 0
 588 220 589 193 589 168 c 0
 589 -14 535 -15 325 -15 c 0
 65 -15 63 23 63 269 c 0xf2
 63 413 76 472 134 496 c 1
 95 513 84 545 84 600 c 0xe8
 84 626 87 659 90 698 c 0
325 550 m 0
 433 550 450 551 450 664 c 0
 450 820 442 845 292 845 c 0
 223 845 211 838 199 688 c 0
 197 662 195 641 195 624 c 0
 195 562 219 550 325 550 c 0
EndSplineSet
EndChar

StartChar: nine
Encoding: 57 57 26
Width: 640
VWidth: 1024
Flags: W
HStem: -15 97<225.162 413.893> 311 106<227.802 432.236> 840 101<216.977 418.291>
VStem: 60 127<458.771 812.482> 457 117<130.859 732.357>
LayerCount: 2
Fore
SplineSet
314 417 m 2
 329 417 345 415 361 415 c 0
 410 415 457 431 457 558 c 0
 457 576 456 595 454 618 c 0
 435 827 425 840 345 840 c 2
 311 840 l 2
 205 840 187 815 187 656 c 0
 187 449 220 417 310 417 c 2
 314 417 l 2
461 335 m 1
 461 335 348 311 271 311 c 0
 132 311 60 374 60 656 c 0
 60 900 93 941 303 941 c 2
 311 941 l 1
 322 941 l 2
 561 941 574 905 574 342 c 0
 574 34 561 -14 296 -15 c 0
 180 -14 150 7 69 143 c 1
 161 203 l 1
 222 98 241 82 296 82 c 0
 444 82 461 128 461 335 c 1
EndSplineSet
EndChar

StartChar: colon
Encoding: 58 58 27
Width: 253
VWidth: 1024
Flags: W
HStem: 0 119<68 131.527> 584 113<68 187>
VStem: 68 119<0 119 584 697>
LayerCount: 2
Fore
SplineSet
68 0 m 1
 68 119 l 1
 181 135 l 1
 187 0 l 1
 68 0 l 1
66 584 m 1
 68 697 l 1
 187 697 l 1
 187 578 l 1
 66 584 l 1
EndSplineSet
EndChar

StartChar: semicolon
Encoding: 59 59 28
Width: 251
VWidth: 1024
Flags: W
HStem: -119 59<66 112.17> 578 119<66 173>
VStem: 66 107<578 666.199> 80 105<45.4025 119> 113 72<-58.7179 0>
LayerCount: 2
Fore
SplineSet
80 127 m 1xd0
 185 119 l 1xd0
 185 0 l 1
 185 -25 l 2xc8
 185 -117 181 -119 78 -119 c 2
 66 -119 l 1
 66 -60 l 1xe0
 74 -60 l 2
 112 -60 113 -59 113 -13 c 2
 113 0 l 1xc8
 66 0 l 1xe0
 80 127 l 1xd0
66 578 m 1xe0
 66 697 l 1xe0
 185 697 l 1xc8
 173 574 l 1
 66 578 l 1xe0
EndSplineSet
EndChar

StartChar: less
Encoding: 60 60 29
Width: 608
VWidth: 1024
Flags: W
LayerCount: 2
Fore
SplineSet
527 673 m 1
 554 568 l 1
 181 349 l 1
 537 150 l 5
 498 50 l 1
 60 308 l 1
 60 389 l 1
 527 673 l 1
EndSplineSet
EndChar

StartChar: equal
Encoding: 61 61 30
Width: 666
VWidth: 1024
Flags: W
HStem: 186 86<333.643 591> 200 90<76 333.357> 449 85<92 589>
LayerCount: 2
Fore
SplineSet
67 540 m 1x20
 589 534 l 1
 604 449 l 1
 92 446 l 1
 67 540 l 1x20
76 290 m 1x60
 591 272 l 1
 610 186 l 5xa0
 68 200 l 1
 76 290 l 1x60
EndSplineSet
EndChar

StartChar: greater
Encoding: 62 62 31
Width: 605
VWidth: 1024
Flags: W
LayerCount: 2
Fore
SplineSet
450 359 m 5
 59 563 l 1
 92 667 l 1
 544 406 l 1
 546 306 l 1
 86 43 l 1
 61 130 l 1
 450 359 l 5
EndSplineSet
EndChar

StartChar: question
Encoding: 63 63 32
Width: 573
VWidth: 1024
Flags: W
HStem: 0 119<296.977 346> 0 99<237 286.023> 839 102<206.317 388.751>
VStem: 223 104<185.712 401.168> 227 119<0 89.0505> 234 99<184 333.866> 237 109<9.9495 99> 410 105<644.872 817.973>
LayerCount: 2
Fore
SplineSet
396 683 m 0x31
 405 710 410 734 410 753 c 0
 410 815 365 839 312 839 c 0
 241 839 154 796 128 741 c 1
 48 777 l 1
 111 912 173 941 271 941 c 0
 276 941 282 941 287 941 c 0
 528 934 506 841 514 687 c 0
 515 675 515 664 515 656 c 0
 515 588 493 608 380 439 c 0
 336 373 327 364 327 335 c 0x31
 327 311 333 275 333 184 c 1
 234 178 l 1x25
 234 290 223 331 223 361 c 0
 223 396 238 414 298 506 c 0
 372 619 371 612 396 683 c 0x31
227 0 m 1x69
 237 99 l 1x63
 346 119 l 1xa3
 346 0 l 1xa9
 227 0 l 1x69
EndSplineSet
EndChar

StartChar: at
Encoding: 64 64 33
Width: 1141
VWidth: 1024
Flags: W
HStem: -294 103<341.969 907.886> -33 96<811.595 930.298> -17 96<444.652 647.498> 329 98<460.274 683.465> 663 107<487.834 652.05> 922 95<363.104 814.675>
VStem: 61 104<48.6333 670.927> 326 106<89.2713 300.689 524.689 592.096> 672 130<103.24 319> 981 99<171.56 728.722>
LayerCount: 2
Fore
SplineSet
675 319 m 1xbfc0
 675 319 600 329 537 329 c 0
 471 329 432 308 432 168 c 0
 432 101 449 79 507 79 c 0
 522 79 540 80 562 83 c 0
 637 93 642 89 672 143 c 1
 675 319 l 1xbfc0
607 922 m 0
 290 922 165 875 165 364 c 0
 165 -138 247 -191 597 -191 c 2
 644 -191 l 2
 789 -191 941 -187 1037 -104 c 1
 1081 -216 l 1
 901 -288 765 -294 597 -294 c 0
 191 -294 61 -215 61 352 c 0
 61 920 182 1017 591 1017 c 0
 973 1017 1080 941 1080 478 c 0
 1080 50 1040 -33 853 -33 c 0xdfc0
 817 -33 733 -17 729 2 c 1
 720 9 714 21 711 43 c 1
 682 -4 624 -1 502 -15 c 0
 489 -16 477 -17 466 -17 c 0xbfc0
 346 -17 326 59 326 124 c 0
 326 137 327 150 328 162 c 0
 339 306 354 414 498 423 c 0
 540 426 574 427 601 427 c 0
 670 427 692 420 692 420 c 1
 679 585 695 663 564 663 c 0
 481 663 448 602 435 499 c 1
 329 527 l 1
 349 694 448 770 566 770 c 0
 572 770 579 769 586 769 c 0
 745 757 783 698 800 482 c 1
 802 106 l 1
 809 76 871 64 897 63 c 1xdfc0
 967 95 981 201 981 484 c 0
 981 874 858 922 607 922 c 0
EndSplineSet
EndChar

StartChar: A
Encoding: 65 65 34
Width: 786
VWidth: 1024
Flags: W
HStem: 184 95<252 560> 193 87<252 560>
LayerCount: 2
Fore
SplineSet
252 279 m 1x80
 560 280 l 1x40
 396 779 l 1
 252 279 l 1x80
46 6 m 1
 330 928 l 1
 461 927 l 1
 741 5 l 1
 649 -26 l 1
 577 193 l 1x40
 214 184 l 1x80
 154 -22 l 1
 46 6 l 1
EndSplineSet
EndChar

StartChar: B
Encoding: 66 66 35
Width: 747
VWidth: 1024
Flags: W
HStem: 0 97<188 543.19> 372 94<184 452.453> 830 97<176 477.957>
VStem: 71 113<97 372 466 692.024> 76 100<466 828> 492 116<504.842 817.188> 556 129<113.201 348.092>
LayerCount: 2
Fore
SplineSet
188 97 m 1xf2
 365 97 l 1
 403 97 l 2
 533 97 556 102 556 193 c 0
 556 217 555 247 553 286 c 0
 549 360 521 372 348 372 c 2
 184 372 l 1
 188 97 l 1xf2
182 466 m 1
 287 461 l 1
 464 461 492 486 492 649 c 2
 492 685 l 2
 492 825 488 830 366 830 c 2
 334 830 l 2
 266 830 243 828 176 828 c 1xec
 182 466 l 1
530 438 m 1
 650 428 673 390 679 267 c 0
 682 210 685 165 685 130 c 0
 685 5 649 0 458 0 c 2
 401 0 l 1
 71 0 l 1
 71 5 l 1xf2
 76 927 l 1
 329 927 l 1
 384 927 l 2
 600 927 608 920 608 738 c 2
 608 690 l 2
 608 542 593 471 530 438 c 1
EndSplineSet
EndChar

StartChar: C
Encoding: 67 67 36
Width: 688
VWidth: 1024
Flags: W
HStem: -9 102<273.816 615.71> 839 102<284.024 617.5>
VStem: 59 127<198.17 717.182>
LayerCount: 2
Fore
SplineSet
520 839 m 0
 493 839 451 840 409 840 c 0
 222 840 191 754 186 465 c 1
 186 414 l 2
 186 166 225 93 419 93 c 0
 586 93 612 94 613 97 c 2
 633 -1 l 2
 632 -8 603 -9 419 -9 c 0
 117 -9 59 86 59 411 c 2
 59 465 l 1
 65 833 113 941 403 941 c 0
 577 941 634 937 634 937 c 1
 612 844 l 2
 612 842 597 839 520 839 c 0
EndSplineSet
EndChar

StartChar: D
Encoding: 68 68 37
Width: 768
VWidth: 1024
Flags: W
HStem: 0 96<188 507.847> 830 97<176 511.826>
VStem: 71 117<97 646.445> 76 100<280.555 830> 574 127<176.274 765.753>
LayerCount: 2
Fore
SplineSet
336 0 m 2xd8
 71 0 l 1
 71 5 l 1xe8
 76 927 l 1
 306 927 l 2
 649 927 701 908 701 589 c 0
 701 551 700 510 699 463 c 0
 690 10 682 0 336 0 c 2xd8
188 97 m 1
 246 97 268 96 327 96 c 0
 560 96 565 104 572 463 c 0
 573 504 574 540 574 573 c 0
 574 816 537 830 311 830 c 2
 176 830 l 1xd8
 188 97 l 1
EndSplineSet
EndChar

StartChar: E
Encoding: 69 69 38
Width: 675
VWidth: 1024
Flags: W
HStem: -6 114<291.191 613> -6 105<235 551.086> 370 99<235 582> 843 96<235 602>
VStem: 116 119<99 377 461 843>
LayerCount: 2
Fore
SplineSet
613 108 m 5xb8
 617 -6 l 5
 116 -6 l 5
 116 939 l 5
 602 939 l 5
 602 836 l 5
 440 836 381 842 235 843 c 5
 235 461 l 5
 578 469 l 5
 582 469 l 5
 582 370 l 5
 578 370 l 5
 235 377 l 5
 235 99 l 5x78
 397 99 453 108 613 108 c 5xb8
EndSplineSet
EndChar

StartChar: F
Encoding: 70 70 39
Width: 596
VWidth: 1024
Flags: W
VStem: 67 113<-8 362> 84 96<484 804>
LayerCount: 2
Fore
SplineSet
183 804 m 0x40
 180 484 l 1x40
 180 484 516 480 516 476 c 1
 507 378 l 1
 501 378 493 378 487 378 c 0
 412 378 335 367 180 362 c 1
 187 -19 l 1
 67 -8 l 1x80
 84 915 l 1
 85 914 96 913 114 913 c 0
 216 913 545 926 545 926 c 1
 545 825 l 1
 183 804 l 0x40
EndSplineSet
EndChar

StartChar: G
Encoding: 71 71 40
Width: 740
VWidth: 1024
Flags: W
HStem: -15 102<242.683 527.261> 366 101<346 570> 849 102<263.05 493.785>
VStem: 57 121<155.619 664.74> 560 107<709.31 765.722>
LayerCount: 2
Fore
SplineSet
346 366 m 1
 346 467 l 1
 672 467 l 1
 672 467 675 422 675 361 c 0
 675 292 671 204 656 135 c 0
 627 5 625 -15 391 -15 c 0
 131 -15 57 31 57 287 c 0
 57 337 60 396 65 463 c 0
 94 885 134 951 359 951 c 0
 576 951 618 919 667 712 c 1
 560 680 l 1
 525 826 498 849 359 849 c 0
 231 849 207 797 184 463 c 0
 180 404 178 354 178 311 c 0
 178 121 226 87 391 87 c 0
 525 87 535 100 552 180 c 0
 569 260 570 366 570 366 c 1
 346 366 l 1
EndSplineSet
EndChar

StartChar: H
Encoding: 72 72 41
Width: 736
VWidth: 1024
Flags: W
HStem: 388 85<186 555> 909 20G<70.0873 193>
VStem: 70 123<473 922> 72 113<2 388 473 641.094> 549 114<1 381 480 748.051> 564 94<480 927>
LayerCount: 2
Fore
SplineSet
555 381 m 1xc8
 185 388 l 1
 179 -7 l 1
 75 2 l 1
 72 469 l 1
 71 471 l 1
 72 471 l 1xd8
 70 929 l 1
 193 922 l 1
 186 473 l 1
 557 480 l 1
 564 927 l 1
 658 927 l 1xe4
 663 1 l 1
 549 -3 l 1
 555 381 l 1xc8
EndSplineSet
EndChar

StartChar: I
Encoding: 73 73 42
Width: 263
VWidth: 1024
Flags: W
HStem: 1 21G<137 196> 910 20G<66 184>
VStem: 66 118<233.131 924> 78 112<6 689.869>
LayerCount: 2
Fore
SplineSet
66 919 m 1xe0
 66 930 l 1
 184 924 l 1xe0
 190 6 l 1
 196 1 l 1
 137 1 l 1
 137 3 l 1
 78 4 l 1xd0
 66 919 l 1xe0
EndSplineSet
EndChar

StartChar: J
Encoding: 74 74 43
Width: 555
VWidth: 1024
Flags: W
HStem: -15 111<216.737 291.994>
VStem: 61 118<136.605 280> 379 98<114.434 857.982> 385 102<349.018 920>
LayerCount: 2
Fore
SplineSet
61 280 m 1xe0
 179 301 l 1
 179 247 l 2
 179 113 242 96 274 96 c 0
 284 96 292 98 292 98 c 0
 377 111 379 123 379 237 c 0
 379 241 379 245 379 250 c 0
 379 260 379 272 379 284 c 2xe0
 385 920 l 1
 487 927 l 2
 488 927 488 927 487 924 c 0
 488 922 488 922 487 922 c 2xd0
 477 285 l 1
 477 26 467 -14 274 -15 c 0
 266 -15 258 -15 251 -15 c 0
 123 -15 61 -1 61 217 c 2
 61 280 l 1xe0
EndSplineSet
EndChar

StartChar: K
Encoding: 75 75 44
Width: 691
VWidth: 1024
Flags: W
HStem: 0 21G<521 639.119> 921 20G<71 189.098>
VStem: 75 118<0 343 531 926>
LayerCount: 2
Fore
SplineSet
75 0 m 1
 71 926 l 1
 189 941 l 1
 191 531 l 1
 473 944 l 1
 625 927 l 1
 382 599 l 1
 648 0 l 1
 521 12 l 1
 306 497 l 1
 193 343 l 1
 193 -9 l 1
 75 0 l 1
EndSplineSet
EndChar

StartChar: L
Encoding: 76 76 45
Width: 585
VWidth: 1024
Flags: W
HStem: 0 101<202 515.958> 911 20G<68.1722 186>
VStem: 68 118<460.882 923> 76 126<101 460.368>
LayerCount: 2
Fore
SplineSet
211 918 m 1xc0
 211 918 211 917 212 918 c 2
 211 918 l 1xc0
76 2 m 1xd0
 68 931 l 1
 186 923 l 1xe0
 202 101 l 1
 460 101 516 101 516 99 c 2
 515 99 l 1
 536 0 l 1
 204 0 l 1
 204 -2 l 1
 76 2 l 1xd0
EndSplineSet
EndChar

StartChar: M
Encoding: 77 77 46
Width: 890
VWidth: 1024
Flags: W
HStem: 0 21G<388 481.907> 909 20G<636.36 719>
VStem: 67 121<17 580.687> 79 97<230.637 769> 706 112<17 414.918> 712 86<508.082 799>
LayerCount: 2
Fore
SplineSet
79 927 m 1xd0
 231 923 l 1
 437 202 l 1
 642 929 l 1
 719 927 l 1
 798 925 l 1xd4
 818 -2 l 1
 706 17 l 1xc8
 712 799 l 1
 476 0 l 1
 390 0 l 1
 388 6 l 1
 382 6 l 1
 385 17 l 1
 176 769 l 1xd4
 188 17 l 1
 67 -2 l 1xe0
 79 927 l 1xd0
EndSplineSet
EndChar

StartChar: N
Encoding: 78 78 47
Width: 740
VWidth: 1024
Flags: W
HStem: 0 21G<72 196> 914 21G<72.9785 197.762 553.202 662>
VStem: 72 124<0 483.811> 73 110<218.189 697> 561 105<142 925>
LayerCount: 2
Fore
SplineSet
553 934 m 1xd8
 662 925 l 1
 666 -1 l 1
 499 -7 l 1
 183 697 l 5xd8
 196 5 l 1
 196 0 l 1
 72 0 l 1
 72 5 l 1xe8
 73 935 l 1
 204 914 l 1
 561 142 l 1
 553 934 l 1xd8
EndSplineSet
EndChar

StartChar: O
Encoding: 79 79 48
Width: 777
VWidth: 1024
Flags: W
HStem: -15 102<257.694 522.556> 840 101<262.409 495.139>
VStem: 59 127<174.64 741.246> 585 127<151.647 687.805>
LayerCount: 2
Fore
SplineSet
186 463 m 0
 186 133 213 87 398 87 c 0
 544 87 585 127 585 334 c 0
 585 372 583 414 581 463 c 4
 566 773 531 840 383 840 c 0
 221 840 186 773 186 463 c 0
413 -15 m 0
 109 -15 59 42 59 463 c 0
 59 856 117 941 383 941 c 0
 631 941 689 856 708 463 c 0
 710 410 712 363 712 321 c 0
 712 40 650 -15 413 -15 c 0
EndSplineSet
EndChar

StartChar: P
Encoding: 80 80 49
Width: 633
VWidth: 1024
Flags: W
HStem: 325 97<185 446.312> 830 97<173 436.442> 922 5<67 69>
VStem: 69 104<463.004 830> 75 110<29.4612 325 422 727.83> 466 102<444.56 800.321>
LayerCount: 2
Fore
SplineSet
183 422 m 1xd4
 334 422 l 2
 443 422 466 430 466 557 c 0
 466 583 465 613 464 649 c 0
 457 821 451 830 324 830 c 2
 173 830 l 1
 183 422 l 1xd4
67 922 m 1xb4
 67 927 l 1xb4
 259 927 l 2
 490 927 554 918 564 653 c 0
 566 595 568 547 568 507 c 0
 568 338 533 325 329 325 c 2
 185 325 l 1
 193 -13 l 1
 75 -8 l 1xcc
 69 922 l 1
 67 922 l 1xb4
EndSplineSet
EndChar

StartChar: Q
Encoding: 81 81 50
Width: 768
VWidth: 1024
Flags: W
HStem: -15 102<253.188 441.296> 840 101<250.857 488.949>
VStem: 59 106<198.127 729.307> 597 106<179.224 624.196>
LayerCount: 2
Fore
SplineSet
442 90 m 1
 381 183 l 1
 479 207 l 1
 532 127 l 1
 564 160 597 212 597 314 c 0
 597 354 591 409 588 464 c 0
 571 774 519 840 379 840 c 0
 220 840 165 783 165 473 c 0
 165 148 212 87 379 87 c 0
 402 87 423 88 442 90 c 1
59 463 m 0
 59 856 116 941 379 941 c 0
 620 941 676 856 698 463 c 0
 701 403 703 351 703 304 c 0
 703 141 679 59 604 19 c 1
 642 -39 l 1
 560 -90 l 1
 507 -8 l 1
 470 -13 428 -15 379 -15 c 0
 101 -15 59 50 59 463 c 0
EndSplineSet
EndChar

StartChar: R
Encoding: 82 82 51
Width: 656
VWidth: 1024
Flags: W
HStem: 347 97<190 328> 845 82<193.845 446.333>
VStem: 72 118<3 347 444 834.891> 461 118<463.201 833.404>
LayerCount: 2
Fore
SplineSet
190 444 m 1
 330 444 l 2
 455 444 461 454 461 649 c 0
 461 835 457 845 377 845 c 0
 293 845 252 837 191 833 c 1
 190 444 l 1
604 5 m 1
 606 0 l 1
 471 -5 l 1
 328 347 l 1
 190 347 l 1
 190 -8 l 1
 72 3 l 1
 72 927 l 1
 326 927 l 2
 567 927 579 914 579 649 c 0
 579 411 571 360 430 350 c 1
 604 5 l 1
EndSplineSet
EndChar

StartChar: S
Encoding: 83 83 52
Width: 663
VWidth: 1024
Flags: W
HStem: -2 104<192.883 460.173> 722 21G<465.5 542> 831 111<201.163 445.499>
VStem: 57 101<138.543 212.405> 59 112<554.03 803.044> 482 117<122.366 357.849>
LayerCount: 2
Fore
SplineSet
62 180 m 0xec
 60 190 59 200 57 210 c 1
 158 237 l 1xf4
 177 119 196 102 282 102 c 0
 310 102 344 103 387 104 c 0
 475 106 471 126 480 251 c 0
 481 265 482 278 482 289 c 0
 482 365 451 376 308 406 c 0
 72 455 66 471 60 690 c 0
 60 703 59 716 59 728 c 0
 59 911 106 941 304 941 c 0
 343 941 375 942 402 942 c 0
 506 942 533 926 585 773 c 0
 587 768 588 763 590 758 c 1
 482 722 l 1
 449 822 433 831 366 831 c 0
 349 831 329 831 304 831 c 0
 201 831 171 810 171 686 c 0
 171 673 171 657 172 641 c 0
 176 544 183 537 394 493 c 0
 570 457 599 444 599 307 c 0
 599 293 598 278 598 261 c 0
 592 56 585 6 351 1 c 0
 300 0 259 -2 225 -2 c 0
 119 -2 90 20 62 180 c 0xec
EndSplineSet
EndChar

StartChar: T
Encoding: 84 84 53
Width: 681
VWidth: 1024
Flags: W
HStem: 826 101<400 632> 841 86<50 282>
VStem: 282 118<4 831>
LayerCount: 2
Fore
SplineSet
341 0 m 1xa0
 341 -4 l 1
 282 -4 l 1
 282 835 l 1
 46 841 l 1
 46 884 l 1
 48 884 l 1
 50 927 l 1x60
 632 927 l 1
 632 826 l 1
 627 826 l 1
 400 831 l 1
 400 4 l 1
 341 0 l 1xa0
EndSplineSet
EndChar

StartChar: U
Encoding: 85 85 54
Width: 706
VWidth: 1024
Flags: W
HStem: -15 116<221.198 469.607> 909 20G<67.9651 184 502 635.93>
VStem: 67 118<140.86 908> 510 124<150.375 921>
LayerCount: 2
Fore
SplineSet
184 910 m 2
 185 908 184 908 184 908 c 1
 185 380 l 2
 185 115 193 101 351 101 c 0
 490 101 498 115 510 381 c 1
 502 921 l 1
 636 929 l 1
 634 359 l 1
 618 3 604 -15 351 -15 c 0
 81 -15 67 3 67 359 c 2
 68 932 l 1
 184 913 l 2
 185 913 184 910 184 910 c 2
EndSplineSet
EndChar

StartChar: V
Encoding: 86 86 55
Width: 671
VWidth: 1024
Flags: W
HStem: 916 20G<72.5926 164.868 517.785 594.724>
LayerCount: 2
Fore
SplineSet
42 909 m 1
 160 936 l 1
 335 217 l 1
 523 938 l 1
 627 909 l 1
 393 0 l 1
 388 0 l 1
 389 -6 l 1
 335 0 l 1
 278 0 l 1
 280 7 l 1
 42 909 l 1
EndSplineSet
EndChar

StartChar: W
Encoding: 87 87 56
Width: 885
VWidth: 1024
Flags: W
HStem: 918 20G<70.7407 154.006 399 502.398>
VStem: 732 106<861.369 914.309>
LayerCount: 2
Fore
SplineSet
43 911 m 1
 150 938 l 1
 291 234 l 1
 399 929 l 1
 498 934 l 1
 657 211 l 5
 732 950 l 1
 838 911 l 1
 706 -16 l 1
 596 0 l 1
 462 652 l 1
 344 16 l 1
 341 0 l 1
 236 -10 l 1
 43 911 l 1
EndSplineSet
EndChar

StartChar: X
Encoding: 88 88 57
Width: 669
VWidth: 1024
Flags: W
HStem: -14 5<114 131> 915 20G<82 195.231>
LayerCount: 2
Fore
SplineSet
476 943 m 1
 609 927 l 1
 400 470 l 1
 626 -20 l 1
 507 0 l 1
 346 351 l 1
 180 -14 l 1
 112 -14 l 1
 114 -9 l 1
 131 -9 l 1
 44 0 l 1
 275 505 l 1
 82 927 l 1
 186 935 l 1
 330 623 l 1
 476 943 l 1
EndSplineSet
EndChar

StartChar: Y
Encoding: 89 89 58
Width: 688
VWidth: 1024
Flags: W
VStem: 283 119<3 440>
LayerCount: 2
Fore
SplineSet
523 951 m 1
 645 919 l 1
 402 439 l 1
 400 440 l 1
 402 -5 l 1
 283 3 l 1
 285 443 l 1
 283 442 l 1
 41 921 l 1
 159 944 l 1
 340 559 l 1
 523 951 l 1
EndSplineSet
EndChar

StartChar: Z
Encoding: 90 90 59
Width: 704
VWidth: 1024
Flags: W
HStem: 0 97<173.268 628> 8 101<56 58 173 535.049> 826 101<82 468 624 628>
LayerCount: 2
Fore
SplineSet
173 106 m 1x60
 656 97 l 1
 628 0 l 1xa0
 56 8 l 1
 56 109 l 1
 58 109 l 1
 468 826 l 1
 82 826 l 1
 71 927 l 1
 628 927 l 1
 628 826 l 1
 624 826 l 1
 173 106 l 1x60
EndSplineSet
EndChar

StartChar: bracketleft
Encoding: 91 91 60
Width: 365
VWidth: 1024
Flags: W
HStem: -115 86<175 308> 920 92<162 299>
VStem: 72 90<263.365 920> 76 232<-115 -50.3995 949.386 1012> 76 99<-29 627.635>
LayerCount: 2
Fore
SplineSet
162 920 m 1xe0
 175 -29 l 1xc8
 319 -36 l 1
 308 -115 l 1
 76 -115 l 1xd0
 72 1012 l 1
 311 1012 l 1
 299 918 l 1
 162 920 l 1xe0
EndSplineSet
EndChar

StartChar: backslash
Encoding: 92 92 61
Width: 444
VWidth: 1024
Flags: W
HStem: 0 21G<322.937 357.615> 921 20G<48 158.164>
VStem: 48 374
LayerCount: 2
Fore
SplineSet
329 0 m 1
 48 927 l 1
 152 941 l 5
 422 65 l 1
 329 0 l 1
EndSplineSet
EndChar

StartChar: bracketright
Encoding: 93 93 62
Width: 357
VWidth: 1024
Flags: W
HStem: -115 99<58 158> 927 85<54 179>
VStem: 158 123<-15 386.348> 179 106<520.652 922>
LayerCount: 2
Fore
SplineSet
158 -15 m 1xe0
 179 922 l 1
 54 927 l 1
 46 1012 l 1
 285 1012 l 1xd0
 281 -115 l 1
 49 -115 l 1
 58 -16 l 1
 158 -15 l 1xe0
EndSplineSet
EndChar

StartChar: asciicircum
Encoding: 94 94 63
Width: 715
VWidth: 1024
Flags: W
LayerCount: 2
Fore
SplineSet
575 339 m 1
 360 697 l 1
 142 336 l 1
 55 361 l 1
 313 823 l 1
 394 824 l 1
 662 367 l 1
 575 339 l 1
EndSplineSet
EndChar

StartChar: underscore
Encoding: 95 95 64
Width: 764
VWidth: 1024
Flags: W
HStem: -132 64<96 666>
LayerCount: 2
Fore
SplineSet
96 -132 m 1
 79 -68 l 1
 666 -68 l 1
 684 -132 l 1
 96 -132 l 1
EndSplineSet
EndChar

StartChar: grave
Encoding: 96 96 65
Width: 322
VWidth: 1024
Flags: W
HStem: 784 232
VStem: 58 201
LayerCount: 2
Fore
SplineSet
58 955 m 1
 144 1016 l 1
 204 928 l 1
 259 839 l 1
 189 784 l 1
 129 866 l 1
 58 955 l 1
EndSplineSet
EndChar

StartChar: a
Encoding: 97 97 66
Width: 605
VWidth: 1024
Flags: W
HStem: -17 87<162.618 376.993> 325 97<178.675 434.677> 620 94<182.322 399.154>
VStem: 61 95<78.2087 304.156> 70 92<565.262 601.549> 437 99<116.251 307>
LayerCount: 2
Fore
SplineSet
436 307 m 1xf4
 436 307 294 325 239 325 c 0
 176 325 165 299 157 162 c 0
 157 155 156 148 156 141 c 0
 156 85 176 70 218 70 c 0
 240 70 264 73 295 77 c 0
 370 87 427 109 437 163 c 1
 436 307 l 1xf4
70 568 m 1xec
 87 663 110 714 249 714 c 0
 264 714 280 713 297 712 c 0
 487 699 508 699 525 483 c 0
 534 372 536 242 536 143 c 0
 536 49 534 -18 534 -18 c 1
 469 -10 462 -11 453 -7 c 0
 445 -3 449 9 444 44 c 1
 415 -3 356 0 234 -14 c 0
 218 -16 203 -17 189 -17 c 0
 104 -17 61 18 61 163 c 0xf4
 61 403 93 418 231 422 c 1
 383 417 435 413 435 413 c 1
 423 571 443 615 297 617 c 0
 275 619 259 620 245 620 c 0
 192 620 178 602 162 540 c 1
 70 568 l 1xec
EndSplineSet
EndChar

StartChar: b
Encoding: 98 98 67
Width: 617
VWidth: 1024
Flags: W
HStem: -15 95<213.234 409.934> 617 94<213.488 391.624> 922 20G<73.9366 147.793>
VStem: 71 109<0 31 113.481 582.625 667 913> 461 91<137.743 519.377>
LayerCount: 2
Fore
SplineSet
180 426 m 1
 180 282 l 2
 183 109 207 80 302 80 c 0
 415 80 461 102 461 334 c 1
 448 567 402 617 302 617 c 0
 209 617 185 589 180 426 c 1
552 348 m 1
 552 34 523 -15 341 -15 c 0
 261 -15 211 -6 179 31 c 1
 179 0 l 1
 172 0 l 1
 71 -15 l 1
 71 -5 l 1
 74 942 l 1
 181 913 l 1
 181 903 l 1
 180 667 l 1
 212 702 262 711 341 711 c 0
 506 711 535 662 552 348 c 1
EndSplineSet
EndChar

StartChar: c
Encoding: 99 99 68
Width: 581
VWidth: 1024
Flags: W
HStem: -10 94<206.101 414.551> 618 90<189.347 411.484>
VStem: 59 99<145.25 588.188> 429 91<98.3359 139.68>
LayerCount: 2
Fore
SplineSet
429 155 m 1
 520 138 l 1
 498 22 493 -10 299 -10 c 0
 93 -10 73 -7 61 355 c 0
 60 389 59 421 59 449 c 0
 59 683 104 708 251 708 c 0
 266 708 282 707 299 707 c 0
 518 700 499 630 522 570 c 1
 432 549 l 1
 418 583 432 616 299 617 c 0
 282 617 267 618 253 618 c 0
 184 618 158 597 158 377 c 0
 158 107 196 84 299 84 c 0
 395 84 421 86 429 155 c 1
EndSplineSet
EndChar

StartChar: d
Encoding: 100 100 69
Width: 613
VWidth: 1024
Flags: W
HStem: -15 95<214.543 396.766> 617 94<224.919 396.512> 922 20G<462.207 536.063>
VStem: 58 119<122.44 556.612> 430 109<0 31 113.481 582.625 667 913>
LayerCount: 2
Fore
SplineSet
58 348 m 1
 75 662 104 711 269 711 c 0
 348 711 398 702 430 667 c 1
 429 903 l 1
 429 913 l 1
 536 942 l 1
 539 -5 l 1
 539 -15 l 1
 438 0 l 1
 431 0 l 1
 431 31 l 1
 399 -6 349 -15 269 -15 c 0
 87 -15 58 34 58 348 c 1
430 426 m 1
 425 589 401 617 308 617 c 0
 208 617 190 581 177 348 c 1
 177 116 195 80 308 80 c 0
 403 80 427 109 430 282 c 2
 430 426 l 1
EndSplineSet
EndChar

StartChar: e
Encoding: 101 101 70
Width: 588
VWidth: 1024
Flags: W
HStem: -12 84<193.195 392.62> 305 98<163 413.33> 624 93<188.833 380.93>
VStem: 59 104<101.875 306.406 403 604.724> 415 94<396 592.18> 431 101<115.608 154.316>
LayerCount: 2
Fore
SplineSet
282 624 m 2xf8
 274 624 l 2
 183 624 163 621 163 418 c 2
 163 403 l 1
 414 396 l 1
 414 413 415 429 415 443 c 0
 415 593 393 624 282 624 c 2xf8
163 305 m 1
 168 74 187 72 298 72 c 2
 304 72 l 2
 384 72 402 88 431 178 c 1
 532 152 l 1xf4
 486 12 454 -12 306 -12 c 0
 98 -12 66 -12 60 361 c 0
 60 385 59 406 59 428 c 0
 59 708 101 711 296 716 c 0
 314 716 330 717 345 717 c 0
 483 717 509 691 509 526 c 0
 509 474 507 407 504 323 c 1
 390 317 277 311 163 305 c 1
EndSplineSet
EndChar

StartChar: f
Encoding: 102 102 71
Width: 433
VWidth: 1024
Flags: W
HStem: 689 20G<51.5824 140> 838 89<248.514 369>
VStem: 140 104<-8 606 703 836.641>
LayerCount: 2
Fore
SplineSet
244 696 m 1
 369 688 l 1
 378 598 l 1
 244 606 l 1
 242 -19 l 1
 141 -8 l 1
 140 613 l 1
 43 618 l 1
 54 709 l 1
 140 703 l 1
 140 762 l 1
 146 922 142 927 240 927 c 2
 262 927 l 1
 369 927 l 1
 383 833 l 1
 303 837 l 2
 294 837 286 838 279 838 c 0
 246 838 247 825 244 726 c 2
 244 696 l 1
EndSplineSet
EndChar

StartChar: g
Encoding: 103 103 72
Width: 579
VWidth: 1024
Flags: W
HStem: -261 97<117.171 372.037> -6 101<184.978 384.044> 613 88<191.464 366.083> 701 20G<419 509.5>
VStem: 67 98<107.762 585.818> 401 109<108.131 573.382 667 692> 401 99<-131.266 0 108.131 573.382>
LayerCount: 2
Fore
SplineSet
293 613 m 2xe8
 272 613 l 2
 182 613 165 604 165 344 c 0
 165 106 172 95 254 95 c 2
 283 95 l 1
 307 95 l 2
 388 95 403 103 403 304 c 0
 403 537 395 613 293 613 c 2xe8
265 -164 m 0
 390 -164 401 -110 401 -36 c 2
 401 0 l 1xda
 401 0 321 -6 244 -6 c 2
 234 -6 l 2
 67 -6 67 -3 67 340 c 2
 67 352 l 2
 67 680 94 701 219 701 c 2
 281 701 l 1
 293 701 l 2
 359 701 372 700 401 667 c 1xec
 401 697 l 1xea
 509 721 l 2
 510 721 511 692 510 692 c 2xdc
 500 -7 l 1xda
 488 -218 487 -230 354 -256 c 0
 337 -259 318 -261 299 -261 c 0
 206 -261 95 -229 53 -220 c 1
 70 -174 65 -194 87 -125 c 1
 87 -125 175 -164 265 -164 c 0
EndSplineSet
EndChar

StartChar: h
Encoding: 104 104 73
Width: 549
VWidth: 1024
Flags: W
HStem: 600 105<182.476 358.328>
VStem: 70 101<7 588.095 673 927> 367 109<152.266 592.96> 380 99<1 340.734>
LayerCount: 2
Fore
SplineSet
380 1 m 1xd0
 367 492 l 1
 367 510 l 2
 367 596 353 600 278 600 c 0
 186 600 171 586 171 499 c 2
 171 7 l 1
 70 -2 l 1
 77 944 l 1
 171 927 l 1
 171 673 l 1
 199 698 245 705 322 705 c 0
 455 705 476 694 476 492 c 2xe0
 479 -7 l 1
 380 1 l 1xd0
EndSplineSet
EndChar

StartChar: i
Encoding: 105 105 74
Width: 261
VWidth: 1024
Flags: W
HStem: 686 20G<76 184.028> 778 119<65 185>
VStem: 65 128<778 897> 72 113<4 705>
LayerCount: 2
Fore
SplineSet
72 4 m 1xd0
 76 705 l 1
 184 706 l 1
 185 -3 l 1
 72 4 l 1xd0
65 778 m 1xe0
 65 897 l 1xe0
 185 897 l 1xd0
 193 770 l 1
 65 778 l 1xe0
EndSplineSet
EndChar

StartChar: j
Encoding: 106 106 75
Width: 309
VWidth: 1024
Flags: W
HStem: -170 95<36 66.84> 677 20G<118 241> 777 119<113 232>
VStem: 113 119<777 896> 118 123<522.968 697> 134 91<-79.516 391.845>
LayerCount: 2
Fore
SplineSet
36 -75 m 1xe4
 84 -89 l 1
 130 -72 134 -76 134 -34 c 2
 134 0 l 1xe4
 118 697 l 1
 241 697 l 1xe8
 225 0 l 1
 225 -72 l 2
 225 -155 216 -146 115 -184 c 1
 36 -170 l 1
 36 -75 l 1xe4
113 777 m 1xf0
 113 896 l 1
 232 896 l 1
 232 777 l 1
 113 777 l 1xf0
EndSplineSet
EndChar

StartChar: k
Encoding: 107 107 76
Width: 550
VWidth: 1024
Flags: W
HStem: 687 20G<384.274 438.574> 899 20G<90 197.444>
VStem: 63 108<-3 257> 90 108<603.835 907>
LayerCount: 2
Fore
SplineSet
63 -3 m 1xe0
 90 907 l 1
 198 919 l 1xd0
 184 415 l 1
 399 707 l 1
 492 660 l 1
 308 437 l 1
 505 8 l 1
 388 -20 l 1
 256 352 l 1
 179 257 l 1
 171 -20 l 1
 63 -3 l 1xe0
EndSplineSet
EndChar

StartChar: l
Encoding: 108 108 77
Width: 259
VWidth: 1024
Flags: W
HStem: 898 20G<80.6973 136>
VStem: 67 110<-12 575.245> 81 110<323.687 915>
LayerCount: 2
Fore
SplineSet
191 915 m 1xa0
 191 902 l 1xa0
 177 -12 l 1
 67 -12 l 1
 67 -7 l 1xc0
 81 918 l 1
 136 915 l 1
 191 915 l 1xa0
EndSplineSet
EndChar

StartChar: m
Encoding: 109 109 78
Width: 846
VWidth: 1024
Flags: W
HStem: 600 114<194.364 358.661> 600 98<487.922 659.071>
VStem: 65 114<172.053 589.113 673 695> 77 102<6 534.947> 368 109<0 589.113> 664 114<6 441.549> 668 100<40.451 592.211>
LayerCount: 2
Fore
SplineSet
664 6 m 1x4c
 668 492 l 2
 668 595 656 600 581 600 c 0x4a
 491 600 477 586 477 499 c 2
 477 492 l 1
 471 -8 l 1
 368 0 l 1
 368 492 l 2
 368 595 356 600 281 600 c 0
 193 600 179 586 179 499 c 2xaa
 179 6 l 1
 77 -10 l 1x98
 65 717 l 1
 99 709 l 1
 179 695 l 1
 179 673 l 1
 206 698 231 714 306 714 c 0xa8
 385 714 443 700 462 654 c 1
 485 695 517 698 609 698 c 0
 741 698 768 694 768 492 c 1x6a
 778 -10 l 1
 664 6 l 1x4c
EndSplineSet
EndChar

StartChar: n
Encoding: 110 110 79
Width: 571
VWidth: 1024
Flags: W
HStem: 617 97<180.066 384.938>
VStem: 71 108<6 611.423 691 707> 398 99<2 602.853>
LayerCount: 2
Fore
SplineSet
391 2 m 1
 398 502 l 1
 398 517 l 2
 398 612 378 617 272 617 c 0
 221 617 193 613 179 595 c 1
 176 6 l 1
 70 -7 l 1
 71 728 l 1
 179 707 l 1
 179 691 l 1
 210 709 257 714 330 714 c 0
 474 714 496 704 497 502 c 2
 500 -11 l 1
 391 2 l 1
EndSplineSet
EndChar

StartChar: o
Encoding: 111 111 80
Width: 595
VWidth: 1024
Flags: W
HStem: -15 86<199.146 392.915> 626 85<196.621 390.268>
VStem: 61 106<101.284 600.075> 422 106<100.476 595.183>
LayerCount: 2
Fore
SplineSet
61 348 m 0
 61 709 93 711 295 711 c 0
 527 711 528 662 528 348 c 0
 528 -13 497 -15 295 -15 c 0
 62 -15 61 34 61 348 c 0
295 71 m 0
 405 71 422 72 422 348 c 0
 422 589 421 626 295 626 c 0
 184 626 167 626 167 348 c 0
 167 108 168 71 295 71 c 0
EndSplineSet
EndChar

StartChar: p
Encoding: 112 112 81
Width: 622
VWidth: 1024
Flags: W
HStem: -206 21G<69 179.827> -15 94<205.808 414.373> 618 95<211.346 394.522>
VStem: 72 108<-201 25 104.364 585.352 658 706> 446 110<111.099 536.669>
LayerCount: 2
Fore
SplineSet
69 -201 m 1
 72 733 l 1
 172 706 l 1
 172 658 l 1
 202 701 254 705 343 711 c 0
 357 712 371 713 383 713 c 0
 511 713 535 648 551 361 c 0
 554 309 556 264 556 225 c 0
 556 21 509 -15 343 -15 c 0
 259 -15 208 -15 178 25 c 1
 180 -206 l 1
 69 -201 l 1
302 79 m 0
 415 79 446 101 446 231 c 0
 446 254 445 281 443 311 c 0
 429 565 412 618 324 618 c 0
 318 618 312 617 305 617 c 0
 197 609 180 607 180 348 c 0
 180 80 197 79 302 79 c 0
EndSplineSet
EndChar

StartChar: q
Encoding: 113 113 82
Width: 625
VWidth: 1024
Flags: W
HStem: -207 21G<443 515> -15 103<218.855 398.109> 618 95<222.455 408.6>
VStem: 58 116<163.875 569.176> 443 108<-177 45 134.199 581.092 665 697>
LayerCount: 2
Fore
SplineSet
443 332 m 0
 443 568 427 618 332 618 c 0
 325 618 318 617 310 617 c 0
 214 610 174 584 174 441 c 0
 174 414 175 383 178 348 c 0
 195 123 213 88 274 88 c 0
 420 88 443 121 443 332 c 0
61 348 m 0
 59 383 58 415 58 444 c 0
 58 661 109 700 272 711 c 0
 289 712 305 713 319 713 c 0
 379 713 418 701 443 665 c 1
 443 697 l 1
 551 713 l 1
 551 -177 l 1
 443 -207 l 1
 443 45 l 1
 412 -3 360 -15 272 -15 c 0
 119 -15 75 46 61 348 c 0
EndSplineSet
EndChar

StartChar: r
Encoding: 114 114 83
Width: 450
VWidth: 1024
Flags: W
HStem: 610 98<222.954 394>
VStem: 69 107<-2 570.766 675 705>
LayerCount: 2
Fore
SplineSet
394 706 m 1
 394 608 l 1
 383 609 370 610 356 610 c 0
 284 610 183 588 176 525 c 1
 180 -2 l 1
 71 -9 l 1
 69 725 l 1
 176 705 l 1
 176 675 l 1
 199 695 302 708 362 708 c 0
 375 708 386 707 394 706 c 1
EndSplineSet
EndChar

StartChar: s
Encoding: 115 115 84
Width: 568
VWidth: 1024
Flags: W
HStem: -7 80<180.836 369.506> 615 91<194.136 388.828>
VStem: 87 92<439.438 601.387> 393 110<97.7516 274.822> 399 87<543.01 606.042>
LayerCount: 2
Fore
SplineSet
57 131 m 1xf0
 57 132 l 2
 55 145 54 160 52 177 c 1
 164 187 l 1
 173 79 172 73 270 73 c 0
 363 73 393 96 393 180 c 2
 393 202 l 2xf0
 393 265 388 278 286 300 c 0
 108 335 87 360 87 507 c 0
 87 677 114 706 289 706 c 2
 314 706 l 2
 432 706 473 703 486 591 c 1
 486 590 l 1
 490 557 490 543 490 543 c 1
 399 526 l 1
 399 535 l 2xe8
 399 613 374 615 302 615 c 2
 287 615 l 2
 202 615 179 607 179 518 c 0
 179 434 217 419 321 397 c 0
 494 363 503 339 503 231 c 2
 503 190 l 2
 503 20 474 -7 286 -7 c 2
 249 -7 l 2
 109 -7 75 -2 57 131 c 1xf0
EndSplineSet
EndChar

StartChar: t
Encoding: 116 116 85
Width: 419
VWidth: 1024
Flags: W
HStem: -9 93<240.449 347.553> 611 86<60.5725 133 239 358>
VStem: 133 106<84.9214 611 697 878>
LayerCount: 2
Fore
SplineSet
358 697 m 1
 358 607 l 1
 239 611 l 1
 239 150 l 2
 242 93 238 84 251 84 c 0
 254 84 258 85 263 85 c 2
 357 94 l 1
 358 -9 l 1
 213 -9 l 1
 179 -9 l 2
 120 -9 141 -1 133 121 c 1
 133 614 l 1
 46 617 l 1
 46 697 l 1
 133 697 l 1
 133 878 l 1
 239 887 l 1
 239 697 l 1
 358 697 l 1
EndSplineSet
EndChar

StartChar: u
Encoding: 117 117 86
Width: 559
VWidth: 1024
Flags: W
HStem: -15 105<181.556 363.375> 689 12G<67.9602 176 377 485.028>
VStem: 67 110<96.6526 685> 377 109<-15 25 103.949 693>
LayerCount: 2
Fore
SplineSet
377 210 m 2
 377 693 l 1
 485 709 l 1
 486 -5 l 1
 486 -15 l 1
 383 -38 l 1
 377 5 l 1
 377 25 l 1
 353 -7 341 -15 266 -15 c 0
 78 -15 67 -5 67 198 c 2
 68 701 l 1
 176 685 l 1
 177 198 l 1
 177 150 l 2
 177 93 185 90 270 90 c 0
 363 90 377 106 377 210 c 2
EndSplineSet
EndChar

StartChar: v
Encoding: 118 118 87
Width: 566
VWidth: 1024
Flags: W
HStem: 677 20G<48.7389 154 421 511.469>
LayerCount: 2
Fore
SplineSet
43 697 m 1
 154 681 l 1
 298 153 l 1
 421 689 l 1
 516 697 l 1
 354 -18 l 1
 243 0 l 1
 43 697 l 1
EndSplineSet
EndChar

StartChar: w
Encoding: 119 119 88
Width: 806
VWidth: 1024
Flags: W
HStem: 0 21G<497 610.304> 688 20G<46 150.63 351 439.53 665.498 744.652>
VStem: 46 101<658.443 693.425> 669 87<668.625 699.378>
LayerCount: 2
Fore
SplineSet
497 0 m 0
 397 508 l 1
 307 -12 l 1
 307 -12 195 0 196 0 c 1
 46 692 l 1
 147 708 l 1
 253 124 l 1
 351 697 l 1
 435 700 l 1
 565 126 l 1
 669 720 l 1
 756 697 l 1
 606 0 l 1
 606 0 498 -6 497 0 c 0
EndSplineSet
EndChar

StartChar: x
Encoding: 120 120 89
Width: 614
VWidth: 1024
Flags: W
HStem: 699 4G<75 210.705 455.429 517.256>
LayerCount: 2
Fore
SplineSet
467 723 m 1
 565 684 l 1
 377 381 l 1
 563 10 l 1
 463 -23 l 1
 318 284 l 1
 318 284 161 -2 160 -4 c 2
 44 14 l 1
 261 360 l 1
 75 699 l 1
 201 699 l 1
 316 462 l 1
 467 723 l 1
EndSplineSet
EndChar

StartChar: y
Encoding: 121 121 90
Width: 568
VWidth: 1024
Flags: W
HStem: 698 20G<78.2857 167.741 388.528 472.375>
LayerCount: 2
Fore
SplineSet
44 690 m 1
 164 718 l 1
 268 162 l 1
 393 721 l 1
 520 689 l 1
 257 -252 l 1
 144 -234 l 1
 228 7 l 1
 44 690 l 1
EndSplineSet
EndChar

StartChar: z
Encoding: 122 122 91
Width: 513
VWidth: 1024
Flags: W
HStem: 0 100<185.15 455> 0 90<155 424.85> 597 100<83 302.878> 606 91<83.1222 303>
VStem: 54 401<0 70>
LayerCount: 2
Fore
SplineSet
83 697 m 1x28
 439 697 l 1
 439 627 l 1
 155 90 l 1x58
 455 100 l 1
 455 0 l 1x88
 54 0 l 1
 54 70 l 1
 303 606 l 1x58
 83 597 l 1
 83 697 l 1x28
EndSplineSet
EndChar

StartChar: braceleft
Encoding: 123 123 92
Width: 370
VWidth: 1024
Flags: W
HStem: -121 103<234 306.659> 435 52<46 102.795> 925 110<243 300>
VStem: 112 196<925 1020.55> 120 99<499.115 920.099>
LayerCount: 2
Fore
SplineSet
308 1035 m 1xf0
 300 925 l 1
 243 921 l 1
 221 913 216 892 216 850 c 0
 216 818 219 776 219 718 c 0
 219 582 221 572 223 563 c 0
 217 536 232 468 178 451 c 1
 224 436 227 422 227 372 c 2
 227 340 l 1
 225 68 l 1
 229 26 220 -14 261 -17 c 2
 324 -18 l 1
 305 -121 l 1
 234 -115 l 2
 191 -112 126 -86 126 32 c 2
 122 314 l 2
 122 375 111 435 56 435 c 2
 46 435 l 1
 46 487 l 1
 56 487 l 2
 106 487 120 537 120 554 c 2
 120 578 l 2xe8
 120 623 119 716 114 798 c 0
 114 853 112 895 112 928 c 0
 112 1018 126 1035 234 1035 c 2
 308 1035 l 1xf0
EndSplineSet
EndChar

StartChar: bar
Encoding: 124 124 93
Width: 231
VWidth: 1024
Flags: W
VStem: 52 119<-234 530.483> 66 110<174.517 977>
LayerCount: 2
Fore
SplineSet
66 977 m 1x40
 176 991 l 5x40
 171 -234 l 1
 52 -272 l 1x80
 66 977 l 1x40
EndSplineSet
EndChar

StartChar: braceright
Encoding: 125 125 94
Width: 420
VWidth: 1024
Flags: W
HStem: -97 91<50 126 126.002 176.172> 428 66<288.048 372> 919 90<72.3281 148.036>
VStem: 160 99<696.2 911.671> 165 115<498.037 661.8> 182 86<0.460541 159.816>
LayerCount: 2
Fore
SplineSet
48 1009 m 1xf0
 137 1009 l 2
 261 1009 257 905 259 799 c 1xf0
 280 559 l 1xe8
 280 494 290 494 360 494 c 2
 372 494 l 1
 372 428 l 1
 360 428 l 2
 297 428 279 401 271 353 c 1
 268 52 l 2
 268 -75 202 -87 137 -97 c 1
 48 -97 l 1
 50 -6 l 1
 126 -5 l 1
 126 -5 129 -6 134 -6 c 0
 150 -6 182 1 182 53 c 1xe4
 158 338 l 2
 157 348 157 358 157 366 c 0
 157 424 176 436 234 452 c 1
 168 471 165 498 165 580 c 2xe8
 160 786 l 2
 160 856 157 919 109 919 c 1
 56 906 l 1
 48 1009 l 1xf0
EndSplineSet
EndChar

StartChar: asciitilde
Encoding: 126 126 95
Width: 577
VWidth: 1024
Flags: W
HStem: 336 76<324.681 416.287> 431 80<158.036 256.123>
VStem: 66 87<365 429.973> 421 91<412.781 492>
LayerCount: 2
Fore
SplineSet
153 365 m 1
 66 351 l 1
 66 489 81 511 193 511 c 0
 345 511 285 412 387 412 c 0
 413 412 421 429 421 492 c 1
 512 496 l 1
 512 358 494 336 382 336 c 0
 230 336 297 431 196 431 c 0
 170 431 153 428 153 365 c 1
EndSplineSet
EndChar

StartChar: exclamdown
Encoding: 161 161 96
Width: 265
VWidth: 1024
Flags: W
HStem: 646 123<75 194>
VStem: 71 123<-168 303.206 650 769>
LayerCount: 2
Fore
SplineSet
190 -180 m 1
 70 -168 l 1
 70 210 l 1
 90 553 l 1
 173 557 l 1
 198 224 l 1
 190 -180 l 1
71 646 m 1
 75 769 l 1
 194 769 l 1
 194 650 l 1
 71 646 l 1
EndSplineSet
EndChar

StartChar: cent
Encoding: 162 162 97
Width: 599
VWidth: 1024
Flags: W
HStem: -15 97<204.358 271> 621 90<190.165 256 342 426.339>
VStem: 63 99<127.976 592.051> 256 86<298.981 620 716 772> 271 83<-75 -30.7762> 271 71<82 407.019> 450 94<104.829 137.636>
LayerCount: 2
Fore
SplineSet
544 532 m 2xe6
 539 532 448 500 447 500 c 0
 449 500 l 0
 441 567 443 621 354 621 c 0xea
 350 621 346 620 342 620 c 1xf2
 342 82 l 1
 411 86 445 94 450 172 c 1
 544 134 l 1
 512 22 497 1 342 -15 c 1xe6
 354 -78 l 1
 271 -75 l 1xea
 271 -15 l 1xe6
 93 -13 63 9 63 348 c 0
 63 687 78 714 256 716 c 1
 258 776 l 1
 342 772 l 1xf2
 342 711 l 1
 502 708 504 680 541 547 c 0
 548 523 544 532 544 532 c 2xe6
271 82 m 1xe6
 256 624 l 1xf2
 181 621 162 586 162 348 c 0
 162 115 196 85 271 82 c 1xe6
EndSplineSet
EndChar

StartChar: sterling
Encoding: 163 163 98
Width: 618
VWidth: 1024
Flags: W
HStem: -11 94<249 534> 427 94<61.0248 143 300 480.868> 868 101<207.3 451.304>
VStem: 72 111<623.465 843.257> 185 120<178.576 427>
LayerCount: 2
Fore
SplineSet
143 521 m 1
 106 596 73 642 72 750 c 1
 101 1013 203 960 321 969 c 0
 326 969 332.016275078 970.403095398 337 970 c 0
 473 959 570 884 570 881 c 2
 570 881 566 876 492 815 c 1
 465 833 430 868 325 868 c 2
 312 868 l 2
 227 866 183 863 183 751 c 2
 183 740 l 2
 183 635 223 614 266 523 c 1
 299 527 481 525 481 525 c 1
 504 427 l 1
 300 427 l 1
 303 408 305.36866331 388.99691086 305 367 c 0
 302 188 278 155 249 83 c 1
 534 87 l 1
 556 -11 l 1
 85 -11 l 1
 85 -11 102 31 114 59 c 1
 112 59 l 1
 156 171 158 134 185 373 c 0
 187.245133025 392.873584923 184 411 180 427 c 1
 52 427 l 1
 61 520 l 1
 61 520 95 520 143 521 c 1
EndSplineSet
EndChar

StartChar: currency
Encoding: 164 164 99
Width: 784
VWidth: 1024
Flags: W
HStem: -15 109<336.474 602.556> 361 72<237 377.91> 377 49<342.09 488> 493 62<69 110 237 386.317> 508 47<336.683 486> 848 87<329.109 607.625>
VStem: 110 127<433 493> 112 107<557 712.372>
LayerCount: 2
Fore
SplineSet
51 372 m 1xc6
 56 428 l 1
 110 433 l 1
 110 463 l 1
 110 493 l 1
 60 493 l 1
 69 555 l 1xd6
 112 557 l 1
 121 855 234 931 446 935 c 0
 453 935 460 935 467 935 c 0
 726 935 724 844 735 843 c 1
 699 826 659 770 659 770 c 1
 637 802 608 848 467 848 c 0
 455 848 442 848 429 847 c 0
 309 841 226 776 219 556 c 1
 497 555 l 1
 486 508 l 1x8d
 237 493 l 1
 237 483 231 473 231 463 c 0
 231 453 237 443 237 433 c 1xd6
 488 426 l 1
 504 377 l 1xa6
 216 361 l 1
 218 221 290 94 450 94 c 0
 611 94 607 130 615 139 c 1
 708 102 l 1
 697 98 693 -15 446 -15 c 0
 180 -15 147 118 108 352 c 1
 51 372 l 1xc6
EndSplineSet
EndChar

StartChar: yen
Encoding: 165 165 100
Width: 699
VWidth: 1024
Flags: W
HStem: 165 74<159.044 291 408 534> 282 78<259.911 291 408 539>
VStem: 291 117<3.0547 165 239 282 364 440>
LayerCount: 2
Fore
SplineSet
530 951 m 1
 652 919 l 1
 409 439 l 1
 407 440 l 1
 408 364 l 1
 539 368 l 1
 539 282 l 1
 408 282 l 1
 408 239 l 1
 534 242 l 1
 543 164 l 1
 543 164 482 165 408 165 c 1
 409 -5 l 1
 290 3 l 1
 290 3 290 78 291 167 c 1
 219 167 159 168 159 168 c 1
 159 234 l 1
 291 237 l 1
 291 282 l 1
 159 282 l 1
 163 356 l 1
 292 360 l 1
 292 443 l 1
 290 442 l 1
 48 921 l 1
 166 944 l 1
 347 559 l 1
 530 951 l 1
EndSplineSet
EndChar

StartChar: brokenbar
Encoding: 166 166 101
Width: 226
VWidth: 1024
Flags: W
VStem: 78 74<10.115 458 518 842.168>
LayerCount: 2
Fore
SplineSet
82 458 m 5
 156 465 l 5
 152 -73 l 5
 72 -80 l 5
 82 458 l 5
70 1042 m 5
 148 1034 l 5
 152 518 l 5
 78 510 l 5
 70 1042 l 5
EndSplineSet
EndChar

StartChar: section
Encoding: 167 167 102
Width: 658
VWidth: 1024
Flags: W
HStem: 1 103<184.885 463.594> 290 84<275.104 385.979> 536 74<265.553 386.254> 831 110<203.13 487.734>
VStem: 60 112<551.435 801.579> 480 118<119.34 357.469>
LayerCount: 2
Fore
SplineSet
337 374 m 1
 388 389 408 422 408 454 c 0
 408 495 376 535 337 536 c 0
 336 536 334 536 333 536 c 0
 270 536 250 495 250 460 c 0
 250 440 257 420 265 414 c 1
 280 390 306 374 337 374 c 1
92 163 m 1
 235 113 264 107 387 104 c 1
 475 106 480 126 480 251 c 0
 480 308 478 338 454 358 c 1
 426 317 381 290 329 290 c 0
 249 290 183 355 177 437 c 1
 67 472 60 519 60 690 c 0
 60 907 93 941 304 941 c 2
 336 941 l 2
 380 941 444 937 573 897 c 1
 522 792 l 1
 446 817 426 831 304 831 c 0
 190 831 172 805 172 641 c 0
 172 591 175 565 206 545 c 1
 234 585 279 610 329 610 c 0
 405 610 469 551 480 473 c 1
 591 444 598 411 598 261 c 0
 598 40 585 6 351 1 c 1
 136 4 68 58 68 58 c 1
 92 163 l 1
EndSplineSet
EndChar

StartChar: dieresis
Encoding: 168 168 103
Width: 456
VWidth: 1024
Flags: W
HStem: 928 136<111.551 203 239 375> 930 146<81 172.449>
VStem: 81 128<930 1064> 239 136<928 1064>
LayerCount: 2
Fore
SplineSet
239 1064 m 5xb0
 375 1064 l 5
 375 928 l 5
 239 928 l 5
 239 1064 l 5xb0
81 1076 m 5x70
 203 1064 l 5xb0
 209 930 l 5
 81 930 l 5
 81 1076 l 5x70
EndSplineSet
EndChar

StartChar: copyright
Encoding: 169 169 104
Width: 868
VWidth: 1024
Flags: W
HStem: -26 68<312.349 547.491> 114 65<364.398 504.191> 551 63<366.939 510.466> 696 66<302.511 537.559>
VStem: 57 63<232.503 502.234> 269 82<189.195 543.907> 518 77<189.278 250.481 436 541.811> 735 76<233.329 494.644>
LayerCount: 2
Fore
SplineSet
514 264 m 1
 596 249 l 1
 587 132 565 114 432 114 c 0
 291 114 269 115 269 368 c 0
 269 591 287 614 395 614 c 0
 406 614 418 613 432 613 c 0
 578 611 595 593 595 488 c 0
 595 470 594 449 594 426 c 1
 518 436 l 1
 518 472 l 2
 518 539 511 550 432 551 c 2
 418 551 l 2
 361 551 351 539 351 368 c 0
 351 180 362 179 432 179 c 0
 498 179 509 190 514 264 c 1
120 366 m 0
 120 187 263 42 431 42 c 0
 598 42 735 189 735 368 c 0
 735 547 585 696 418 696 c 0
 250 696 120 546 120 366 c 0
434 762 m 0
 642 762 811 586 811 368 c 0
 811 150 642 -26 434 -26 c 0
 226 -26 57 150 57 368 c 0
 57 586 226 762 434 762 c 0
EndSplineSet
EndChar

StartChar: ordfeminine
Encoding: 170 170 105
Width: 602
VWidth: 1024
Flags: W
HStem: -24 94<163.618 378.47> 325 90<179.675 435.967> 613 94<183.322 400.154>
VStem: 62 95<75.8497 303.635> 71 92<558.36 594.549> 438 99<116.251 307>
LayerCount: 2
Fore
SplineSet
437 307 m 1xf4
 437 307 347 318 281 323 c 0
 265 324 252 325 240 325 c 0
 177 325 166 299 158 162 c 0
 158 155 157 148 157 141 c 0
 157 85 177 70 219 70 c 0
 241 70 265 73 296 77 c 0
 371 87 428 109 438 163 c 1
 437 307 l 1xf4
71 561 m 1xec
 88 656 111 707 250 707 c 0
 265 707 281 706 298 705 c 0
 488 692 509 692 526 476 c 0
 535 365 537 235 537 136 c 0
 537 42 535 -25 535 -25 c 1
 470 -17 463 -18 454 -14 c 0
 446 -10 450 2 445 37 c 1
 416 -10 358 -8 236 -22 c 0
 220 -24 204 -24 190 -24 c 0
 105 -24 62 11 62 156 c 0xf4
 62 396 94 411 232 415 c 1
 384 410 436 406 436 406 c 1
 424 564 444 608 298 610 c 0
 276 612 260 613 246 613 c 0
 193 613 179 596 163 534 c 1
 71 561 l 1xec
EndSplineSet
EndChar

StartChar: guillemotleft
Encoding: 171 171 106
Width: 539
VWidth: 1024
Flags: W
LayerCount: 2
Fore
SplineSet
213 648 m 1
 296 630 l 1
 151 348 l 1
 306 87 l 1
 233 63 l 1
 56 348 l 1
 213 648 l 1
399 656 m 1
 485 630 l 1
 323 348 l 1
 467 91 l 1
 389 67 l 1
 244 348 l 1
 399 656 l 1
EndSplineSet
EndChar

StartChar: logicalnot
Encoding: 172 172 107
Width: 576
VWidth: 1024
Flags: W
HStem: 251 121<76 169.607>
VStem: 383 116<139 278>
LayerCount: 2
Fore
SplineSet
499 127 m 1
 383 139 l 1
 383 278 l 1
 63 251 l 1
 76 372 l 1
 393 376 l 1
 509 380 l 1
 505 278 l 1
 499 127 l 1
EndSplineSet
EndChar

StartChar: registered
Encoding: 174 174 109
Width: 868
VWidth: 1024
Flags: W
HStem: -28 68<313.349 552.893> 325 44<362 440> 553 38<362 506.436> 694 66<303.511 538.559>
VStem: 57 65<230.503 500.234> 296 66<167 325 369 549.836> 515 66<372.73 552.112> 737 74<231.329 492.644>
LayerCount: 2
Fore
SplineSet
434 760 m 0
 642 760 811 584 811 366 c 0
 811 148 642 -28 434 -28 c 0
 226 -28 57 148 57 366 c 0
 57 584 226 760 434 760 c 0
362 369 m 1
 441 369 l 2
 511 369 515 374 515 463 c 0
 515 549 512 553 467 553 c 0
 420 553 396 550 362 548 c 1
 362 369 l 1
595 168 m 1
 595 167 l 1
 596 166 l 1
 520 163 l 1
 440 325 l 1
 438 325 l 1
 362 325 l 1
 362 162 l 1
 329 164 l 1
 296 167 l 1
 296 169 l 1
 296 589 l 1
 296 591 l 1
 313 591 l 1
 329 591 l 1
 362 591 l 1
 439 591 l 2
 574 591 581 585 581 463 c 0
 581 354 576 331 497 326 c 1
 595 168 l 1
122 364 m 0
 122 185 265 40 433 40 c 0
 600 40 737 187 737 366 c 0
 737 545 587 694 420 694 c 0
 252 694 122 544 122 364 c 0
EndSplineSet
EndChar

StartChar: macron
Encoding: 175 175 110
Width: 591
VWidth: 1024
Flags: W
HStem: 998 128<365.388 510> 1024 102<92 236.612>
LayerCount: 2
Fore
SplineSet
80 1126 m 1x40
 510 1126 l 1
 510 998 l 1x80
 92 1024 l 1
 80 1126 l 1x40
EndSplineSet
EndChar

StartChar: degree
Encoding: 176 176 111
Width: 378
VWidth: 1024
Flags: W
HStem: 591 57<129.39 243.169> 845 60<136.528 236.806>
VStem: 63 54<656.114 821.753> 253 59<655.404 831.614>
LayerCount: 2
Fore
SplineSet
63 748 m 1
 63 762 l 2
 63 822 89 905 188 905 c 0
 310 905 305 818 311 748 c 0
 312 741 312 734 312 727 c 0
 312 662 285 591 188 591 c 0
 65 591 67 688 63 748 c 1
184 648 m 0
 242 648 251 666 253 740 c 2
 253 746 l 2
 253 809 227 845 197 845 c 0
 194 845 191 845 188 844 c 0
 156 837 117 819 117 758 c 0
 117 752 117 746 118 740 c 0
 126 664 126 648 184 648 c 0
EndSplineSet
EndChar

StartChar: plusminus
Encoding: 177 177 112
Width: 678
VWidth: 1024
Flags: W
HStem: 19 81<372.057 474> 25 51<202 303.943> 371 92<375 622> 391 58<53 300>
VStem: 302 71<334.24 379 459 695>
LayerCount: 2
Fore
SplineSet
202 25 m 1x48
 202 76 l 1x48
 474 100 l 1
 474 19 l 1x88
 202 25 l 1x48
302 382 m 1
 53 391 l 1
 53 449 l 1x18
 300 457 l 1
 294 695 l 1
 380 695 l 1
 375 459 l 1
 622 463 l 1
 622 371 l 1x28
 373 379 l 1
 368 142 l 1
 307 142 l 1
 302 382 l 1
EndSplineSet
EndChar

StartChar: Superscripttwo
Encoding: 178 178 113
Width: 334
VWidth: 1024
Flags: W
HStem: 508 43<120 254> 830 37<119.055 206.586>
VStem: 62 58<551 614.337 779 827.766> 213 52<697.702 828.122>
LayerCount: 2
Fore
SplineSet
62 508 m 1
 62 534 l 2
 62 627 66 612 129 654 c 0
 202 703 213 717 213 758 c 0
 213 820 207 830 165 830 c 0
 123 830 116 824 116 785 c 0
 116 763 115 756 113 756 c 2
 111 758 l 1
 63 779 l 1
 63 785 l 2
 63 856 77 867 164 867 c 0
 251 867 265 852 265 753 c 0
 264 701 255 686 194 645 c 0
 131 602 121 609 120 551 c 1
 254 549 l 1
 271 508 l 1
 120 508 l 1
 62 508 l 1
EndSplineSet
EndChar

StartChar: Superscriptthree
Encoding: 179 179 114
Width: 352
VWidth: 1024
Flags: W
HStem: 519 42<120.567 225.192> 691 38<136 219.578> 846 39<115.182 223.982>
VStem: 60 54<565.406 613 818 843.767> 227 51<734.037 843.302> 231 56<563.678 687.056>
LayerCount: 2
Fore
SplineSet
60 616 m 1xf4
 114 613 l 1
 118 568 126 561 174 561 c 0
 223 561 231 570 231 625 c 0xf4
 231 682 222 691 163 691 c 2
 136 691 l 1
 136 712 l 1
 135 729 l 1
 166 729 l 2
 211 729 219 737 225 788 c 0
 226 798 227 805 227 812 c 0
 227 841 213 846 165 846 c 0
 123 846 116 842 113 816 c 1
 60 818 l 1
 68 876 82 885 167 885 c 0
 252 885 278 876 278 826 c 0xf8
 278 816 276 804 274 791 c 0
 267 737 259 725 215 714 c 1
 277 701 287 687 287 624 c 0
 287 533 272 519 174 519 c 0
 82 519 67 532 60 616 c 1xf4
EndSplineSet
EndChar

StartChar: acute
Encoding: 180 180 115
Width: 276
VWidth: 1024
Flags: W
HStem: 695 228
VStem: 62 154
LayerCount: 2
Fore
SplineSet
109 923 m 1
 216 872 l 1
 133 695 l 1
 62 726 l 1
 109 923 l 1
EndSplineSet
EndChar

StartChar: mu
Encoding: 181 181 116
Width: 557
VWidth: 1024
Flags: W
HStem: -15 103<189.963 356.971> 689 12G<69.2373 178 379 487>
VStem: 69 109<-57.0332 14 98.4201 685> 80 98<-152 14 98.4201 532.033> 379 108<-15 27 110 693>
LayerCount: 2
Fore
SplineSet
379 210 m 2xe8
 379 693 l 1
 487 709 l 1
 487 -15 l 1
 385 -38 l 1
 385 27 l 1
 361 -5 343 -15 268 -15 c 0
 206 -15 186 1 172 14 c 1
 172 -152 l 1
 80 -226 l 1xd8
 69 701 l 1
 178 685 l 1
 178 198 l 2
 178 95 201 88 270 88 c 0
 343 88 379 106 379 210 c 2xe8
EndSplineSet
EndChar

StartChar: paragraph
Encoding: 182 182 117
Width: 657
VWidth: 1024
Flags: W
HStem: 854 73<418 474.923 557 584>
VStem: 54 364<478.243 754.899> 327 98<-13 324.812> 336 89<-12.8122 325> 476 81<-18 855>
LayerCount: 2
Fore
SplineSet
77 488 m 0x98
 62 524 54 565 54 608 c 0
 54 758 141 926 265 926 c 2
 401 927 l 1
 417 927 l 1
 584 929 l 1
 607 854 l 1
 607 854 595 855 581 855 c 0
 574 855 565 855 557 854 c 5
 559 659 563 -22 563 -22 c 5
 474 -18 l 1
 476 866 l 1
 453 863 431 860 418 859 c 1xc8
 425 -16 l 1x98
 327 -13 l 1xa8
 336 325 l 1
 303 327 l 1
 166 361 107 418 77 488 c 0x98
EndSplineSet
EndChar

StartChar: periodcentered
Encoding: 183 183 118
Width: 256
VWidth: 1024
Flags: W
HStem: 289 113<78 183.936>
VStem: 78 110<289.063 402>
LayerCount: 2
Fore
SplineSet
69 289 m 1
 78 402 l 1
 188 408 l 1
 184 280 l 5
 69 289 l 1
EndSplineSet
EndChar

StartChar: cedilla
Encoding: 184 184 119
Width: 610
VWidth: 1024
Flags: W
HStem: -248 48<251.256 328.466> -104 55<299.153 347.684>
VStem: 349 57<-193.304 -105.768>
LayerCount: 2
Fore
SplineSet
274 0 m 0
 274 -1 278 0 284 0 c 0
 296 0 314 0 314 0 c 1
 299 -51 l 1
 304 -49 311 -49 321 -49 c 0
 399 -49 406 -49 406 -136 c 0
 406 -221 397 -248 311 -248 c 0
 250 -248 238 -240 221 -190 c 1
 266 -178 l 1
 272 -195 276 -200 282 -200 c 0
 288 -200 296 -195 308 -195 c 0
 343 -195 349 -189 349 -150 c 0
 349 -110 344 -104 311 -104 c 0
 288 -104 283 -106 279 -118 c 2
 278 -120 l 1
 243 -100 l 1
 243 -100 273 0 274 0 c 0
EndSplineSet
EndChar

StartChar: Superscriptone
Encoding: 185 185 120
Width: 249
VWidth: 1024
Flags: W
HStem: 521 320
VStem: 127 52<526 787>
LayerCount: 2
Fore
SplineSet
179 521 m 1
 127 526 l 1
 127 528 l 1
 127 787 l 1
 55 779 l 1
 57 811 l 1
 138 841 l 1
 179 840 l 1
 179 523 l 1
 179 522 l 1
 179 521 l 1
EndSplineSet
EndChar

StartChar: ordmasculine
Encoding: 186 186 121
Width: 388
VWidth: 1024
Flags: W
HStem: 526 48<61 241.592> 539 35<141.408 322> 591 57<137.605 252.862> 845 60<144.582 244.806>
VStem: 72 53<656.114 821.753> 261 58<655.404 831.614>
LayerCount: 2
Fore
SplineSet
61 574 m 1xbc
 322 574 l 1
 322 539 l 1x7c
 61 526 l 1
 61 574 l 1xbc
193 648 m 0
 251 648 259 666 261 740 c 2
 261 746 l 2
 261 809 235 845 205 845 c 0
 202 845 199 845 196 844 c 0
 164 837 125 819 125 758 c 0
 125 752 125 746 126 740 c 0
 134 664 135 648 193 648 c 0
72 748 m 1
 72 762 l 2
 72 822 97 905 196 905 c 0
 318 905 313 818 319 748 c 0
 320 741 319 734 319 727 c 0
 319 662 293 591 196 591 c 0
 73 591 76 688 72 748 c 1
EndSplineSet
EndChar

StartChar: guillemotright
Encoding: 187 187 122
Width: 547
VWidth: 1024
Flags: W
LayerCount: 2
Fore
SplineSet
245 630 m 1
 347 614 l 1
 492 332 l 1
 341 67 l 1
 251 51 l 1
 391 348 l 1
 245 630 l 1
57 630 m 1
 175 626 l 1
 298 348 l 1
 175 63 l 1
 57 67 l 1
 225 344 l 1
 57 630 l 1
EndSplineSet
EndChar

StartChar: onequarter
Encoding: 188 188 123
Width: 737
VWidth: 1024
Flags: W
HStem: 150 47<472 573 631 687> 470 2<191 200>
VStem: 161 59<476 800> 573 58<43 145 194 338>
LayerCount: 2
Fore
SplineSet
197 4 m 1
 459 943 l 1
 532 914 l 1
 253 -22 l 1
 197 4 l 1
200 472 m 5
 161 476 l 5
 161 478 l 5
 161 800 l 5
 81 791 l 5
 83 830 l 5
 174 868 l 5
 220 867 l 5
 220 472 l 5
 220 470 l 5
 191 470 l 5
 191 472 l 5
 200 472 l 5
586 437 m 1
 631 433 l 1
 631 422 l 1
 633 421 l 1
 631 419 l 1
 631 193 l 1
 687 191 l 1
 687 144 l 1
 631 145 l 1
 631 43 l 1
 574 33 l 1
 573 147 l 1
 457 150 l 1
 412 150 l 1
 412 191 l 1
 585 432 l 1
 586 437 l 1
472 197 m 1
 573 194 l 1
 573 329 l 1
 574 338 l 1
 472 197 l 1
EndSplineSet
EndChar

StartChar: onehalf
Encoding: 189 189 124
Width: 729
VWidth: 1024
Flags: W
HStem: 0 51<481 652> 382 43<479.942 591.401> 447 2<171 182 203 203.046> 915 20G<412.42 467.655>
VStem: 138 65<454 800> 407 74<51 120.297 321.047 378.172> 600 66<228.777 377.28>
LayerCount: 2
Fore
SplineSet
182 449 m 1
 138 454 l 1
 138 456 l 1
 138 800 l 1
 49 790 l 1
 52 831 l 1
 153 872 l 1
 203 871 l 1
 203 449 l 2
 204 449 204 450 203 449 c 1
 204 448 204 447 203 447 c 2
 171 447 l 1
 171 449 l 1
 182 449 l 1
156 -4 m 1
 418 935 l 1
 490 906 l 1
 212 -30 l 1
 156 -4 l 1
407 0 m 1
 407 25 l 2
 407 142 410 121 493 173 c 0
 586 231 600 247 600 295 c 0
 600 370 592 382 539 382 c 0
 484 382 476 374 476 327 c 0
 476 301 475 293 473 293 c 0
 472 293 471 294 470 295 c 2
 410 321 l 2
 409 322 409 323 409 327 c 0
 409 412 426 425 537 425 c 0
 649 425 666 407 666 290 c 0
 665 228 653 211 575 162 c 0
 494 111 483 119 481 51 c 1
 652 48 l 1
 674 0 l 1
 481 0 l 1
 407 0 l 1
EndSplineSet
EndChar

StartChar: threequarters
Encoding: 190 190 125
Width: 731
VWidth: 1024
Flags: W
HStem: 2 21G<196.923 245.962> 145 48<445 556 621 682> 523 42<111.581 215.646> 692 38<127 210.156> 845 38<106.311 215.706>
VStem: 52 54<568.562 616 817 842.335> 218 49<735.182 842.466> 221 57<567.084 688.857> 556 65<35 139 189 336>
LayerCount: 2
Fore
SplineSet
52 618 m 1xfd80
 106 616 l 1
 109 572 117 565 165 565 c 0
 214 565 221 573 221 628 c 0xfd80
 221 684 212 692 154 692 c 2
 127 692 l 1
 127 713 l 1
 126 730 l 1
 157 730 l 2
 202 730 209 738 216 787 c 0
 217 796 218 803 218 810 c 0
 218 840 204 845 156 845 c 0
 114 845 107 841 104 815 c 1
 52 817 l 1
 59 874 73 883 158 883 c 0
 242 883 267 875 267 826 c 0xfe80
 267 816 266 804 264 791 c 0
 257 738 249 726 206 715 c 1
 267 702 278 688 278 626 c 0
 278 537 262 523 165 523 c 0
 73 523 59 536 52 618 c 1xfd80
184 28 m 1
 446 967 l 1
 519 938 l 1
 240 2 l 1
 184 28 l 1
570 437 m 1
 621 433 l 1
 621 422 l 1
 623 421 l 1
 621 418 l 1
 621 187 l 1
 682 186 l 1
 682 138 l 1
 621 139 l 1
 621 35 l 1
 557 25 l 1
 557 141 l 1
 428 145 l 1
 379 144 l 1
 379 186 l 1
 570 432 l 1
 570 437 l 1
445 193 m 1
 556 189 l 1
 556 327 l 1
 557 336 l 1
 445 193 l 1
EndSplineSet
EndChar

StartChar: questiondown
Encoding: 191 191 126
Width: 610
VWidth: 1024
Flags: W
HStem: -245 81<227.873 410.186> 588 109<258.155 358> 687 20G<240.24 366>
VStem: 55 114<-107.263 108.206> 247 111<588 697.084> 255 105<265.104 489> 456 105<-110.57 6.62767>
LayerCount: 2
Fore
SplineSet
366 697 m 1xda
 358 588 l 1xda
 247 578 l 1
 239 707 l 1xba
 366 697 l 1xda
561 5 m 1
 543 -207 508 -245 307 -245 c 0
 304 -245 302 -245 299 -245 c 0
 152 -244 55 -211 55 1 c 2
 55 10 l 1
 55 49 l 2
 55 140 65 141 178 222 c 0
 227 257 254 284 255 344 c 0
 255 350 255 358 255 365 c 0
 255 396 254 436 254 489 c 1
 359 489 l 1
 359 467 l 2
 359 399 360 351 360 315 c 0
 360 193 349 217 255 151 c 0x96
 172 93 169 94 169 25 c 2
 169 10 l 2
 169 -136 236 -148 299 -159 c 0
 316 -162 333 -164 346 -164 c 0
 425 -164 444 -110 456 24 c 1
 561 5 l 1
EndSplineSet
EndChar

StartChar: Agrave
Encoding: 192 192 127
Width: 786
VWidth: 1024
Flags: W
HStem: 184 95<252 560> 193 87<252 560>
LayerCount: 2
Fore
SplineSet
342 1007 m 1x00
 242 1157 l 1
 375 1130 l 1
 442 1007 l 1
 342 1007 l 1x00
46 6 m 1
 330 928 l 1
 461 927 l 1
 741 5 l 1
 649 -26 l 1
 577 193 l 1x40
 214 184 l 1x80
 154 -22 l 1
 46 6 l 1
252 279 m 1x80
 560 280 l 1x40
 396 779 l 1
 252 279 l 1x80
EndSplineSet
EndChar

StartChar: Aacute
Encoding: 193 193 128
Width: 786
VWidth: 1024
Flags: W
HStem: 184 95<252 560> 193 87<252 560>
LayerCount: 2
Fore
SplineSet
330 991 m 1x00
 406 1135 l 1
 541 1157 l 1
 442 1007 l 1
 330 991 l 1x00
46 6 m 1
 330 928 l 1
 461 927 l 1
 741 5 l 1
 649 -26 l 1
 577 193 l 1x40
 214 184 l 1x80
 154 -22 l 1
 46 6 l 1
252 279 m 1x80
 560 280 l 1x40
 396 779 l 1
 252 279 l 1x80
EndSplineSet
EndChar

StartChar: Acircumflex
Encoding: 194 194 129
Width: 786
VWidth: 1024
Flags: W
HStem: 184 95<252 560> 193 87<252 560>
LayerCount: 2
Fore
SplineSet
392 1071 m 1x00
 323 989 l 1
 219 1007 l 1
 352 1139 l 1
 447 1157 l 1
 564 1007 l 1
 464 1007 l 1
 392 1071 l 1x00
46 6 m 1
 330 928 l 1
 461 927 l 1
 741 5 l 1
 649 -26 l 1
 577 193 l 1x40
 214 184 l 1x80
 154 -22 l 1
 46 6 l 1
252 279 m 1x80
 560 280 l 1x40
 396 779 l 1
 252 279 l 1x80
EndSplineSet
EndChar

StartChar: Atilde
Encoding: 195 195 130
Width: 786
VWidth: 1024
Flags: W
HStem: 184 95<252 560> 193 87<252 560> 990 88<407.321 488.281> 1081 76<311.155 379.624>
VStem: 228 81<1007 1080.67> 493 82<1082.24 1138>
LayerCount: 2
Fore
SplineSet
309 1007 m 1x3c
 228 1007 l 1
 228 1145 241 1157 323 1157 c 0
 433 1157 378 1078 453 1078 c 0
 472 1078 493 1081 493 1144 c 1
 575 1138 l 1
 575 1000 563 990 480 990 c 0
 370 990 405 1081 330 1081 c 0
 312 1081 309 1070 309 1007 c 1x3c
46 6 m 1
 330 928 l 1
 461 927 l 1
 741 5 l 1
 649 -26 l 1
 577 193 l 1x7c
 214 184 l 1xbc
 154 -22 l 1
 46 6 l 1
252 279 m 1xbc
 560 280 l 1x7c
 396 779 l 1
 252 279 l 1xbc
EndSplineSet
EndChar

StartChar: Adieresis
Encoding: 196 196 131
Width: 786
VWidth: 1024
Flags: W
HStem: 184 95<252 560> 193 87<252 560> 1007 117<274 371>
VStem: 252 119<1007 1054.84> 274 97<1076.16 1124> 424 107<1015 1126>
LayerCount: 2
Fore
SplineSet
424 1015 m 1x24
 424 1134 l 1
 531 1126 l 1
 531 1007 l 1
 424 1015 l 1x24
252 1007 m 1x34
 274 1124 l 1
 371 1126 l 1x2c
 371 1007 l 1
 252 1007 l 1x34
46 6 m 1
 330 928 l 1
 461 927 l 1
 741 5 l 1
 649 -26 l 1
 577 193 l 1x64
 214 184 l 1xa4
 154 -22 l 1
 46 6 l 1
252 279 m 1xb4
 560 280 l 1x74
 396 779 l 1
 252 279 l 1xb4
EndSplineSet
EndChar

StartChar: Aring
Encoding: 197 197 132
Width: 786
VWidth: 1024
Flags: W
HStem: 184 95<252 560> 193 87<252 560> 1014 43<358.211 424.427> 1130 44<359.675 425.752>
VStem: 310 48<1057.58 1128.72> 426 49<1057.2 1129.73>
LayerCount: 2
Fore
SplineSet
252 279 m 1xbc
 560 280 l 1x7c
 396 779 l 1
 252 279 l 1xbc
46 6 m 1
 330 928 l 1
 461 927 l 1
 741 5 l 1
 649 -26 l 1
 577 193 l 1x7c
 214 184 l 1xbc
 154 -22 l 1
 46 6 l 1
310 1086 m 0
 310 1165 318 1174 398 1174 c 0
 473 1174 475 1166 475 1097 c 2
 475 1059 l 2
 475 1019 473 1014 441 1014 c 2
 353 1014 l 2
 312 1014 310 1023 310 1086 c 0
390 1057 m 0
 421 1057 425 1059 425 1094 c 0
 425 1105 426 1112 426 1118 c 0
 426 1130 422 1130 402 1130 c 0
 371 1130 358 1128 358 1094 c 0
 358 1059 358 1057 390 1057 c 0
EndSplineSet
EndChar

StartChar: AE
Encoding: 198 198 133
Width: 1148
VWidth: 1024
Flags: W
HStem: -26 113<710 1087> 193 87<419.887 577> 350 99<710 1057> 823 96<710 1077>
VStem: 577 133<280 357 441 823> 591 119<-26 -25 79 193>
LayerCount: 2
Fore
SplineSet
315 295 m 1xf8
 577 280 l 1
 585 823 l 1
 315 295 l 1xf8
45 8 m 1
 489 918 l 1
 590 919 l 1
 709 919 l 1
 1077 919 l 1
 1077 816 l 1
 915 816 856 822 710 823 c 1
 710 441 l 1
 1052 449 l 1
 1057 449 l 1
 1057 399 l 1
 1057 350 l 1
 1052 350 l 1
 710 357 l 1xf8
 710 79 l 1
 872 79 927 87 1087 87 c 1
 1087 88 1087 88 1089 87 c 0
 1092 88 1092 88 1092 87 c 2
 1092 31 l 1
 1092 -26 l 1
 926 -26 874 -25 708 -25 c 1
 708 -26 l 1
 591 -26 l 1
 591 193 l 1xf4
 511 190 267 178 267 178 c 1
 151 -22 l 1
 45 8 l 1
EndSplineSet
EndChar

StartChar: Ccedilla
Encoding: 199 199 134
Width: 688
VWidth: 1024
Flags: W
HStem: -248 53<359.514 435.205> -104 55<387.5 435.626> -15 5<288.014 358 398 443.814> -9 102<338.842 615.71> 840 101<284.024 616.823>
VStem: 59 127<229.323 717.182> 437 61<-193.974 -104.889>
LayerCount: 2
Fore
SplineSet
358 -14 m 1
 307 -12 288 -11 288 -10 c 2
 305 -10 l 2
 348 -10 465 -12 465 -14 c 0
 465 -15 447 -15 399 -15 c 2
 398 -15 l 1
 387 -51 l 1
 392 -50 399 -49 409 -49 c 0
 486 -49 498 -63 498 -150 c 0
 498 -235 485 -248 399 -248 c 0
 338 -248 326 -240 309 -190 c 1
 354 -155 l 1
 366 -190 372 -195 396 -195 c 0
 431 -195 437 -189 437 -150 c 0
 437 -110 432 -104 399 -104 c 0
 376 -104 370 -106 367 -118 c 2
 366 -120 l 1
 331 -100 l 1
 358 -14 l 1
613 97 m 2
 633 -1 l 2
 632 -8 603 -9 419 -9 c 0
 117 -9 59 86 59 411 c 2
 59 465 l 1
 65 833 113 941 403 941 c 2
 419 941 l 2
 605 938 634 938 634 937 c 2
 612 840 l 2
 612 839 606 838 578 838 c 0
 551 838 503 839 419 840 c 2
 409 840 l 2
 222 840 191 754 186 465 c 1
 186 414 l 2
 186 166 257 143 419 93 c 1
 586 93 612 94 613 97 c 2
EndSplineSet
EndChar

StartChar: Egrave
Encoding: 200 200 135
Width: 632
VWidth: 1024
Flags: W
HStem: 4 105<191 573> 853 96<191 558>
VStem: 72 119<109 380 471 853>
LayerCount: 2
Fore
SplineSet
189 4 m 1
 187 4 l 1
 72 4 l 1
 72 949 l 1
 558 949 l 1
 558 846 l 1
 396 846 337 852 191 853 c 1
 191 471 l 1
 538 496 l 1
 538 466 535 427 535 397 c 1
 191 380 l 1
 191 109 l 1
 353 109 413 117 573 117 c 1
 573 4 l 1
 189 4 l 1
287 1007 m 1
 188 1157 l 1
 331 1157 l 1
 387 1007 l 1
 287 1007 l 1
EndSplineSet
EndChar

StartChar: Eacute
Encoding: 201 201 136
Width: 633
VWidth: 1024
Flags: W
HStem: 0 103<191 568> 369 97<191 538> 833 94<191 558>
VStem: 72 119<103 376 458 833>
LayerCount: 2
Fore
SplineSet
299 1007 m 1
 333 1155 l 1
 498 1157 l 1
 393 1011 l 1
 299 1007 l 1
72 0 m 1
 72 927 l 1
 190 927 l 1
 191 927 l 1
 558 927 l 1
 558 826 l 1
 396 826 337 832 191 833 c 1
 191 458 l 1
 534 466 l 1
 538 466 l 1
 538 417 l 1
 538 369 l 1
 534 369 l 1
 191 376 l 1
 191 103 l 1
 350 103 409 111 568 111 c 1
 568 112 568 112 570 111 c 0
 573 112 573 112 573 111 c 2
 573 56 l 1
 573 0 l 1
 189 0 l 1
 72 0 l 1
EndSplineSet
EndChar

StartChar: Ecircumflex
Encoding: 202 202 137
Width: 633
VWidth: 1024
Flags: W
HStem: 0 103<191 568> 369 97<191 538> 833 94<191 558>
VStem: 72 119<103 376 458 833>
LayerCount: 2
Fore
SplineSet
349 1071 m 1
 267 1001 l 1
 177 1027 l 1
 302 1147 l 1
 376 1149 l 1
 521 1007 l 1
 421 1007 l 1
 349 1071 l 1
72 0 m 1
 72 927 l 1
 190 927 l 1
 191 927 l 1
 558 927 l 1
 558 826 l 1
 396 826 337 832 191 833 c 1
 191 458 l 1
 534 466 l 1
 538 466 l 1
 538 417 l 1
 538 369 l 1
 534 369 l 1
 191 376 l 1
 191 103 l 1
 353 103 408 111 568 111 c 1
 568 112 568 112 570 111 c 0
 573 112 573 112 573 111 c 2
 573 56 l 1
 573 0 l 1
 189 0 l 1
 72 0 l 1
EndSplineSet
EndChar

StartChar: Edieresis
Encoding: 203 203 138
Width: 633
VWidth: 1024
Flags: W
HStem: 0 103<191 568> 369 97<191 538> 833 94<191 558> 1007 101<221 274.97> 1021 105<378 449.317>
VStem: 72 119<103 376 458 833> 209 120<1007 1082.71> 221 108<1032.29 1108> 378 111<1021 1126>
LayerCount: 2
Fore
SplineSet
378 1021 m 1xec80
 370 1126 l 1
 489 1126 l 1xec80
 489 1007 l 1xf480
 378 1021 l 1xec80
209 1007 m 1xf680
 221 1108 l 1xf580
 329 1126 l 1xed80
 329 1007 l 1
 209 1007 l 1xf680
72 0 m 1
 72 927 l 1
 190 927 l 1
 191 927 l 1
 558 927 l 1
 558 826 l 1
 396 826 337 832 191 833 c 1
 191 458 l 1
 534 466 l 1
 538 466 l 1
 538 417 l 1
 538 369 l 1
 534 369 l 1
 191 376 l 1
 191 103 l 1
 353 103 408 111 568 111 c 1
 568 112 568 112 570 111 c 0
 573 112 573 112 573 111 c 2
 573 56 l 1
 573 0 l 1
 189 0 l 1
 72 0 l 1
EndSplineSet
EndChar

StartChar: Igrave
Encoding: 204 204 139
Width: 289
VWidth: 1024
Flags: W
HStem: 1 21G<160 219> 910 20G<89 207>
VStem: 89 118<235.882 924> 101 118<4 689.869>
LayerCount: 2
Fore
SplineSet
110 1007 m 1xc0
 36 1137 l 1
 153 1157 l 1
 210 1007 l 1
 110 1007 l 1xc0
160 3 m 1
 101 4 l 1xd0
 89 919 l 1
 89 924 l 1
 89 930 l 1
 207 924 l 1xe0
 219 6 l 1
 219 1 l 1xd0
 160 1 l 1
 160 3 l 1
EndSplineSet
EndChar

StartChar: Iacute
Encoding: 205 205 140
Width: 284
VWidth: 1024
Flags: W
HStem: 1 21G<137 196> 910 20G<66 184>
VStem: 66 118<235.882 924> 78 118<4 689.869>
LayerCount: 2
Fore
SplineSet
63 1007 m 1xc0
 119 1157 l 1
 246 1119 l 1
 163 1007 l 1
 63 1007 l 1xc0
137 3 m 1
 78 4 l 1xd0
 66 919 l 1
 66 924 l 1
 66 930 l 1
 184 924 l 1xe0
 196 6 l 1
 196 1 l 1xd0
 137 1 l 1
 137 3 l 1
EndSplineSet
EndChar

StartChar: Icircumflex
Encoding: 206 206 141
Width: 412
VWidth: 1024
Flags: W
HStem: 1 21G<203 262> 910 20G<132 250>
VStem: 132 118<235.882 924> 144 118<4 689.869>
LayerCount: 2
Fore
SplineSet
203 1071 m 1xc0
 130 1007 l 1
 36 993 l 1
 155 1143 l 1
 236 1159 l 1
 375 1007 l 1
 271 1009 l 1
 203 1071 l 1xc0
203 3 m 1
 144 4 l 1xd0
 132 919 l 1
 132 924 l 1
 132 930 l 1
 250 924 l 1xe0
 262 6 l 1
 262 1 l 1xd0
 203 1 l 1
 203 3 l 1
EndSplineSet
EndChar

StartChar: Idieresis
Encoding: 207 207 142
Width: 354
VWidth: 1024
Flags: W
HStem: 1 21G<177 236> 910 20G<106 224> 1007 119<53 156 207.16 316> 1007 111<53 143.061 197 300.799>
VStem: 37 119<1007 1069.4> 53 103<1055.6 1118> 106 118<235.882 924> 118 118<4 689.869> 197 119<1007 1116>
LayerCount: 2
Fore
SplineSet
197 1007 m 1xd080
 195 1116 l 1
 316 1126 l 1
 316 1007 l 1xe080
 197 1007 l 1xd080
37 1007 m 1xd8
 53 1118 l 1xd4
 156 1126 l 1xe4
 156 1007 l 1xe8
 37 1007 l 1xd8
177 3 m 1
 118 4 l 1xc1
 106 919 l 1
 106 924 l 1
 106 930 l 1
 224 924 l 1xc2
 236 6 l 1
 236 1 l 1xc1
 177 1 l 1
 177 3 l 1
EndSplineSet
EndChar

StartChar: Eth
Encoding: 208 208 143
Width: 835
VWidth: 1024
Flags: W
HStem: 0 96<256 575.847> 384 104<50 141> 384 93<251 384> 830 97<244 579.826>
VStem: 139 117<97 384 483 807.463> 642 127<176.274 765.753>
LayerCount: 2
Fore
SplineSet
198 0 m 1xdc
 139 0 l 1
 139 5 l 1
 141 384 l 1
 50 384 l 1
 50 488 l 1
 142 483 l 1
 144 927 l 1
 193 927 l 1
 242 927 l 1
 374 927 l 2
 717 927 769 908 769 589 c 0
 769 551 768 510 767 463 c 0
 758 10 750 0 404 0 c 2
 258 0 l 1
 254 0 l 1
 198 0 l 1xdc
256 97 m 1
 314 97 336 96 395 96 c 0
 628 96 633 104 640 463 c 0
 641 504 642 540 642 573 c 0
 642 816 605 830 379 830 c 2
 244 830 l 1
 244 830 247 662 250 477 c 1
 384 470 l 1
 384 384 l 1
 251 384 l 1xbc
 253 275 255 170 256 97 c 1
EndSplineSet
EndChar

StartChar: Ntilde
Encoding: 209 209 144
Width: 739
VWidth: 1024
Flags: W
HStem: 0 21G<72 196> 914 21G<72.9785 123 553.149 662> 992 72<388.222 459.071> 1081 86<240.814 340.578>
VStem: 72 124<0 410.974> 73 108<276.026 682> 160 74<1021 1072.89> 467 57<1065.4 1134> 559 107<130 925>
LayerCount: 2
Fore
SplineSet
234 1021 m 1xf380
 160 1017 l 1
 160 1155 207 1167 290 1167 c 0
 400 1167 359 1064 434 1064 c 0
 452 1064 467 1087 467 1150 c 1
 524 1134 l 1
 524 996 509 992 427 992 c 0
 317 992 371 1081 297 1081 c 2
 290 1081 l 2
 268 1081 234 1078 234 1021 c 1xf380
553 934 m 1
 662 925 l 1
 666 -1 l 1
 629 0 l 1
 499 -7 l 1
 181 682 l 5xf580
 196 5 l 1
 196 0 l 1
 134 0 l 1
 72 0 l 1
 72 5 l 1xf980
 73 935 l 1xf580
 123 922 l 1
 204 914 l 1
 559 130 l 1
 553 934 l 1
EndSplineSet
EndChar

StartChar: Ograve
Encoding: 210 210 145
Width: 777
VWidth: 1024
Flags: W
HStem: -15 102<258.565 520.268> 840 101<262.409 495.139> 1007 123<383.7 444>
VStem: 59 127<172.229 741.246> 585 127<151.647 687.805>
LayerCount: 2
Fore
SplineSet
362 1007 m 1
 263 1157 l 1
 444 1130 l 1
 463 1007 l 1
 362 1007 l 1
383 87 m 2
 398 87 l 2
 544 87 585 127 585 334 c 0
 585 372 583 414 581 463 c 0
 566 773 531 840 383 840 c 0
 221 840 186 773 186 463 c 0
 186 141 213 90 383 87 c 2
59 463 m 0
 59 856 117 941 383 941 c 0
 631 941 689 856 708 463 c 0
 710 410 712 363 712 321 c 0
 712 40 650 -15 413 -15 c 2
 383 -15 l 1
 103 -9 59 56 59 463 c 0
EndSplineSet
EndChar

StartChar: Oacute
Encoding: 211 211 146
Width: 777
VWidth: 1024
Flags: W
HStem: -15 102<258.565 520.268> 840 101<262.409 495.139>
VStem: 59 127<172.229 741.246> 585 127<151.647 687.805>
LayerCount: 2
Fore
SplineSet
303 1007 m 1
 359 1157 l 1
 490 1133 l 1
 403 1007 l 1
 303 1007 l 1
383 87 m 2
 398 87 l 2
 544 87 585 127 585 334 c 0
 585 372 583 414 581 463 c 0
 566 773 531 840 383 840 c 0
 221 840 186 773 186 463 c 0
 186 141 213 90 383 87 c 2
59 463 m 0
 59 856 117 941 383 941 c 0
 631 941 689 856 708 463 c 0
 710 410 712 363 712 321 c 0
 712 40 650 -15 413 -15 c 2
 383 -15 l 1
 103 -9 59 56 59 463 c 0
EndSplineSet
EndChar

StartChar: Ocircumflex
Encoding: 212 212 147
Width: 777
VWidth: 1024
Flags: W
HStem: -15 102<258.565 520.268> 840 101<262.409 495.139>
VStem: 59 127<172.229 741.246> 585 127<151.647 687.805>
LayerCount: 2
Fore
SplineSet
361 1071 m 1
 306 1007 l 1
 206 1007 l 1
 323 1157 l 1
 434 1157 l 1
 551 1007 l 1
 451 1007 l 1
 361 1071 l 1
383 87 m 2
 398 87 l 2
 544 87 585 127 585 334 c 0
 585 372 583 414 581 463 c 0
 566 773 531 840 383 840 c 0
 221 840 186 773 186 463 c 0
 186 141 213 90 383 87 c 2
59 463 m 0
 59 856 117 941 383 941 c 0
 631 941 689 856 708 463 c 0
 710 410 712 363 712 321 c 0
 712 40 650 -15 413 -15 c 2
 383 -15 l 1
 103 -9 59 56 59 463 c 0
EndSplineSet
EndChar

StartChar: Otilde
Encoding: 213 213 148
Width: 777
VWidth: 1024
Flags: W
HStem: -15 102<258.565 520.268> 840 101<262.409 495.139> 992 86<365.881 437.394> 1081 80<232.5 339.63>
VStem: 59 127<172.229 741.246> 193 81<1007 1080.8> 440 81<1081.48 1152> 585 127<151.647 687.805>
LayerCount: 2
Fore
SplineSet
274 1007 m 1
 193 1007 l 1
 193 1070 l 2
 193 1150 199 1161 266 1161 c 0
 376 1161 344 1078 418 1078 c 0
 437 1078 440 1089 440 1152 c 1
 521 1152 l 1
 521 1014 508 992 425 992 c 0
 315 992 370 1081 295 1081 c 0
 277 1081 274 1070 274 1007 c 1
383 87 m 2
 398 87 l 2
 544 87 585 127 585 334 c 0
 585 372 583 414 581 463 c 0
 566 773 531 840 383 840 c 0
 221 840 186 773 186 463 c 0
 186 141 213 90 383 87 c 2
59 463 m 0
 59 856 117 941 383 941 c 0
 631 941 689 856 708 463 c 0
 710 410 712 363 712 321 c 0
 712 40 650 -15 413 -15 c 2
 383 -15 l 1
 103 -9 59 56 59 463 c 0
EndSplineSet
EndChar

StartChar: Odieresis
Encoding: 214 214 149
Width: 777
VWidth: 1024
Flags: W
HStem: -15 102<258.565 520.268> 840 101<262.409 495.139> 1007 119<257 366 417 526>
VStem: 59 127<172.229 741.246> 247 119<1007 1117.64> 257 109<1019.36 1126> 407 119<1022.56 1126> 417 109<1011 1114.44> 585 127<151.647 687.805>
LayerCount: 2
Fore
SplineSet
417 1011 m 1xf180
 407 1126 l 1
 526 1126 l 1xf280
 526 1007 l 1
 417 1011 l 1xf180
247 1007 m 1xf880
 257 1130 l 1
 366 1126 l 1xf480
 366 1007 l 1
 247 1007 l 1xf880
383 87 m 2
 398 87 l 2
 544 87 585 127 585 334 c 0
 585 372 583 414 581 463 c 0
 566 773 531 840 383 840 c 0
 221 840 186 773 186 463 c 0
 186 141 213 90 383 87 c 2
59 463 m 0
 59 856 117 941 383 941 c 0
 631 941 689 856 708 463 c 0
 710 410 712 363 712 321 c 0
 712 40 650 -15 413 -15 c 2
 383 -15 l 1
 103 -9 59 56 59 463 c 0
EndSplineSet
EndChar

StartChar: multiply
Encoding: 215 215 150
Width: 615
VWidth: 1024
Flags: W
HStem: 681 20G<422.162 488.353>
LayerCount: 2
Fore
SplineSet
436 701 m 1
 525 667 l 1
 370 425 l 1
 568 137 l 1
 453 93 l 1
 306 324 l 1
 306 324 172 114 171 113 c 2
 43 133 l 1
 242 421 l 1
 73 677 l 1
 197 677 l 1
 308 516 l 1
 436 701 l 1
EndSplineSet
EndChar

StartChar: Oslash
Encoding: 216 216 151
Width: 833
VWidth: 1024
Flags: W
HStem: -15 102<264.629 561.097> 840 101<273.447 553.515>
VStem: 60 127<206.517 729.382> 640 127<180.503 716.119>
LayerCount: 2
Fore
SplineSet
414 87 m 0
 609 87 640 138 640 463 c 0
 640 579 634 661 618 718 c 1
 233 144 l 1
 266 98 322 87 414 87 c 0
60 463 m 0
 60 856 123 941 414 941 c 0
 530 941 610 927 664 886 c 1
 701 941 l 1
 767 941 l 1
 703 845 l 1
 752 774 767 656 767 463 c 0
 767 50 719 -15 414 -15 c 0
 293 -15 212 -5 158 33 c 1
 126 -15 l 1
 60 -15 l 1
 119 73 l 1
 72 142 60 261 60 463 c 0
207 204 m 1
 591 777 l 1
 557 825 502 840 414 840 c 0
 227 840 187 773 187 463 c 0
 187 343 191 260 207 204 c 1
EndSplineSet
EndChar

StartChar: Ugrave
Encoding: 217 217 152
Width: 706
VWidth: 1024
Flags: W
HStem: -15 116<221.198 469.607> 909 20G<67.9651 184 502 635.93>
VStem: 67 118<140.86 908> 510 124<150.375 921>
LayerCount: 2
Fore
SplineSet
279 992 m 1
 180 1142 l 1
 323 1142 l 1
 379 992 l 1
 279 992 l 1
184 910 m 2
 185 908 184 908 184 908 c 1
 185 380 l 2
 185 115 193 101 351 101 c 0
 490 101 498 115 510 381 c 1
 502 921 l 1
 636 929 l 1
 634 359 l 1
 618 3 604 -15 351 -15 c 0
 81 -15 67 3 67 359 c 2
 68 932 l 1
 184 913 l 2
 185 913 184 910 184 910 c 2
EndSplineSet
EndChar

StartChar: Uacute
Encoding: 218 218 153
Width: 707
VWidth: 1024
Flags: W
HStem: -15 116<221.198 478.336>
VStem: 67 119<140.86 927> 511 124<140.86 927>
LayerCount: 2
Fore
SplineSet
301 992 m 1
 357 1142 l 1
 500 1142 l 1
 401 992 l 1
 301 992 l 1
67 922 m 1
 67 927 l 1
 126 927 l 1
 186 927 l 1
 186 924 l 1
 186 922 l 1
 185 380 l 2
 185 115 193 101 351 101 c 0
 503 101 511 115 511 381 c 2
 511 922 l 1
 511 927 l 1
 573 927 l 1
 635 927 l 1
 635 922 l 1
 635 359 l 2
 635 3 621 -15 351 -15 c 0
 81 -15 67 3 67 359 c 2
 67 922 l 1
EndSplineSet
EndChar

StartChar: Ucircumflex
Encoding: 219 219 154
Width: 706
VWidth: 1024
Flags: W
HStem: -15 116<221.198 469.607> 909 20G<67.9651 184 502 635.93>
VStem: 67 118<140.86 908> 510 124<150.375 921>
LayerCount: 2
Fore
SplineSet
329 1057 m 1
 257 992 l 1
 157 992 l 1
 274 1142 l 1
 384 1142 l 1
 502 992 l 1
 401 992 l 1
 329 1057 l 1
184 910 m 2
 185 908 184 908 184 908 c 1
 185 380 l 2
 185 115 193 101 351 101 c 0
 490 101 498 115 510 381 c 1
 502 921 l 1
 636 929 l 1
 634 359 l 1
 618 3 604 -15 351 -15 c 0
 81 -15 67 3 67 359 c 2
 68 932 l 1
 184 913 l 2
 185 913 184 910 184 910 c 2
EndSplineSet
EndChar

StartChar: Udieresis
Encoding: 220 220 155
Width: 706
VWidth: 1024
Flags: W
HStem: -15 116<221.198 469.607> 909 20G<67.9651 184 502 635.93> 992 120<190 309 350 469>
VStem: 67 118<140.86 908> 190 119<992 1112> 350 119<992 1112> 510 124<150.375 921>
LayerCount: 2
Fore
SplineSet
350 992 m 1
 350 1112 l 1
 469 1112 l 1
 469 992 l 1
 350 992 l 1
190 992 m 1
 190 1112 l 1
 309 1112 l 1
 309 992 l 1
 190 992 l 1
184 910 m 2
 185 908 184 908 184 908 c 1
 185 380 l 2
 185 115 193 101 351 101 c 0
 490 101 498 115 510 381 c 1
 502 921 l 1
 636 929 l 1
 634 359 l 1
 618 3 604 -15 351 -15 c 0
 81 -15 67 3 67 359 c 2
 68 932 l 1
 184 913 l 2
 185 913 184 910 184 910 c 2
EndSplineSet
EndChar

StartChar: Yacute
Encoding: 221 221 156
Width: 687
VWidth: 1024
Flags: W
VStem: 283 119<3 440>
LayerCount: 2
Fore
SplineSet
293 1007 m 1
 358 1137 l 1
 493 1157 l 1
 393 1007 l 1
 293 1007 l 1
523 951 m 1
 645 919 l 1
 402 439 l 1
 400 440 l 1
 402 -3 l 1
 283 3 l 1
 285 443 l 1
 283 442 l 1
 41 921 l 1
 159 944 l 1
 340 559 l 1
 523 951 l 1
EndSplineSet
EndChar

StartChar: Thorn
Encoding: 222 222 157
Width: 634
VWidth: 1024
Flags: W
HStem: 189 93<180 413.152> 645 97<180 445.729>
VStem: 61 119<604.061 645 742 927> 87 93<0 185 282 320.939> 456 112<327.918 649.818>
LayerCount: 2
Fore
SplineSet
120 0 m 1xd8
 87 -2 l 1
 87 3 l 1xd8
 61 922 l 1
 61 927 l 1
 120 927 l 1
 180 927 l 1
 180 924 l 1
 180 922 l 1
 180 742 l 1xe8
 315 742 l 1
 370 742 l 2
 558 742 568 732 568 489 c 0
 568 225 566 189 325 189 c 1
 180 185 l 1
 180 5 l 1
 180 3 l 1
 180 0 l 1
 120 0 l 1xd8
180 282 m 1
 319 282 l 2
 443 282 456 345 456 517 c 0
 456 634 451 653 406 653 c 0
 384 653 355 649 312 649 c 2
 180 645 l 1xe8
 180 282 l 1
EndSplineSet
EndChar

StartChar: germandbls
Encoding: 223 223 158
Width: 738
VWidth: 1024
Flags: W
HStem: 0 99<283 419.857> 479 112<265.592 360.356> 896 95<267.966 424.746>
VStem: 66 107<92.5073 786.854> 71 119<0 330.887> 499 103<683.066 817.141>
LayerCount: 2
Fore
SplineSet
592 790 m 0xf4
 599 776 602 762 602 748 c 0
 602 657 470 576 414 543 c 1
 417 544 424 545 435 545 c 0
 436 545 437 545 438 545 c 0
 505 545 678 515 678 341 c 0
 678 340 678 338 678 337 c 0
 675 83 385 0 285 0 c 0
 283 0 283 14 283 31 c 2
 283 62 l 2
 283 82 283 99 280 99 c 1
 570 99 570 333 571 333 c 1
 535 473 441 479 268 479 c 1
 258 511 244 582 244 591 c 1
 246 591 499 621 499 750 c 0
 499 752 499 753 499 755 c 0
 496 811 423 896 350 896 c 0
 344 896 336 895 330 894 c 0
 318 891 304 887 294 882 c 0
 255 864 241 852 219 830 c 1
 179 753 173 671 173 566 c 0xf4
 173 519 174 468 174 410 c 0
 174 283 180 141 190 0 c 1
 71 0 l 1xec
 70 140 66 279 66 418 c 0
 66 426 66 435 66 444 c 0
 66 473 66 504 66 537 c 0
 66 632 68 738 90 818 c 0
 106 877 218 991 344 991 c 0
 428 991 519 941 592 790 c 0xf4
EndSplineSet
EndChar

StartChar: agrave
Encoding: 224 224 159
Width: 621
VWidth: 1024
Flags: W
HStem: -20 97<158 399.295> 328 98<133 424.007> 618 98<193.288 402.135>
VStem: 63 109<80.5801 310.893 524.646 598.17> 435 102<101.114 317 400 581.8>
LayerCount: 2
Fore
SplineSet
435 317 m 1
 429 316 422 316 415 316 c 0
 385 316 341 321 276 327 c 0
 266 328 257 328 248 328 c 0
 183 328 172 296 172 166 c 2
 172 150 l 2
 172 96 175 77 230 77 c 0
 246 77 267 78 294 81 c 0
 388 91 419 87 431 141 c 1
 435 317 l 1
63 527 m 1
 80 674 106 716 218 716 c 0
 241 716 268 714 299 711 c 0
 489 693 518 698 535 482 c 1
 537 106 l 1
 545 70 547 61 547 60 c 2
 546 62 l 1
 572 -15 l 1
 447 -1 457 -31 446 43 c 1
 417 -4 359 -1 237 -15 c 0
 205 -18 180 -20 158 -20 c 0
 67 -20 63 15 63 128 c 2
 63 162 l 2
 63 373 81 426 185 426 c 0
 200 426 215 425 233 423 c 0
 385 410 429 407 437 400 c 1
 438 452 l 1
 426 610 409 606 299 616 c 0
 283 618 270 618 258 618 c 0
 196 618 182 592 170 499 c 1
 63 527 l 1
226 777 m 1
 145 911 l 1
 270 927 l 1
 326 777 l 1
 226 777 l 1
EndSplineSet
EndChar

StartChar: aacute
Encoding: 225 225 160
Width: 602
VWidth: 1024
Flags: W
HStem: -17 87<160.618 375.47> 325 97<176.675 432.967> 620 94<180.322 397.154>
VStem: 59 95<78.2087 304.156> 68 92<565.262 601.549> 435 99<116.251 307>
LayerCount: 2
Fore
SplineSet
434 307 m 1xf4
 434 307 344 318 278 323 c 0
 262 324 249 325 237 325 c 0
 174 325 163 299 155 162 c 0
 155 155 154 148 154 141 c 0
 154 85 174 70 216 70 c 0
 238 70 262 73 293 77 c 0
 368 87 425 109 435 163 c 1
 434 307 l 1xf4
68 568 m 1xec
 85 663 108 714 247 714 c 0
 262 714 278 713 295 712 c 0
 485 699 506 699 523 483 c 0
 532 372 534 242 534 143 c 0
 534 49 532 -18 532 -18 c 1
 467 -10 460 -11 451 -7 c 0
 443 -3 447 9 442 44 c 1
 413 -3 355 0 233 -14 c 0
 217 -16 201 -17 187 -17 c 0
 102 -17 59 18 59 163 c 0xf4
 59 403 91 418 229 422 c 1
 381 417 433 413 433 413 c 1
 421 571 441 615 295 617 c 0
 273 619 257 620 243 620 c 0
 190 620 176 602 160 540 c 1
 68 568 l 1xec
234 777 m 1
 290 927 l 1
 433 927 l 1
 334 777 l 1
 234 777 l 1
EndSplineSet
EndChar

StartChar: acircumflex
Encoding: 226 226 161
Width: 602
VWidth: 1024
Flags: W
HStem: -17 87<160.618 375.47> 325 97<176.675 432.967> 620 94<180.322 397.154>
VStem: 59 95<78.2087 304.156> 68 92<565.262 601.549> 435 99<116.251 307>
LayerCount: 2
Fore
SplineSet
434 307 m 1xf4
 434 307 344 318 278 323 c 0
 262 324 249 325 237 325 c 0
 174 325 163 299 155 162 c 0
 155 155 154 148 154 141 c 0
 154 85 174 70 216 70 c 0
 238 70 262 73 293 77 c 0
 368 87 425 109 435 163 c 1
 434 307 l 1xf4
68 568 m 1xec
 85 663 108 714 247 714 c 0
 262 714 278 713 295 712 c 0
 485 699 506 699 523 483 c 0
 532 372 534 242 534 143 c 0
 534 49 532 -18 532 -18 c 1
 467 -10 460 -11 451 -7 c 0
 443 -3 447 9 442 44 c 1
 413 -3 355 0 233 -14 c 0
 217 -16 201 -17 187 -17 c 0
 102 -17 59 18 59 163 c 0xf4
 59 403 91 418 229 422 c 1
 381 417 433 413 433 413 c 1
 421 571 441 615 295 617 c 0
 273 619 257 620 243 620 c 0
 190 620 176 602 160 540 c 1
 68 568 l 1xec
284 841 m 1
 212 777 l 1
 112 777 l 1
 229 927 l 1
 339 927 l 1
 456 777 l 1
 356 777 l 1
 284 841 l 1
EndSplineSet
EndChar

StartChar: atilde
Encoding: 227 227 162
Width: 602
VWidth: 1024
Flags: W
HStem: -17 87<160.618 375.47> 325 97<176.675 432.967> 620 94<180.322 397.154> 762 86<316.079 379.845> 851 86<218.173 282.38>
VStem: 59 95<78.2087 304.156> 68 92<565.262 601.549> 135 81<777 847.523> 382 81<851.477 922> 435 99<116.251 307>
LayerCount: 2
Fore
SplineSet
434 307 m 1xf940
 434 307 344 318 278 323 c 0
 262 324 249 325 237 325 c 0
 174 325 163 299 155 162 c 0
 155 155 154 148 154 141 c 0xfc40
 154 85 174 70 216 70 c 0
 238 70 262 73 293 77 c 0
 368 87 425 109 435 163 c 1
 434 307 l 1xf940
68 568 m 1xfa
 85 663 108 714 247 714 c 0
 262 714 278 713 295 712 c 0
 485 699 506 699 523 483 c 0
 532 372 534 242 534 143 c 0
 534 49 532 -18 532 -18 c 1
 467 -10 460 -11 451 -7 c 0
 443 -3 447 9 442 44 c 1
 413 -3 355 0 233 -14 c 0
 217 -16 201 -17 187 -17 c 0
 102 -17 59 18 59 163 c 0xfc40
 59 403 91 418 229 422 c 1
 381 417 433 413 433 413 c 1
 421 571 441 615 295 617 c 0
 273 619 257 620 243 620 c 0
 190 620 176 602 160 540 c 1
 68 568 l 1xfa
216 777 m 1xf980
 135 777 l 1
 135 915 148 937 230 937 c 0
 341 937 286 848 361 848 c 0
 379 848 382 859 382 922 c 1
 463 922 l 1
 463 784 450 762 368 762 c 0
 258 762 312 851 238 851 c 0
 219 851 216 840 216 777 c 1xf980
EndSplineSet
EndChar

StartChar: adieresis
Encoding: 228 228 163
Width: 602
VWidth: 1024
Flags: W
HStem: -17 87<160.618 375.47> 325 97<176.675 432.967> 620 94<180.322 397.154> 777 111<123 236 337 451>
VStem: 59 95<78.2087 304.156> 68 92<565.262 601.549> 123 113<777 888.201> 331 126<776.429 888> 435 99<116.251 307>
LayerCount: 2
Fore
SplineSet
434 307 m 1xf880
 434 307 344 318 278 323 c 0
 262 324 249 325 237 325 c 0
 174 325 163 299 155 162 c 0
 155 155 154 148 154 141 c 0
 154 85 174 70 216 70 c 0
 238 70 262 73 293 77 c 0
 368 87 425 109 435 163 c 1
 434 307 l 1xf880
68 568 m 1xf4
 85 663 108 714 247 714 c 0
 262 714 278 713 295 712 c 0
 485 699 506 699 523 483 c 0
 532 372 534 242 534 143 c 0
 534 49 532 -18 532 -18 c 1
 467 -10 460 -11 451 -7 c 0
 443 -3 447 9 442 44 c 1
 413 -3 355 0 233 -14 c 0
 217 -16 201 -17 187 -17 c 0
 102 -17 59 18 59 163 c 0xf880
 59 403 91 418 229 422 c 1
 381 417 433 413 433 413 c 1
 421 571 441 615 295 617 c 0
 273 619 257 620 243 620 c 0
 190 620 176 602 160 540 c 1
 68 568 l 1xf4
123 769 m 1xf2
 117 896 l 1
 242 888 l 1
 236 777 l 1
 123 769 l 1xf2
331 777 m 1xf1
 337 888 l 1
 451 896 l 1
 457 769 l 1
 331 777 l 1xf1
EndSplineSet
EndChar

StartChar: aring
Encoding: 229 229 164
Width: 602
VWidth: 1024
Flags: W
HStem: -17 87<160.618 375.47> 325 97<176.675 432.967> 620 94<180.322 397.154> 777 50<252.145 315.855> 901 50<251.387 316.613>
VStem: 59 95<78.2087 304.156> 68 92<565.262 601.549> 196 55<827.437 899.847> 317 55<827.437 899.847> 435 99<116.251 307>
LayerCount: 2
Fore
SplineSet
434 307 m 1xfdc0
 434 307 344 318 278 323 c 0
 262 324 249 325 237 325 c 0
 174 325 163 299 155 162 c 0
 155 155 154 148 154 141 c 0
 154 85 174 70 216 70 c 0
 238 70 262 73 293 77 c 0
 368 87 425 109 435 163 c 1
 434 307 l 1xfdc0
68 568 m 1xfbc0
 85 663 108 714 247 714 c 0
 262 714 278 713 295 712 c 0
 485 699 506 699 523 483 c 0
 532 372 534 242 534 143 c 0
 534 49 532 -18 532 -18 c 1
 467 -10 460 -11 451 -7 c 0
 443 -3 447 9 442 44 c 1
 413 -3 355 0 233 -14 c 0
 217 -16 201 -17 187 -17 c 0
 102 -17 59 18 59 163 c 0xfdc0
 59 403 91 418 229 422 c 1
 381 417 433 413 433 413 c 1
 421 571 441 615 295 617 c 0
 273 619 257 620 243 620 c 0
 190 620 176 602 160 540 c 1
 68 568 l 1xfbc0
196 864 m 0
 196 943 204 951 284 951 c 0
 364 951 372 943 372 864 c 0
 372 781 368 777 284 777 c 0
 200 777 196 781 196 864 c 0
284 827 m 0
 315 827 317 829 317 864 c 0
 317 898 314 901 284 901 c 0
 254 901 251 898 251 864 c 0
 251 829 253 827 284 827 c 0
EndSplineSet
EndChar

StartChar: ae
Encoding: 230 230 165
Width: 973
VWidth: 1024
Flags: W
HStem: -24 94<162.618 376.145> -20 83<579.61 776.62> 297 98<547 715.335> 325 90<178.675 434.967> 616 93<183.259 398.795 570.94 764.93>
VStem: 61 95<75.8497 303.635> 70 92<558.36 594.549> 437 110<117.535 297> 799 94<388 580.312> 815 101<103.007 146.316>
LayerCount: 2
Fore
SplineSet
798 388 m 1x2980
 798 405 799 421 799 435 c 0
 799 585 777 616 666 616 c 2
 651 616 l 2
 568 613 547 611 547 410 c 2
 547 395 l 1
 798 388 l 1x2980
436 307 m 1
 436 307 346 318 280 323 c 0
 264 324 251 325 239 325 c 0
 176 325 165 299 157 162 c 0
 157 155 156 148 156 141 c 0
 156 85 176 70 218 70 c 0x9d
 240 70 264 73 295 77 c 0
 370 87 427 109 437 163 c 1
 436 307 l 1
815 170 m 1x6940
 916 144 l 1
 870 4 838 -20 690 -20 c 2
 680 -20 l 2x6940
 569 -19 511 -17 479 46 c 1
 475 36 473 33 472 39 c 1
 443 -8 356 -8 234 -22 c 0
 218 -24 203 -24 189 -24 c 0
 104 -24 61 11 61 156 c 0x8d40
 61 396 93 411 231 415 c 1
 383 410 435 406 435 406 c 1
 423 564 443 608 297 610 c 0
 275 612 259 613 245 613 c 0
 192 613 178 596 162 534 c 1
 70 561 l 1
 87 656 110 707 249 707 c 0
 264 707 280 706 297 705 c 0
 399 698 452 695 482 660 c 1
 516 704 577 706 680 708 c 0
 698 708 714 709 729 709 c 0
 867 709 893 683 893 519 c 0x9b80
 893 467 891 400 888 315 c 1
 809 311 l 1
 547 297 l 1
 552 66 572 64 680 63 c 2
 688 63 l 2
 768 63 786 80 815 170 c 1x6940
EndSplineSet
EndChar

StartChar: ccedilla
Encoding: 231 231 166
Width: 610
VWidth: 1024
Flags: W
HStem: -248 53<271.514 347.238> -104 55<299.153 347.791> -15 96<209.01 270 310 407.866> 621 90<208.665 415.604>
VStem: 60 119<105.856 593.71> 349 62<-193.974 -104.889> 432 111<100.864 165.486 470 606.367>
LayerCount: 2
Fore
SplineSet
430 185 m 1
 544 164 l 1
 533 10 501 -15 310 -15 c 1
 299 -51 l 1
 304 -49 311 -49 321 -49 c 0
 399 -49 411 -63 411 -150 c 0
 411 -235 397 -248 311 -248 c 0
 250 -248 238 -240 221 -190 c 1
 266 -155 l 1
 278 -190 284 -195 308 -195 c 0
 343 -195 349 -189 349 -150 c 0
 349 -110 344 -104 311 -104 c 0
 288 -104 283 -106 279 -118 c 2
 278 -120 l 1
 243 -100 l 1
 270 -15 l 1
 89 -14 60 8 60 348 c 0
 60 709 93 711 305 711 c 0
 535 711 543 681 543 495 c 2
 543 452 l 1
 432 470 l 1
 432 496 l 2
 432 604 428 621 305 621 c 0
 196 621 179 620 179 348 c 0
 179 82 196 81 305 81 c 0
 407 81 424 95 430 185 c 1
EndSplineSet
EndChar

StartChar: egrave
Encoding: 232 232 167
Width: 586
VWidth: 1024
Flags: W
HStem: -18 84<194.331 392.62> 620 91<183.37 380.93>
VStem: 59 102<105.382 299 399 598.724> 413 96<392 587.594> 431 101<109.608 148.316>
LayerCount: 2
Fore
SplineSet
412 392 m 1xf0
 412 409 413 425 413 439 c 0
 413 589 391 620 280 620 c 2
 265 620 l 2
 182 617 161 615 161 414 c 2
 161 399 l 1
 412 392 l 1xf0
431 172 m 1xe8
 532 146 l 1xe8
 486 6 454 -18 306 -18 c 2
 296 -18 l 2
 97 -16 66 -14 60 355 c 0
 60 379 59 400 59 422 c 0
 59 702 101 705 296 710 c 0
 314 710 330 711 345 711 c 0
 483 711 509 685 509 520 c 0xf0
 509 468 507 400 504 315 c 2
 504 317 l 1
 425 313 l 1
 163 299 l 1
 168 68 188 67 296 66 c 2
 304 66 l 2
 384 66 402 82 431 172 c 1xe8
258 777 m 1
 159 927 l 1
 298 903 l 1
 358 777 l 1
 258 777 l 1
EndSplineSet
EndChar

StartChar: eacute
Encoding: 233 233 168
Width: 586
VWidth: 1024
Flags: W
HStem: -18 84<194.331 392.62> 620 91<183.37 380.93>
VStem: 59 102<105.382 299 399 598.724> 413 96<392 587.594> 431 101<109.608 148.316>
LayerCount: 2
Fore
SplineSet
412 392 m 1xf0
 412 409 413 425 413 439 c 0
 413 589 391 620 280 620 c 2
 265 620 l 2
 182 617 161 615 161 414 c 2
 161 399 l 1
 412 392 l 1xf0
431 172 m 1xe8
 532 146 l 1xe8
 486 6 454 -18 306 -18 c 2
 296 -18 l 2
 97 -16 66 -14 60 355 c 0
 60 379 59 400 59 422 c 0
 59 702 101 705 296 710 c 0
 314 710 330 711 345 711 c 0
 483 711 509 685 509 520 c 0xf0
 509 468 507 400 504 315 c 2
 504 317 l 1
 425 313 l 1
 163 299 l 1
 168 68 188 67 296 66 c 2
 304 66 l 2
 384 66 402 82 431 172 c 1xe8
258 777 m 1
 314 927 l 1
 427 893 l 1
 358 777 l 1
 258 777 l 1
EndSplineSet
EndChar

StartChar: ecircumflex
Encoding: 234 234 169
Width: 586
VWidth: 1024
Flags: W
HStem: -18 84<194.331 392.62> 620 91<183.37 380.93>
VStem: 59 102<105.382 299 399 598.724> 413 96<392 587.594> 431 101<109.608 148.316>
LayerCount: 2
Fore
SplineSet
412 392 m 1xf0
 412 409 413 425 413 439 c 0
 413 589 391 620 280 620 c 2
 265 620 l 2
 182 617 161 615 161 414 c 2
 161 399 l 1
 412 392 l 1xf0
431 172 m 1xe8
 532 146 l 1xe8
 486 6 454 -18 306 -18 c 2
 296 -18 l 2
 97 -16 66 -14 60 355 c 0
 60 379 59 400 59 422 c 0
 59 702 101 705 296 710 c 0
 314 710 330 711 345 711 c 0
 483 711 509 685 509 520 c 0xf0
 509 468 507 400 504 315 c 2
 504 317 l 1
 425 313 l 1
 163 299 l 1
 168 68 188 67 296 66 c 2
 304 66 l 2
 384 66 402 82 431 172 c 1xe8
308 841 m 1
 225 777 l 1
 135 777 l 1
 253 927 l 1
 335 913 l 1
 480 777 l 1
 380 777 l 1
 308 841 l 1
EndSplineSet
EndChar

StartChar: edieresis
Encoding: 235 235 170
Width: 586
VWidth: 1024
Flags: W
HStem: -18 84<194.331 392.62> 620 91<183.37 380.93> 777 119<176 287 334 447>
VStem: 59 102<105.382 299 399 598.724> 176 111<777 896> 328 119<777 888> 413 96<392 587.594> 431 101<109.608 148.316>
LayerCount: 2
Fore
SplineSet
412 392 m 1xfa
 412 409 413 425 413 439 c 0
 413 589 391 620 280 620 c 2
 265 620 l 2
 182 617 161 615 161 414 c 2
 161 399 l 1
 412 392 l 1xfa
431 172 m 1xf9
 532 146 l 1xf9
 486 6 454 -18 306 -18 c 2
 296 -18 l 2
 97 -16 66 -14 60 355 c 0
 60 379 59 400 59 422 c 0
 59 702 101 705 296 710 c 0
 314 710 330 711 345 711 c 0
 483 711 509 685 509 520 c 0xfa
 509 468 507 400 504 315 c 2
 504 317 l 1
 425 313 l 1
 163 299 l 1
 168 68 188 67 296 66 c 2
 304 66 l 2
 384 66 402 82 431 172 c 1xf9
176 775 m 1
 168 896 l 1
 287 896 l 1
 287 777 l 1
 176 775 l 1
328 777 m 1xfc
 334 888 l 1
 447 896 l 1
 447 777 l 1
 328 777 l 1xfc
EndSplineSet
EndChar

StartChar: igrave
Encoding: 236 236 171
Width: 315
VWidth: 1024
Flags: W
HStem: 0 21G<132 242> 677 20G<132 242>
VStem: 132 110<0 697>
LayerCount: 2
Fore
SplineSet
187 0 m 1
 132 0 l 1
 132 5 l 1
 132 692 l 1
 132 697 l 1
 187 697 l 1
 242 697 l 1
 242 5 l 1
 242 3 l 1
 242 0 l 1
 187 0 l 1
137 777 m 1
 38 927 l 1
 181 927 l 1
 237 777 l 1
 137 777 l 1
EndSplineSet
EndChar

StartChar: iacute
Encoding: 237 237 172
Width: 313
VWidth: 1024
Flags: W
HStem: 0 21G<69 179> 677 20G<69 179>
VStem: 69 110<0 697>
LayerCount: 2
Fore
SplineSet
124 0 m 1
 69 0 l 1
 69 5 l 1
 69 692 l 1
 69 697 l 1
 124 697 l 1
 179 697 l 1
 179 5 l 1
 179 3 l 1
 179 0 l 1
 124 0 l 1
74 777 m 1
 130 927 l 1
 273 927 l 1
 174 777 l 1
 74 777 l 1
EndSplineSet
EndChar

StartChar: icircumflex
Encoding: 238 238 173
Width: 422
VWidth: 1024
Flags: W
HStem: 0 21G<155 265> 677 20G<155 265>
VStem: 155 110<0 697>
LayerCount: 2
Fore
SplineSet
210 0 m 1
 155 0 l 1
 155 5 l 1
 155 692 l 1
 155 697 l 1
 210 697 l 1
 265 697 l 1
 265 5 l 1
 265 3 l 1
 265 0 l 1
 210 0 l 1
210 841 m 1
 137 777 l 1
 37 777 l 1
 155 927 l 1
 265 927 l 1
 382 777 l 1
 282 777 l 1
 210 841 l 1
EndSplineSet
EndChar

StartChar: idieresis
Encoding: 239 239 174
Width: 428
VWidth: 1024
Flags: W
HStem: 0 21G<157 267> 677 20G<157 267> 777 119<45 164 259 378>
VStem: 45 119<777 896> 157 110<0 697> 259 119<777 896>
LayerCount: 2
Fore
SplineSet
212 0 m 1xe8
 157 0 l 1
 157 5 l 1
 157 692 l 1
 157 697 l 1
 212 697 l 1
 267 697 l 1
 267 5 l 1
 267 3 l 1
 267 0 l 1
 212 0 l 1xe8
45 777 m 1xf0
 45 896 l 1
 164 896 l 1
 164 777 l 1
 45 777 l 1xf0
259 777 m 1xe4
 259 896 l 1
 378 896 l 1
 378 777 l 1
 259 777 l 1xe4
EndSplineSet
EndChar

StartChar: eth
Encoding: 240 240 175
Width: 604
VWidth: 1024
Flags: W
HStem: -15 95<214.543 395.291> 617 94<226.078 396.572>
VStem: 58 119<122.44 556.612> 430 107<113.946 578.826>
LayerCount: 2
Fore
SplineSet
430 426 m 1
 425 589 401 617 308 617 c 0
 208 617 190 581 177 348 c 1
 177 116 195 80 308 80 c 0
 403 80 427 109 430 282 c 2
 430 426 l 1
275 737 m 1
 239 812 l 1
 290 876 l 1
 223 907 122 947 122 947 c 1
 97 1059 l 1
 97 1059 276 986 339 961 c 0
 343 960 348 958 352 955 c 1
 415 1036 l 1
 492 965 l 1
 492 965 462 933 424 893 c 1
 463 849 499 794 512 754 c 0
 526 714 537 520 537 347 c 0
 537 220 531 105 515 71 c 0
 477 -9 349 -15 269 -15 c 0
 87 -15 58 34 58 348 c 1
 75 662 104 711 269 711 c 2
 281 711 l 2
 350 711 371 710 438 675 c 1
 433 732 402 794 365 831 c 1
 318 781 275 737 275 737 c 1
EndSplineSet
EndChar

StartChar: ntilde
Encoding: 241 241 176
Width: 567
VWidth: 1024
Flags: W
HStem: 607 98<178.066 382.938> 698 20G<68.9728 171.857> 762 82<316.979 378.982> 851 86<218.655 274.457>
VStem: 69 108<-4 601.423 681 697> 142 76<783 848.745> 381 75<847.106 902> 396 99<-6 592.96>
LayerCount: 2
Fore
SplineSet
389 -6 m 1xb9
 396 492 l 1
 396 507 l 2
 396 602 376 607 270 607 c 0xb9
 219 607 191 603 177 585 c 1
 174 -4 l 1
 68 -17 l 1
 69 718 l 1x79
 177 697 l 1
 177 681 l 1
 208 699 255 705 328 705 c 0
 472 705 494 694 495 492 c 2
 498 -17 l 1
 389 -6 l 1xb9
219 783 m 1
 142 777 l 1
 142 787 l 2
 142 916 143 937 223 937 c 0
 334 937 288 844 362 844 c 2
 371 844 l 2
 380 844 381 847 381 886 c 2
 381 902 l 1
 456 922 l 1
 456 784 443 762 361 762 c 0
 250 762 305 851 231 851 c 0
 220 851 218 850 218 836 c 0x36
 218 827 219 810 219 783 c 1
EndSplineSet
EndChar

StartChar: ograve
Encoding: 242 242 177
Width: 623
VWidth: 1024
Flags: W
HStem: -15 86<208.964 406.238> 626 85<209.762 407.036>
VStem: 60 119<101.284 600.075> 437 119<100.476 595.183>
LayerCount: 2
Fore
SplineSet
60 348 m 0
 60 709 93 711 308 711 c 0
 555 711 556 662 556 348 c 0
 556 -13 523 -15 308 -15 c 0
 61 -15 60 34 60 348 c 0
308 71 m 0
 420 71 437 72 437 348 c 0
 437 589 436 626 308 626 c 0
 196 626 179 626 179 348 c 0
 179 108 180 71 308 71 c 0
258 777 m 1
 159 927 l 1
 302 927 l 1
 358 777 l 1
 258 777 l 1
EndSplineSet
EndChar

StartChar: oacute
Encoding: 243 243 178
Width: 623
VWidth: 1024
Flags: W
HStem: -15 86<208.964 406.238> 626 85<209.762 407.036>
VStem: 60 119<101.284 600.075> 437 119<100.476 595.183>
LayerCount: 2
Fore
SplineSet
60 348 m 0
 60 709 93 711 308 711 c 0
 555 711 556 662 556 348 c 0
 556 -13 523 -15 308 -15 c 0
 61 -15 60 34 60 348 c 0
308 71 m 0
 420 71 437 72 437 348 c 0
 437 589 436 626 308 626 c 0
 196 626 179 626 179 348 c 0
 179 108 180 71 308 71 c 0
258 777 m 1
 314 927 l 1
 457 927 l 1
 358 777 l 1
 258 777 l 1
EndSplineSet
EndChar

StartChar: ocircumflex
Encoding: 244 244 179
Width: 594
VWidth: 1024
Flags: W
HStem: -15 86<198.146 391.915> 626 85<195.621 389.268>
VStem: 60 106<101.284 600.075> 421 106<100.476 595.183>
LayerCount: 2
Fore
SplineSet
60 348 m 0
 60 709 92 711 294 711 c 0
 526 711 527 662 527 348 c 0
 527 -13 496 -15 294 -15 c 0
 61 -15 60 34 60 348 c 0
294 71 m 0
 404 71 421 72 421 348 c 0
 421 589 420 626 294 626 c 0
 183 626 166 626 166 348 c 0
 166 108 167 71 294 71 c 0
291 839 m 1
 219 775 l 1
 119 775 l 1
 236 925 l 1
 346 925 l 1
 464 775 l 1
 362 775 l 1
 291 839 l 1
EndSplineSet
EndChar

StartChar: otilde
Encoding: 245 245 180
Width: 593
VWidth: 1024
Flags: W
HStem: -15 86<198.146 391.915> 626 85<195.621 389.268> 762 86<317.757 381.827> 851 86<220.173 284.243>
VStem: 60 106<101.284 600.075> 137 81<777 847.523> 384 81<851.477 922> 421 106<100.476 595.183>
LayerCount: 2
Fore
SplineSet
218 777 m 1xf6
 137 777 l 1
 137 915 150 937 232 937 c 0
 343 937 288 848 362 848 c 0
 381 848 384 859 384 922 c 1
 465 922 l 1
 465 784 452 762 370 762 c 0
 259 762 314 851 240 851 c 0
 221 851 218 840 218 777 c 1xf6
60 348 m 0xf9
 60 709 92 711 294 711 c 0
 526 711 527 662 527 348 c 0
 527 -13 496 -15 294 -15 c 0
 61 -15 60 34 60 348 c 0xf9
294 71 m 0
 404 71 421 72 421 348 c 0
 421 589 420 626 294 626 c 0
 183 626 166 626 166 348 c 0
 166 108 167 71 294 71 c 0
EndSplineSet
EndChar

StartChar: odieresis
Encoding: 246 246 181
Width: 623
VWidth: 1024
Flags: W
HStem: -15 86<208.964 406.238> 626 85<209.762 407.036> 777 119<168 288 329 449>
VStem: 60 119<101.284 600.075> 168 120<777 896> 329 120<777 896> 437 119<100.476 595.183>
LayerCount: 2
Fore
SplineSet
60 348 m 0xf2
 60 709 93 711 308 711 c 0
 555 711 556 662 556 348 c 0
 556 -13 523 -15 308 -15 c 0
 61 -15 60 34 60 348 c 0xf2
308 71 m 0
 420 71 437 72 437 348 c 0
 437 589 436 626 308 626 c 0
 196 626 179 626 179 348 c 0
 179 108 180 71 308 71 c 0
168 777 m 1xe8
 168 896 l 1
 288 896 l 1
 288 777 l 1
 168 777 l 1xe8
329 777 m 1xe4
 329 896 l 1
 449 896 l 1
 449 777 l 1
 329 777 l 1xe4
EndSplineSet
EndChar

StartChar: divide
Encoding: 247 247 182
Width: 832
VWidth: 1024
Flags: W
HStem: 176 112<387.546 470> 384 106<413.196 766> 396 112<60 412.804> 604 98<376.05 466> 694 20G<344.328 468>
VStem: 344 124<604 702> 360 110<176 288>
LayerCount: 2
Fore
SplineSet
358 300 m 1x82
 472 288 l 1
 470 176 l 1
 360 164 l 1
 358 300 l 1x82
344 714 m 1x8c
 468 702 l 1
 466 604 l 1x94
 346 592 l 1
 344 714 l 1x8c
60 508 m 1xa0
 766 490 l 1
 768 384 l 1xc0
 58 396 l 1
 60 508 l 1xa0
EndSplineSet
EndChar

StartChar: oslash
Encoding: 248 248 183
Width: 627
VWidth: 1024
Flags: W
HStem: -15 86<211.174 409.238> 626 85<212.762 410.573>
VStem: 63 119<186.074 600.075> 440 119<100.476 509.449>
LayerCount: 2
Fore
SplineSet
186 183 m 1
 426 572 l 1
 410 616 378 626 311 626 c 0
 199 626 182 626 182 348 c 0
 182 277 182 223 186 183 c 1
63 348 m 0
 63 709 96 711 311 711 c 0
 400 711 457 705 494 682 c 1
 512 711 l 1
 559 711 l 1
 524 654 l 1
 559 603 559 512 559 348 c 0
 559 -13 526 -15 311 -15 c 0
 222 -15 165 -9 129 14 c 1
 111 -15 l 1
 63 -15 l 1
 99 42 l 1
 63 93 63 184 63 348 c 0
311 71 m 0
 423 71 440 72 440 348 c 0
 440 419 440 473 436 512 c 1
 197 124 l 1
 212 81 245 71 311 71 c 0
EndSplineSet
EndChar

StartChar: ugrave
Encoding: 249 249 184
Width: 556
VWidth: 1024
Flags: W
HStem: -15 105<179.556 361.375> 689 12G<65.9602 174 375 483.028>
VStem: 65 110<96.6526 685> 375 109<-15 25 103.949 693>
LayerCount: 2
Fore
SplineSet
375 210 m 2
 375 693 l 1
 483 709 l 1
 484 -11 l 1
 484 -15 l 1
 381 -38 l 1
 375 5 l 1
 375 15 l 1
 375 25 l 1
 351 -7 339 -15 264 -15 c 0
 76 -15 65 -5 65 198 c 2
 66 701 l 1
 174 685 l 1
 175 198 l 1
 175 150 l 2
 175 93 183 90 268 90 c 0
 361 90 375 106 375 210 c 2
225 777 m 1
 125 927 l 1
 268 927 l 1
 325 777 l 1
 225 777 l 1
EndSplineSet
EndChar

StartChar: uacute
Encoding: 250 250 185
Width: 556
VWidth: 1024
Flags: W
HStem: -15 105<179.556 361.375> 689 12G<65.9602 174 375 483.028>
VStem: 65 110<96.6526 685> 375 109<-15 25 103.949 693>
LayerCount: 2
Fore
SplineSet
375 210 m 2
 375 693 l 1
 483 709 l 1
 484 -11 l 1
 484 -15 l 1
 381 -38 l 1
 375 5 l 1
 375 15 l 1
 375 25 l 1
 351 -7 339 -15 264 -15 c 0
 76 -15 65 -5 65 198 c 2
 66 701 l 1
 174 685 l 1
 175 198 l 1
 175 150 l 2
 175 93 183 90 268 90 c 0
 361 90 375 106 375 210 c 2
225 777 m 1
 281 927 l 1
 424 927 l 1
 325 777 l 1
 225 777 l 1
EndSplineSet
EndChar

StartChar: ucircumflex
Encoding: 251 251 186
Width: 556
VWidth: 1024
Flags: W
HStem: -15 105<179.556 361.375> 689 12G<65.9602 174 375 483.028>
VStem: 65 110<96.6526 685> 375 109<-15 25 103.949 693>
LayerCount: 2
Fore
SplineSet
375 210 m 2
 375 693 l 1
 483 709 l 1
 484 -11 l 1
 484 -15 l 1
 381 -38 l 1
 375 5 l 1
 375 15 l 1
 375 25 l 1
 351 -7 339 -15 264 -15 c 0
 76 -15 65 -5 65 198 c 2
 66 701 l 1
 174 685 l 1
 175 198 l 1
 175 150 l 2
 175 93 183 90 268 90 c 0
 361 90 375 106 375 210 c 2
275 841 m 1
 202 777 l 1
 102 777 l 1
 219 927 l 1
 330 927 l 1
 447 777 l 1
 347 777 l 1
 275 841 l 1
EndSplineSet
EndChar

StartChar: udieresis
Encoding: 252 252 187
Width: 556
VWidth: 1024
Flags: W
HStem: -15 105<179.556 361.375> 689 12G<65.9602 174 375 483.028> 777 111<131 254 295 410>
VStem: 65 110<96.6526 685> 131 123<777 888> 291 123<777 888> 375 109<-15 25 103.949 693>
LayerCount: 2
Fore
SplineSet
375 210 m 2xf2
 375 693 l 1
 483 709 l 1
 484 -11 l 1
 484 -15 l 1
 381 -38 l 1
 375 5 l 1
 375 15 l 1
 375 25 l 1
 351 -7 339 -15 264 -15 c 0
 76 -15 65 -5 65 198 c 2
 66 701 l 1
 174 685 l 1
 175 198 l 1
 175 150 l 2
 175 93 183 90 268 90 c 0
 361 90 375 106 375 210 c 2xf2
131 769 m 1xe8
 131 888 l 1
 254 896 l 1
 254 777 l 1
 131 769 l 1xe8
291 769 m 1xe4
 295 896 l 1
 410 888 l 1
 414 777 l 1
 291 769 l 1xe4
EndSplineSet
EndChar

StartChar: yacute
Encoding: 253 253 188
Width: 567
VWidth: 1024
Flags: W
HStem: -200 94<92 208.145> 698 20G<77.2857 166.741 387.528 471.375>
LayerCount: 2
Fore
SplineSet
43 690 m 1
 163 718 l 1
 267 162 l 1
 392 721 l 1
 519 689 l 1
 312 -80 l 2
 283 -190 294 -200 204 -200 c 2
 128 -200 l 1
 92 -198 l 1
 69 -104 l 1
 93 -106 l 1
 150 -106 l 2
 213 -106 206 -99 222 -36 c 2
 227 -13 l 1
 43 690 l 1
230 777 m 1
 287 927 l 1
 388 905 l 1
 330 777 l 1
 230 777 l 1
EndSplineSet
EndChar

StartChar: thorn
Encoding: 254 254 189
Width: 590
VWidth: 1024
Flags: W
HStem: -15 82<208.862 393.311> 617 94<199.685 391.672>
VStem: 63 111<-245 17 103.652 340.674> 81 93<341.326 591.636 679 927> 430 92<103.565 576.344>
LayerCount: 2
Fore
SplineSet
81 927 m 1xd8
 174 927 l 1
 174 679 l 1xd8
 206 711 256 711 337 711 c 0
 521 711 522 708 522 394 c 0
 522 80 521 -15 337 -15 c 0
 256 -15 206 -15 174 17 c 1xe8
 174 -250 l 1xd8
 119 -250 l 1
 63 -245 l 1xe8
 81 927 l 1xd8
307 67 m 0
 420 67 430 115 430 348 c 0
 430 581 412 617 298 617 c 0
 192 617 174 616 174 348 c 0
 174 80 199 67 307 67 c 0
EndSplineSet
EndChar

StartChar: ydieresis
Encoding: 255 255 190
Width: 567
VWidth: 1024
Flags: W
HStem: -200 94<92 208.145> 698 20G<77.2857 166.741 387.528 471.375> 777 119<141 260 323.753 420> 777 109<313 409.247>
VStem: 141 119<777 896> 301 119<777 858.705> 313 107<804.295 886>
LayerCount: 2
Fore
SplineSet
43 690 m 1xc8
 163 718 l 1
 267 162 l 1
 392 721 l 1
 519 689 l 1
 312 -80 l 2
 283 -190 294 -200 204 -200 c 2
 128 -200 l 1
 92 -198 l 1
 69 -104 l 1
 93 -106 l 1
 150 -106 l 2
 213 -106 206 -99 222 -36 c 2
 227 -13 l 1
 43 690 l 1xc8
141 777 m 1xe8
 141 896 l 1
 260 896 l 1
 260 777 l 1
 141 777 l 1xe8
301 777 m 1xdc
 313 886 l 1xda
 420 896 l 1xea
 420 777 l 1xec
 301 777 l 1xdc
EndSplineSet
EndChar

StartChar: Amacron
Encoding: 256 256 191
Width: 786
VWidth: 1024
Flags: W
HStem: 184 95<241 549> 193 87<241 549> 1007 76<234 425.465> 1007 62<340.535 526>
LayerCount: 2
Fore
SplineSet
241 279 m 1x80
 549 280 l 1x40
 385 779 l 1
 241 279 l 1x80
46 6 m 1
 330 928 l 1
 461 927 l 1
 741 5 l 1
 649 -26 l 1
 577 193 l 1x40
 214 184 l 1x80
 154 -22 l 1
 46 6 l 1
234 1007 m 1x20
 234 1083 l 1x20
 532 1069 l 1
 526 1007 l 1x10
 234 1007 l 1x20
EndSplineSet
EndChar

StartChar: amacron
Encoding: 257 257 192
Width: 603
VWidth: 1024
Flags: W
HStem: -24 94<161.618 376.47> 325 90<177.675 433.967> 613 94<181.322 398.154> 785 68<140 430>
VStem: 60 95<75.8497 303.635> 69 92<558.36 594.549> 436 99<116.251 307>
LayerCount: 2
Fore
SplineSet
435 307 m 1xfa
 435 307 345 318 279 323 c 0
 263 324 250 325 238 325 c 0
 175 325 164 299 156 162 c 0
 156 155 155 148 155 141 c 0
 155 85 175 70 217 70 c 0
 239 70 263 73 294 77 c 0
 369 87 426 109 436 163 c 1
 435 307 l 1xfa
69 561 m 1xf6
 86 656 109 707 248 707 c 0
 263 707 279 706 296 705 c 0
 486 692 507 692 524 476 c 0
 533 365 535 235 535 136 c 0
 535 42 534 -25 534 -25 c 1
 469 -17 461 -18 452 -14 c 0
 444 -10 448 2 443 37 c 1
 414 -10 356 -8 234 -22 c 0
 218 -24 202 -24 188 -24 c 0
 103 -24 60 11 60 156 c 0xfa
 60 396 92 411 230 415 c 1
 382 410 434 406 434 406 c 1
 422 564 442 608 296 610 c 0
 274 612 258 613 244 613 c 0
 191 613 177 596 161 534 c 1
 69 561 l 1xf6
140 785 m 1
 140 853 l 1
 430 853 l 1
 430 777 l 1
 140 785 l 1
EndSplineSet
EndChar

StartChar: Abreve
Encoding: 258 258 193
Width: 786
VWidth: 1024
Flags: W
HStem: 184 95<252 560> 193 87<252 560> 986 83<323.791 460.75>
VStem: 237 81<1075.25 1134> 466 81<1074.9 1140>
LayerCount: 2
Fore
SplineSet
252 279 m 1xb8
 560 280 l 1x78
 396 779 l 1
 252 279 l 1xb8
46 6 m 1
 330 928 l 1
 461 927 l 1
 741 5 l 1
 649 -26 l 1
 577 193 l 1x78
 214 184 l 1xb8
 154 -22 l 1
 46 6 l 1
237 1134 m 1
 318 1140 l 1
 318 1079 329 1069 392 1069 c 0
 455 1069 466 1079 466 1140 c 1
 547 1140 l 1
 547 1034 530 986 449 986 c 0
 433 986 414 988 392 992 c 0
 262 1014 237 1006 237 1134 c 1
EndSplineSet
EndChar

StartChar: abreve
Encoding: 259 259 194
Width: 602
VWidth: 1024
Flags: W
HStem: -24 94<160.618 375.47> 325 90<176.675 432.967> 613 94<180.322 397.154> 776 69<214.752 352.596>
VStem: 59 95<75.8497 303.635> 68 92<558.36 594.549> 129 81<850.372 916> 358 81<852.49 916> 435 99<116.251 307>
LayerCount: 2
Fore
SplineSet
434 307 m 1xf880
 434 307 344 318 278 323 c 0
 262 324 249 325 237 325 c 0
 174 325 163 299 155 162 c 0
 155 155 154 148 154 141 c 0
 154 85 174 70 216 70 c 0
 238 70 262 73 293 77 c 0
 368 87 425 109 435 163 c 1
 434 307 l 1xf880
68 561 m 1xf4
 85 656 108 707 247 707 c 0
 262 707 278 706 295 705 c 0
 485 692 506 692 523 476 c 0
 532 365 534 235 534 136 c 0
 534 42 532 -25 532 -25 c 1
 467 -17 460 -18 451 -14 c 0
 443 -10 447 2 442 37 c 1
 413 -10 355 -8 233 -22 c 0
 217 -24 201 -24 187 -24 c 0
 102 -24 59 11 59 156 c 0xf880
 59 396 91 411 229 415 c 1
 381 410 433 406 433 406 c 1
 421 564 441 608 295 610 c 0
 273 612 257 613 243 613 c 0
 190 613 176 596 160 534 c 1
 68 561 l 1xf4
129 916 m 1xf3
 210 916 l 1
 210 855 221 845 284 845 c 0
 347 845 358 855 358 916 c 1
 439 916 l 1
 439 788 416 786 284 778 c 0
 267 777 252 776 239 776 c 0
 147 776 129 804 129 916 c 1xf3
EndSplineSet
EndChar

StartChar: Aogonek
Encoding: 260 260 195
Width: 894
VWidth: 1024
Flags: W
HStem: -214 70<705.91 848.366> 0 21G<46 180.5> 183 97<266 543>
VStem: 641 61<-139.298 -20.9039>
LayerCount: 2
Fore
SplineSet
113 0 m 1
 46 0 l 1
 337 927 l 1
 345 927 l 1
 401 927 l 1
 464 927 l 1
 469 927 l 1
 757 0 l 1
 733 -14 702 -39 702 -86 c 0
 702 -136 712 -144 779 -144 c 0
 827 -144 836 -142 845 -132 c 1
 857 -195 l 1
 842 -211 831 -214 772 -214 c 0
 659 -214 641 -198 641 -97 c 0
 641 -56 662 -24 689 0 c 1
 629 0 l 2
 628 2 628 3 627 5 c 2
 573 183 l 1
 237 183 l 1
 256 248 l 1
 182 5 l 2
 181 3 181 2 180 0 c 2
 113 0 l 1
266 280 m 1
 543 280 l 1
 566 205 l 1
 406 733 l 1
 266 280 l 1
EndSplineSet
EndChar

StartChar: aogonek
Encoding: 261 261 196
Width: 654
VWidth: 1024
Flags: W
HStem: -202 42<492.153 611.055> -24 94<162.618 378.134> 325 90<178.675 434.967> 613 94<182.322 399.154>
VStem: 61 95<75.8497 303.635> 70 92<558.36 594.549> 440 96<-88.652 -25 -24.9511 32 119.473 307> 441 49<-157.574 -84.5692>
LayerCount: 2
Fore
SplineSet
436 307 m 1xf8
 436 307 346 318 280 323 c 0
 264 324 251 325 239 325 c 0
 176 325 165 299 157 162 c 0
 157 155 156 148 156 141 c 0
 156 85 176 70 218 70 c 0
 240 70 264 73 295 77 c 0
 370 87 427 109 437 163 c 1
 436 307 l 1xf8
534 -25 m 1
 536 -70 l 1
 536 -73 l 1xf6
 516 -81 490 -96 490 -123 c 0
 490 -155 499 -160 553 -160 c 0
 593 -160 601 -158 608 -152 c 1
 617 -191 l 1
 606 -200 597 -202 549 -202 c 0
 456 -202 441 -192 441 -130 c 0xf1
 441 -112 440 -9 440 32 c 1
 410 -10 351 -9 234 -22 c 0
 218 -24 203 -24 189 -24 c 0
 104 -24 61 11 61 156 c 0xfa
 61 396 93 411 231 415 c 1
 383 410 435 406 435 406 c 1
 423 564 443 608 297 610 c 0
 275 612 259 613 245 613 c 0
 192 613 178 596 162 534 c 1
 70 561 l 1
 87 656 110 707 249 707 c 0
 264 707 280 706 297 705 c 0
 487 692 508 692 525 476 c 0
 534 365 536 235 536 136 c 0xf6
 536 42 534 -25 534 -25 c 1
EndSplineSet
EndChar

StartChar: Cacute
Encoding: 262 262 197
Width: 687
VWidth: 1024
Flags: W
HStem: -9 102<273.816 615.71> 840 101<284.024 616.823>
VStem: 59 127<198.17 717.182>
LayerCount: 2
Fore
SplineSet
613 97 m 2
 633 -1 l 2
 632 -8 603 -9 419 -9 c 0
 117 -9 59 86 59 411 c 2
 59 465 l 1
 65 833 113 941 403 941 c 2
 419 941 l 2
 605 938 634 938 634 937 c 2
 612 844 l 2
 612 842 597 839 520 839 c 0
 494 839 461 839 419 840 c 2
 409 840 l 2
 222 840 191 754 186 465 c 1
 186 414 l 2
 186 166 225 93 419 93 c 0
 586 93 612 94 613 97 c 2
341 1007 m 1
 397 1157 l 1
 540 1157 l 1
 441 1007 l 1
 341 1007 l 1
EndSplineSet
EndChar

StartChar: cacute
Encoding: 263 263 198
Width: 609
VWidth: 1024
Flags: W
HStem: -15 96<207.724 411.729> 621 90<208.665 415.604>
VStem: 60 119<109.121 593.71> 432 111<100.666 165.486 470 606.367>
LayerCount: 2
Fore
SplineSet
430 185 m 1
 544 164 l 1
 533 9 500 -15 305 -15 c 0
 93 -15 60 -13 60 348 c 0
 60 709 93 711 305 711 c 0
 535 711 543 681 543 495 c 2
 543 452 l 1
 432 470 l 1
 432 496 l 2
 432 604 428 621 305 621 c 0
 196 621 179 620 179 348 c 0
 179 82 196 81 305 81 c 0
 407 81 424 95 430 185 c 1
255 777 m 1
 311 927 l 1
 454 927 l 1
 355 777 l 1
 255 777 l 1
EndSplineSet
EndChar

StartChar: Ccircumflex
Encoding: 264 264 199
Width: 687
VWidth: 1024
Flags: W
HStem: -9 102<273.816 615.71> 839 102<284.024 617.5>
VStem: 59 127<198.17 717.182>
LayerCount: 2
Fore
SplineSet
371 1071 m 1
 299 1007 l 1
 199 1007 l 1
 316 1157 l 1
 426 1157 l 1
 543 1007 l 1
 443 1007 l 1
 371 1071 l 1
520 839 m 0
 493 839 451 840 409 840 c 0
 222 840 191 754 186 465 c 1
 186 414 l 2
 186 166 225 93 419 93 c 0
 586 93 612 94 613 97 c 2
 633 -1 l 2
 632 -8 603 -9 419 -9 c 0
 117 -9 59 86 59 411 c 2
 59 465 l 1
 65 833 113 941 403 941 c 0
 577 941 634 937 634 937 c 1
 612 844 l 2
 612 842 597 839 520 839 c 0
EndSplineSet
EndChar

StartChar: Cdotaccent
Encoding: 266 266 200
Width: 687
VWidth: 1024
Flags: W
HStem: -9 102<273.816 615.71> 839 102<284.024 617.5> 1007 119<311 431>
VStem: 59 127<198.17 717.182> 311 120<1007 1126>
LayerCount: 2
Fore
SplineSet
311 1007 m 1
 311 1126 l 1
 431 1126 l 1
 431 1007 l 1
 311 1007 l 1
520 839 m 0
 493 839 451 840 409 840 c 0
 222 840 191 754 186 465 c 1
 186 414 l 2
 186 166 225 93 419 93 c 0
 586 93 612 94 613 97 c 2
 633 -1 l 2
 632 -8 603 -9 419 -9 c 0
 117 -9 59 86 59 411 c 2
 59 465 l 1
 65 833 113 941 403 941 c 0
 577 941 634 937 634 937 c 1
 612 844 l 2
 612 842 597 839 520 839 c 0
EndSplineSet
EndChar

StartChar: cdotaccent
Encoding: 267 267 201
Width: 579
VWidth: 1024
Flags: W
HStem: -10 94<206.101 414.551> 618 90<189.347 411.484> 777 119<203 322>
VStem: 59 99<145.25 588.188> 203 119<777 896> 429 91<98.3359 139.68>
LayerCount: 2
Fore
SplineSet
203 777 m 1
 203 896 l 1
 322 896 l 1
 322 777 l 1
 203 777 l 1
429 155 m 1
 520 138 l 1
 498 22 493 -10 299 -10 c 0
 93 -10 73 -7 61 355 c 0
 60 389 59 421 59 449 c 0
 59 683 104 708 251 708 c 0
 266 708 282 707 299 707 c 0
 518 700 499 630 522 570 c 1
 432 549 l 1
 418 583 432 616 299 617 c 0
 282 617 267 618 253 618 c 0
 184 618 158 597 158 377 c 0
 158 107 196 84 299 84 c 0
 395 84 421 86 429 155 c 1
EndSplineSet
EndChar

StartChar: Ccaron
Encoding: 268 268 202
Width: 688
VWidth: 1024
Flags: W
HStem: -9 102<273.816 615.71> 840 101<284.024 616.823>
VStem: 59 127<198.17 717.182>
LayerCount: 2
Fore
SplineSet
613 97 m 2
 633 -1 l 2
 632 -8 603 -9 419 -9 c 0
 117 -9 59 86 59 411 c 2
 59 465 l 1
 65 833 113 941 403 941 c 2
 419 941 l 2
 605 938 634 938 634 937 c 2
 612 840 l 2
 612 839 606 838 578 838 c 0
 551 838 503 839 419 840 c 2
 409 840 l 2
 222 840 191 754 186 465 c 1
 186 414 l 2
 186 166 225 93 419 93 c 0
 586 93 612 94 613 97 c 2
391 1093 m 1
 473 1147 l 1
 563 1157 l 1
 446 1007 l 1
 374 997 l 1
 219 1157 l 1
 319 1157 l 1
 391 1093 l 1
EndSplineSet
EndChar

StartChar: ccaron
Encoding: 269 269 203
Width: 579
VWidth: 1024
Flags: W
HStem: -10 94<206.101 414.551> 618 90<189.347 411.484>
VStem: 59 99<145.25 588.188> 429 91<98.3359 139.68>
LayerCount: 2
Fore
SplineSet
263 863 m 1
 335 927 l 1
 435 927 l 1
 318 777 l 1
 207 777 l 1
 90 927 l 1
 190 927 l 1
 263 863 l 1
429 155 m 1
 520 138 l 1
 498 22 493 -10 299 -10 c 0
 93 -10 73 -7 61 355 c 0
 60 389 59 421 59 449 c 0
 59 683 104 708 251 708 c 0
 266 708 282 707 299 707 c 0
 518 700 499 630 522 570 c 1
 432 549 l 1
 418 583 432 616 299 617 c 0
 282 617 267 618 253 618 c 0
 184 618 158 597 158 377 c 0
 158 107 196 84 299 84 c 0
 395 84 421 86 429 155 c 1
EndSplineSet
EndChar

StartChar: Dcaron
Encoding: 270 270 204
Width: 766
VWidth: 1024
Flags: W
HStem: 0 96<187 506.847> 830 97<175 510.826>
VStem: 70 117<97 646.445> 75 100<280.555 830> 573 127<176.274 765.753>
LayerCount: 2
Fore
SplineSet
129 0 m 1xd8
 70 0 l 1
 70 5 l 1xe8
 75 927 l 1
 124 927 l 1
 173 927 l 1
 305 927 l 2
 648 927 700 908 700 589 c 0
 700 551 699 510 698 463 c 0
 689 10 681 0 335 0 c 2
 189 0 l 1
 185 0 l 1
 129 0 l 1xd8
321 1093 m 1
 393 1157 l 1
 493 1157 l 1
 376 1007 l 1
 266 1007 l 1
 148 1157 l 1
 248 1157 l 1
 321 1093 l 1
187 97 m 1
 245 97 267 96 326 96 c 0
 559 96 564 104 571 463 c 0
 572 504 573 540 573 573 c 0
 573 816 536 830 310 830 c 2
 175 830 l 1xd8
 187 97 l 1
EndSplineSet
EndChar

StartChar: dcaron
Encoding: 271 271 205
Width: 753
VWidth: 1024
Flags: W
HStem: -15 95<215.543 397.598> 0 21G<432 541> 617 94<215.543 397.598> 791 150<591 671>
VStem: 59 119<122.44 574.009> 432 109<5 31 117.061 579.846 665 927> 590 81<791 824.731>
LayerCount: 2
Fore
SplineSet
432 348 m 0xbe
 432 581 415 617 309 617 c 0
 196 617 178 581 178 348 c 0
 178 116 196 80 309 80 c 0
 415 80 432 116 432 348 c 0xbe
59 348 m 0
 59 662 88 711 270 711 c 0
 350 711 400 702 432 665 c 1
 432 918 l 1
 432 922 l 1
 432 927 l 1
 487 927 l 1
 541 927 l 1
 541 918 l 1
 541 10 l 1
 541 5 l 2
 542 5 542 5 541 3 c 0
 542 0 542 0 541 0 c 2
 487 0 l 1
 432 0 l 1x7e
 432 10 l 1
 432 31 l 1
 400 -6 350 -15 270 -15 c 0
 88 -15 59 34 59 348 c 0
591 941 m 1
 711 941 l 1
 671 791 l 1
 590 791 l 1
 591 941 l 1
EndSplineSet
EndChar

StartChar: Dcroat
Encoding: 272 272 206
Width: 825
VWidth: 1024
Flags: W
HStem: 0 96<248 570.218> 423 81<49 129 248 380> 830 97<248 561.993>
VStem: 129 119<97 423 504 830> 630 127<154.542 756.613>
LayerCount: 2
Fore
SplineSet
248 97 m 1
 307 97 325 96 385 96 c 0
 624 96 630 104 630 463 c 0
 630 812 617 830 369 830 c 2
 248 830 l 1
 248 504 l 1
 380 504 l 1
 380 423 l 1
 248 423 l 1
 248 97 l 1
49 423 m 1
 49 504 l 1
 129 504 l 1
 129 922 l 1
 129 927 l 1
 188 927 l 1
 248 927 l 1
 364 927 l 2
 738 927 757 905 757 463 c 0
 757 10 749 0 394 0 c 2
 248 0 l 1
 188 0 l 1
 129 0 l 1
 129 5 l 1
 129 423 l 1
 49 423 l 1
EndSplineSet
EndChar

StartChar: dcroat
Encoding: 273 273 207
Width: 698
VWidth: 1024
Flags: W
HStem: -15 95<215.543 397.598> 0 21G<432 541> 617 94<215.543 397.598> 779 80<270 432 541 651>
VStem: 59 119<122.44 574.009> 432 109<5 31 117.061 579.846 665 779 859 927>
LayerCount: 2
Fore
SplineSet
432 348 m 0xbc
 432 581 415 617 309 617 c 0
 196 617 178 581 178 348 c 0
 178 116 196 80 309 80 c 0
 415 80 432 116 432 348 c 0xbc
270 779 m 1
 270 859 l 1
 432 859 l 1
 432 918 l 1
 432 922 l 1
 432 927 l 1
 487 927 l 1
 541 927 l 1
 541 918 l 1
 541 859 l 1
 651 859 l 1
 651 779 l 1
 541 779 l 1
 541 10 l 1
 541 5 l 2
 542 5 542 5 541 3 c 0
 542 0 542 0 541 0 c 2
 487 0 l 1
 432 0 l 1x7c
 432 10 l 1
 432 31 l 1
 400 -6 350 -15 270 -15 c 0
 88 -15 59 34 59 348 c 0
 59 662 88 711 270 711 c 0
 350 711 400 702 432 665 c 1
 432 779 l 1
 270 779 l 1
EndSplineSet
EndChar

StartChar: Emacron
Encoding: 274 274 208
Width: 632
VWidth: 1024
Flags: W
HStem: 0 101<191 568> 369 97<191 538> 826 101<191 558> 1007 76<170 460>
VStem: 72 119<101 369 466 826>
LayerCount: 2
Fore
SplineSet
573 51 m 1
 573 0 l 1
 191 0 l 1
 190 0 l 1
 131 0 l 1
 72 0 l 1
 72 5 l 1
 72 922 l 1
 72 927 l 1
 131 927 l 1
 190 927 l 1
 191 927 l 1
 558 927 l 1
 558 876 l 1
 558 826 l 1
 553 826 l 1
 191 826 l 1
 191 466 l 1
 534 466 l 1
 538 466 l 1
 538 417 l 1
 538 369 l 1
 534 369 l 1
 191 369 l 1
 191 101 l 1
 568 101 l 2
 568 102 568 102 570 101 c 0
 573 102 573 102 573 101 c 2
 573 51 l 1
170 1007 m 1
 170 1083 l 1
 460 1083 l 1
 460 1007 l 1
 170 1007 l 1
EndSplineSet
EndChar

StartChar: emacron
Encoding: 275 275 209
Width: 587
VWidth: 1024
Flags: W
HStem: -14 84<194.331 392.62> 303 98<163 331.335> 622 93<188.833 380.93> 777 76<221.87 437> 777 64<150 365.13>
VStem: 59 104<101.341 303 401 601.889> 415 94<394 590.18> 431 101<113.608 152.316>
LayerCount: 2
Fore
SplineSet
414 394 m 1xe6
 414 411 415 427 415 441 c 0
 415 591 393 622 282 622 c 2
 267 622 l 2
 184 619 163 617 163 416 c 2
 163 401 l 1
 414 394 l 1xe6
431 176 m 1xe5
 532 150 l 1xe5
 486 10 454 -14 306 -14 c 2
 296 -14 l 2
 97 -12 66 -10 60 359 c 0
 60 383 59 404 59 426 c 0
 59 706 101 709 296 714 c 0
 314 714 330 715 345 715 c 0
 483 715 509 689 509 524 c 0xe6
 509 472 507 404 504 319 c 2
 504 321 l 1
 425 317 l 1
 163 303 l 1
 168 72 188 71 296 70 c 2
 304 70 l 2
 384 70 402 86 431 176 c 1xe5
147 777 m 1xec
 150 841 l 1xec
 437 853 l 1
 437 777 l 1xf4
 147 777 l 1xec
EndSplineSet
EndChar

StartChar: Ebreve
Encoding: 276 276 210
Width: 632
VWidth: 1024
Flags: W
HStem: 4 105<191 568> 380 99<191 538> 853 96<191 558> 992 77<268.017 405.983>
VStem: 72 119<109 387 471 853> 182 81<1074.63 1140> 411 81<1074.63 1140>
LayerCount: 2
Fore
SplineSet
189 4 m 1xfa
 187 4 l 1
 72 4 l 1
 72 949 l 1
 190 949 l 1
 191 949 l 1
 558 949 l 1
 558 846 l 1
 396 846 337 852 191 853 c 1
 191 471 l 1
 534 479 l 1
 538 479 l 1
 538 429 l 1
 538 380 l 1
 534 380 l 1
 191 387 l 1
 191 109 l 1
 353 109 408 117 568 117 c 1
 568 118 568 118 570 117 c 0
 573 118 573 118 573 117 c 2
 573 61 l 1
 573 4 l 1
 189 4 l 1xfa
182 1140 m 1xf6
 263 1140 l 1
 263 1079 274 1069 337 1069 c 0
 400 1069 411 1079 411 1140 c 1
 492 1140 l 1
 492 1012 471 992 337 992 c 0
 203 992 182 1012 182 1140 c 1xf6
EndSplineSet
EndChar

StartChar: ebreve
Encoding: 277 277 211
Width: 630
VWidth: 1024
Flags: W
HStem: -15 96<207.03 420.094> 292 81<178 455> 621 90<207.251 419.305> 762 77<243.017 380.983>
VStem: 59 119<112.065 292 373 592.156> 157 81<844.631 910> 386 81<844.631 910> 434 115<97.2018 167> 455 110<373 583.983>
LayerCount: 2
Fore
SplineSet
178 373 m 1xf880
 455 373 l 1
 454 586 445 621 312 621 c 0
 200 621 179 620 178 373 c 1xf880
434 177 m 1xf9
 549 167 l 1xf9
 549 10 516 -15 304 -15 c 0
 92 -15 59 -13 59 348 c 0
 59 709 93 711 312 711 c 0
 556 711 565 662 565 364 c 2
 565 292 l 1xf880
 178 292 l 1
 181 82 203 81 304 81 c 0
 416 81 434 94 434 177 c 1xf9
157 910 m 1xf6
 238 910 l 1
 238 849 249 839 312 839 c 0
 375 839 386 849 386 910 c 1
 467 910 l 1
 467 782 446 762 312 762 c 0
 178 762 157 782 157 910 c 1xf6
EndSplineSet
EndChar

StartChar: Edotaccent
Encoding: 278 278 212
Width: 632
VWidth: 1024
Flags: W
HStem: 0 101<191 568> 369 97<191 538> 826 101<191 558> 1007 119<256 375>
VStem: 72 119<101 369 466 826> 256 119<1007 1126>
LayerCount: 2
Fore
SplineSet
573 51 m 1
 573 0 l 1
 191 0 l 1
 190 0 l 1
 131 0 l 1
 72 0 l 1
 72 5 l 1
 72 922 l 1
 72 927 l 1
 131 927 l 1
 190 927 l 1
 191 927 l 1
 558 927 l 1
 558 876 l 1
 558 826 l 1
 553 826 l 1
 191 826 l 1
 191 466 l 1
 534 466 l 1
 538 466 l 1
 538 417 l 1
 538 369 l 1
 534 369 l 1
 191 369 l 1
 191 101 l 1
 568 101 l 2
 568 102 568 102 570 101 c 0
 573 102 573 102 573 101 c 2
 573 51 l 1
256 1007 m 1
 256 1126 l 1
 375 1126 l 1
 375 1007 l 1
 256 1007 l 1
EndSplineSet
EndChar

StartChar: edotaccent
Encoding: 279 279 213
Width: 587
VWidth: 1024
Flags: W
HStem: -14 84<194.331 392.62> 303 98<163 331.335> 622 93<188.833 380.93> 777 119<238 357>
VStem: 59 104<101.341 303 401 601.889> 238 119<777 896> 415 94<394 590.18> 431 101<113.608 152.316>
LayerCount: 2
Fore
SplineSet
414 394 m 1xfe
 414 411 415 427 415 441 c 0
 415 591 393 622 282 622 c 2
 267 622 l 2
 184 619 163 617 163 416 c 2
 163 401 l 1
 414 394 l 1xfe
431 176 m 1xfd
 532 150 l 1xfd
 486 10 454 -14 306 -14 c 2
 296 -14 l 2
 97 -12 66 -10 60 359 c 0
 60 383 59 404 59 426 c 0
 59 706 101 709 296 714 c 0
 314 714 330 715 345 715 c 0
 483 715 509 689 509 524 c 0xfe
 509 472 507 404 504 319 c 2
 504 321 l 1
 425 317 l 1
 163 303 l 1
 168 72 188 71 296 70 c 2
 304 70 l 2
 384 70 402 86 431 176 c 1xfd
238 777 m 1
 238 896 l 1
 357 896 l 1
 357 777 l 1
 238 777 l 1
EndSplineSet
EndChar

StartChar: Eogonek
Encoding: 280 280 214
Width: 632
VWidth: 1024
Flags: W
HStem: -214 70<287.095 429.013> 0 101<191 279 303.4 568> 369 97<191 538> 826 101<191 558>
VStem: 72 119<101 369 466 826> 222 61<-138.662 -28.3821>
LayerCount: 2
Fore
SplineSet
279 0 m 1
 191 0 l 1
 190 0 l 1
 131 0 l 1
 72 0 l 1
 72 5 l 1
 72 922 l 1
 72 927 l 1
 131 927 l 1
 190 927 l 1
 191 927 l 1
 558 927 l 1
 558 876 l 1
 558 826 l 1
 553 826 l 1
 191 826 l 1
 191 466 l 1
 534 466 l 1
 538 466 l 1
 538 417 l 1
 538 369 l 1
 534 369 l 1
 191 369 l 1
 191 101 l 1
 568 101 l 2
 568 102 568 102 570 101 c 0
 573 102 573 102 573 101 c 2
 573 51 l 1
 573 0 l 1
 337 0 l 1
 314 -14 283 -39 283 -84 c 0
 283 -136 293 -144 359 -144 c 0
 408 -144 417 -142 426 -132 c 1
 437 -195 l 1
 423 -211 412 -214 353 -214 c 0
 240 -214 222 -198 222 -95 c 0
 222 -58 247 -26 279 0 c 1
EndSplineSet
EndChar

StartChar: eogonek
Encoding: 281 281 215
Width: 632
VWidth: 1024
Flags: W
HStem: -214 70<393.91 537.012> -15 96<210.81 377> 292 81<179 456> 621 90<208.251 420.305>
VStem: 60 119<112.065 292 373 592.156> 329 61<-139.634 -33.8905> 435 115<95.4402 167> 456 110<373 583.983>
LayerCount: 2
Fore
SplineSet
179 373 m 1xfd
 456 373 l 1
 455 586 446 621 313 621 c 0
 201 621 180 620 179 373 c 1xfd
445 -7 m 1
 421 -20 390 -45 390 -88 c 0
 390 -136 400 -144 467 -144 c 0
 515 -144 525 -142 534 -132 c 1
 545 -195 l 1
 531 -211 520 -214 460 -214 c 0
 347 -214 329 -198 329 -98 c 0
 329 -66 350 -38 377 -14 c 1
 355 -15 332 -15 305 -15 c 0
 93 -15 60 -13 60 348 c 0
 60 709 94 711 313 711 c 0
 557 711 566 662 566 364 c 2
 566 292 l 1xfd
 179 292 l 1
 182 82 204 81 305 81 c 0
 417 81 435 94 435 177 c 1
 550 167 l 1xfe
 550 54 533 10 445 -7 c 1
EndSplineSet
EndChar

StartChar: Ecaron
Encoding: 282 282 216
Width: 632
VWidth: 1024
Flags: W
HStem: 4 105<191 508.579> 380 99<191 538> 853 96<191 558>
VStem: 72 119<109 387 471 853>
LayerCount: 2
Fore
SplineSet
189 4 m 1
 187 4 l 1
 72 4 l 1
 72 949 l 1
 190 949 l 1
 191 949 l 1
 558 949 l 1
 558 846 l 1
 396 846 337 852 191 853 c 1
 191 471 l 1
 534 479 l 1
 538 479 l 1
 538 429 l 1
 538 380 l 1
 534 380 l 1
 191 387 l 1
 191 109 l 2
 194 110 575 119 575 119 c 1
 573 4 l 1
 189 4 l 1
299 1077 m 1
 389 1153 l 1
 489 1153 l 1
 372 1002 l 1
 262 1002 l 1
 145 1153 l 1
 245 1153 l 1
 299 1077 l 1
EndSplineSet
EndChar

StartChar: ecaron
Encoding: 283 283 217
Width: 587
VWidth: 1024
Flags: W
HStem: -14 84<194.331 392.62> 303 98<163 331.335> 622 93<188.833 380.93>
VStem: 59 104<101.341 303 401 601.889> 415 94<394 590.18> 431 101<113.608 152.316>
LayerCount: 2
Fore
SplineSet
414 394 m 1xf8
 414 411 415 427 415 441 c 0
 415 591 393 622 282 622 c 2
 267 622 l 2
 184 619 163 617 163 416 c 2
 163 401 l 1
 414 394 l 1xf8
431 176 m 1xf4
 532 150 l 1xf4
 486 10 454 -14 306 -14 c 2
 296 -14 l 2
 97 -12 66 -10 60 359 c 0
 60 383 59 404 59 426 c 0
 59 706 101 709 296 714 c 0
 314 714 330 715 345 715 c 0
 483 715 509 689 509 524 c 0xf8
 509 472 507 404 504 319 c 2
 504 321 l 1
 425 317 l 1
 163 303 l 1
 168 72 188 71 296 70 c 2
 304 70 l 2
 384 70 402 86 431 176 c 1xf4
291 863 m 1
 362 927 l 1
 463 927 l 1
 346 777 l 1
 236 777 l 1
 118 927 l 1
 218 927 l 1
 291 863 l 1
EndSplineSet
EndChar

StartChar: Gcircumflex
Encoding: 284 284 218
Width: 740
VWidth: 1024
Flags: W
HStem: -15 102<242.683 527.261> 366 101<346 570> 849 102<263.05 493.785>
VStem: 57 121<155.619 664.74> 560 107<709.31 765.722>
LayerCount: 2
Fore
SplineSet
346 366 m 1
 346 467 l 1
 672 467 l 1
 672 467 675 422 675 361 c 0
 675 292 671 204 656 135 c 0
 627 5 625 -15 391 -15 c 0
 131 -15 57 31 57 287 c 0
 57 337 60 396 65 463 c 0
 94 885 134 951 359 951 c 0
 576 951 618 919 667 712 c 1
 560 680 l 1
 525 826 498 849 359 849 c 0
 231 849 207 797 184 463 c 0
 180 404 178 354 178 311 c 0
 178 121 226 87 391 87 c 0
 525 87 535 100 552 180 c 0
 569 260 570 366 570 366 c 1
 346 366 l 1
406 1061 m 1
 332 997 l 1
 232 997 l 1
 335 1137 l 1
 460 1147 l 1
 577 997 l 1
 463 987 l 1
 406 1061 l 1
EndSplineSet
EndChar

StartChar: gcircumflex
Encoding: 285 285 219
Width: 577
VWidth: 1024
Flags: W
HStem: -261 97<116.239 370.848> 0 95<186.068 383.044> 613 88<190.464 365.083> 701 20G<418 508.5>
VStem: 66 98<114.028 585.818> 400 109<108.131 573.382 667 692> 400 99<-131.266 0 108.131 573.382>
LayerCount: 2
Fore
SplineSet
292 613 m 2xe8
 271 613 l 2
 181 613 164 604 164 344 c 0
 164 106 171 95 253 95 c 2
 282 95 l 1
 306 95 l 2
 387 95 402 103 402 304 c 0
 402 537 394 613 292 613 c 2xe8
86 -125 m 1
 86 -125 174 -164 264 -164 c 2
 271 -164 l 1
 392 -160 400 -110 400 -36 c 2
 400 0 l 1xda
 243 0 l 1
 219 0 l 2
 67 0 66 8 66 340 c 2
 66 352 l 2
 66 680 93 701 218 701 c 2
 280 701 l 1
 292 701 l 2
 358 701 371 700 400 667 c 1xec
 400 697 l 1xea
 508 721 l 2
 509 721 510 692 509 692 c 2xdc
 499 -7 l 1xda
 487 -218 486 -230 353 -256 c 0
 336 -259 317 -261 298 -261 c 0
 205 -261 94 -229 52 -220 c 1
 69 -174 64 -194 86 -125 c 1
276 823 m 1
 203 759 l 1
 103 759 l 1
 206 899 l 1
 331 909 l 1
 449 759 l 1
 334 749 l 1
 276 823 l 1
EndSplineSet
EndChar

StartChar: Gbreve
Encoding: 286 286 220
Width: 740
VWidth: 1024
Flags: W
HStem: -15 102<242.683 527.261> 366 101<346 570> 849 102<263.05 493.785> 992 77<293.454 431.421>
VStem: 57 121<155.619 664.74> 208 81<1074.63 1140> 437 81<1074.63 1140> 560 107<709.31 765.722>
LayerCount: 2
Fore
SplineSet
346 366 m 1
 346 467 l 1
 672 467 l 1
 672 467 675 422 675 361 c 0
 675 292 671 204 656 135 c 0
 627 5 625 -15 391 -15 c 0
 131 -15 57 31 57 287 c 0
 57 337 60 396 65 463 c 0
 94 885 134 951 359 951 c 0
 576 951 618 919 667 712 c 1
 560 680 l 1
 525 826 498 849 359 849 c 0
 231 849 207 797 184 463 c 0
 180 404 178 354 178 311 c 0
 178 121 226 87 391 87 c 0
 525 87 535 100 552 180 c 0
 569 260 570 366 570 366 c 1
 346 366 l 1
208 1140 m 1
 289 1140 l 1
 289 1079 299 1069 362 1069 c 0
 425 1069 437 1079 437 1140 c 1
 518 1140 l 1
 518 1012 496 992 362 992 c 0
 228 992 208 1012 208 1140 c 1
EndSplineSet
EndChar

StartChar: gbreve
Encoding: 287 287 221
Width: 577
VWidth: 1024
Flags: W
HStem: -261 97<116.239 370.848> 0 95<186.068 383.044> 613 88<190.464 365.083> 701 20G<418 508.5> 762 77<238.017 375.983>
VStem: 66 98<114.028 585.818> 152 81<844.631 910> 381 81<844.631 910> 400 109<108.131 573.382 667 692> 400 99<-131.266 0 108.131 573.382>
LayerCount: 2
Fore
SplineSet
292 613 m 2xec
 271 613 l 2
 181 613 164 604 164 344 c 0
 164 106 171 95 253 95 c 2
 282 95 l 1
 306 95 l 2
 387 95 402 103 402 304 c 0
 402 537 394 613 292 613 c 2xec
86 -125 m 1
 86 -125 174 -164 264 -164 c 2
 271 -164 l 1
 392 -160 400 -110 400 -36 c 2
 400 0 l 1xd840
 243 0 l 1
 219 0 l 2
 67 0 66 8 66 340 c 2
 66 352 l 2
 66 680 93 701 218 701 c 2
 280 701 l 1
 292 701 l 2
 358 701 371 700 400 667 c 1xec80
 400 697 l 1xe840
 508 721 l 2
 509 721 510 692 509 692 c 2xd880
 499 -7 l 1xd840
 487 -218 486 -230 353 -256 c 0
 336 -259 317 -261 298 -261 c 0
 205 -261 94 -229 52 -220 c 1
 69 -174 64 -194 86 -125 c 1
152 910 m 1xcb
 233 910 l 1
 233 849 244 839 307 839 c 0
 370 839 381 849 381 910 c 1
 462 910 l 1
 462 782 441 762 307 762 c 0
 173 762 152 782 152 910 c 1xcb
EndSplineSet
EndChar

StartChar: Gdotaccent
Encoding: 288 288 222
Width: 740
VWidth: 1024
Flags: W
HStem: -15 102<242.683 527.261> 366 101<346 570> 849 102<263.05 493.785> 1007 119<317 436>
VStem: 57 121<155.619 664.74> 317 119<1007 1126> 560 107<709.31 765.722>
LayerCount: 2
Fore
SplineSet
346 366 m 1
 346 467 l 1
 672 467 l 1
 672 467 675 422 675 361 c 0
 675 292 671 204 656 135 c 0
 627 5 625 -15 391 -15 c 0
 131 -15 57 31 57 287 c 0
 57 337 60 396 65 463 c 0
 94 885 134 951 359 951 c 0
 576 951 618 919 667 712 c 1
 560 680 l 1
 525 826 498 849 359 849 c 0
 231 849 207 797 184 463 c 0
 180 404 178 354 178 311 c 0
 178 121 226 87 391 87 c 0
 525 87 535 100 552 180 c 0
 569 260 570 366 570 366 c 1
 346 366 l 1
317 1007 m 1
 317 1126 l 1
 436 1126 l 1
 436 1007 l 1
 317 1007 l 1
EndSplineSet
EndChar

StartChar: gdotaccent
Encoding: 289 289 223
Width: 578
VWidth: 1024
Flags: W
HStem: -261 97<117.239 371.848> 0 95<187.068 384.044> 613 88<191.464 366.083> 701 20G<419 509.5> 777 115<253 368>
VStem: 67 98<114.028 585.818> 249 119<777 892> 401 109<108.131 573.382 667 692> 401 99<-131.266 0 108.131 573.382>
LayerCount: 2
Fore
SplineSet
293 613 m 2xee
 272 613 l 2
 182 613 165 604 165 344 c 0
 165 106 172 95 254 95 c 2
 283 95 l 1
 307 95 l 2
 388 95 403 103 403 304 c 0
 403 537 395 613 293 613 c 2xee
87 -125 m 1
 87 -125 175 -164 265 -164 c 2
 272 -164 l 1
 393 -160 401 -110 401 -36 c 2
 401 0 l 1xde80
 244 0 l 1
 220 0 l 2
 68 0 67 8 67 340 c 2
 67 352 l 2
 67 680 94 701 219 701 c 2
 281 701 l 1
 293 701 l 2
 359 701 372 700 401 667 c 1xef
 401 697 l 1xee80
 509 721 l 2
 510 721 511 692 510 692 c 2xdf
 500 -7 l 1xde80
 488 -218 487 -230 354 -256 c 0
 337 -259 318 -261 299 -261 c 0
 206 -261 95 -229 53 -220 c 1
 70 -174 65 -194 87 -125 c 1
249 777 m 1
 253 892 l 1
 368 896 l 1
 368 777 l 1
 249 777 l 1
EndSplineSet
EndChar

StartChar: Hcircumflex
Encoding: 292 292 224
Width: 736
VWidth: 1024
Flags: W
HStem: 388 85<186 555> 909 20G<70.0873 193>
VStem: 70 123<473 922> 72 113<2 388 473 641.094> 549 114<1 381 480 748.051> 564 94<480 927>
LayerCount: 2
Fore
SplineSet
555 381 m 1xc8
 185 388 l 1
 179 -7 l 1
 75 2 l 1
 72 469 l 1
 71 471 l 1
 72 471 l 1xd8
 70 929 l 1
 193 922 l 1
 186 473 l 1
 557 480 l 1
 564 927 l 1
 658 927 l 1xe4
 663 1 l 1
 549 -3 l 1
 555 381 l 1xc8
373 1071 m 1
 300 1007 l 1
 200 1007 l 1
 317 1157 l 1
 428 1157 l 1
 545 1007 l 1
 445 1007 l 1
 373 1071 l 1
EndSplineSet
EndChar

StartChar: Itilde
Encoding: 296 296 225
Width: 403
VWidth: 1024
Flags: W
HStem: 1 21G<221 280> 910 20G<150 268> 992 86<217.381 281.394> 1081 86<120.155 183.894>
VStem: 37 81<1007 1077.52> 150 118<235.882 924> 162 118<4 689.869> 284 81<1081.48 1152>
LayerCount: 2
Fore
SplineSet
118 1007 m 1xf9
 37 1007 l 1
 37 1145 50 1167 132 1167 c 0
 242 1167 188 1078 262 1078 c 0
 281 1078 284 1089 284 1152 c 1
 365 1152 l 1
 365 1014 352 992 269 992 c 0
 159 992 214 1081 139 1081 c 0
 121 1081 118 1070 118 1007 c 1xf9
150 919 m 1xfd
 150 930 l 1
 268 924 l 1xfd
 280 6 l 1
 280 1 l 1
 221 1 l 1
 221 3 l 1
 162 4 l 1xfb
 150 919 l 1xfd
EndSplineSet
EndChar

StartChar: itilde
Encoding: 297 297 226
Width: 421
VWidth: 1024
Flags: W
HStem: 0 21G<153 263> 677 20G<153 263> 762 86<225.058 289.324> 851 86<127.155 191.079>
VStem: 44 81<777 847.523> 153 110<0 697> 291 81<851.477 922>
CounterMasks: 1 0e
LayerCount: 2
Fore
SplineSet
153 697 m 1
 208 697 l 1
 263 697 l 1
 263 0 l 1
 153 0 l 1
 153 692 l 1
 153 697 l 1
125 777 m 1
 44 777 l 1
 44 915 57 937 139 937 c 0
 249 937 195 848 269 848 c 0
 288 848 291 859 291 922 c 1
 372 922 l 1
 372 784 360 762 278 762 c 0
 167 762 221 851 146 851 c 0
 128 851 125 840 125 777 c 1
EndSplineSet
EndChar

StartChar: Imacron
Encoding: 298 298 227
Width: 365
VWidth: 1024
Flags: W
HStem: 0 21G<123 241> 1007 76<37 327>
VStem: 123 118<0 927>
LayerCount: 2
Fore
SplineSet
182 0 m 1
 123 0 l 1
 123 5 l 1
 123 922 l 1
 123 927 l 1
 182 927 l 1
 241 927 l 1
 241 922 l 1
 241 5 l 1
 241 0 l 1
 182 0 l 1
37 1007 m 1
 37 1083 l 1
 327 1083 l 1
 327 1007 l 1
 37 1007 l 1
EndSplineSet
EndChar

StartChar: imacron
Encoding: 299 299 228
Width: 380
VWidth: 1024
Flags: W
HStem: 0 21G<132 242> 677 20G<132 242> 777 76<42 332>
VStem: 132 110<0 697>
LayerCount: 2
Fore
SplineSet
187 0 m 1
 132 0 l 1
 132 5 l 1
 132 692 l 1
 132 697 l 1
 187 697 l 1
 242 697 l 1
 242 5 l 1
 242 3 l 1
 242 0 l 1
 187 0 l 1
42 777 m 1
 42 853 l 1
 332 853 l 1
 332 777 l 1
 42 777 l 1
EndSplineSet
EndChar

StartChar: Ibreve
Encoding: 300 300 229
Width: 385
VWidth: 1024
Flags: W
HStem: 1 21G<212 271> 910 20G<141 259> 992 77<123.579 261.546>
VStem: 37 81<1074.63 1140> 141 118<235.882 924> 153 118<4 689.869> 266 81<1074.63 1140>
LayerCount: 2
Fore
SplineSet
37 1140 m 1xf2
 118 1140 l 1
 118 1079 130 1069 193 1069 c 0
 256 1069 266 1079 266 1140 c 1
 347 1140 l 1
 347 1012 327 992 193 992 c 0
 59 992 37 1012 37 1140 c 1xf2
141 919 m 1xf8
 141 930 l 1
 259 924 l 1xf8
 271 6 l 1
 271 1 l 1
 212 1 l 1
 212 3 l 1
 153 4 l 1xf4
 141 919 l 1xf8
EndSplineSet
EndChar

StartChar: ibreve
Encoding: 301 301 230
Width: 402
VWidth: 1024
Flags: W
HStem: 0 21G<144 254> 677 20G<144 254> 762 77<130.017 267.983>
VStem: 44 81<844.631 910> 144 110<0 697> 273 81<844.631 910>
CounterMasks: 1 1c
LayerCount: 2
Fore
SplineSet
199 0 m 1
 144 0 l 1
 144 5 l 1
 144 692 l 1
 144 697 l 1
 199 697 l 1
 254 697 l 1
 254 5 l 1
 254 3 l 1
 254 0 l 1
 199 0 l 1
44 910 m 1
 125 910 l 1
 125 849 136 839 199 839 c 0
 262 839 273 849 273 910 c 1
 354 910 l 1
 354 782 333 762 199 762 c 0
 65 762 44 782 44 910 c 1
EndSplineSet
EndChar

StartChar: Idotaccent
Encoding: 304 304 231
Width: 266
VWidth: 1024
Flags: W
HStem: 1 21G<137 196> 910 20G<66 184> 1017 119<65 184>
VStem: 65 119<285.89 924 1017 1136> 78 118<4 689.869>
LayerCount: 2
Fore
SplineSet
65 1017 m 1xf0
 65 1136 l 1
 184 1136 l 1
 184 1017 l 1
 65 1017 l 1xf0
66 919 m 1
 66 930 l 1
 184 924 l 1xf0
 196 6 l 1
 196 1 l 1
 137 1 l 1
 137 3 l 1
 78 4 l 1xe8
 66 919 l 1
EndSplineSet
EndChar

StartChar: dotlessi
Encoding: 305 305 232
Width: 254
VWidth: 1024
Flags: W
HStem: 0 21G<70 180> 677 20G<70 180>
VStem: 70 110<0 697>
LayerCount: 2
Fore
SplineSet
70 0 m 1
 70 697 l 1
 180 697 l 1
 180 0 l 1
 70 0 l 1
EndSplineSet
EndChar

StartChar: IJ
Encoding: 306 306 233
Width: 729
VWidth: 1024
Flags: W
HStem: -17 116<361.278 514.401>
VStem: 66 118<217.882 906> 78 118<-14 671.869> 234 118<107.811 278> 532 118<112.263 855.982> 542 118<347.521 920>
LayerCount: 2
Fore
SplineSet
234 278 m 1x98
 352 299 l 1
 352 248 l 2
 352 100 353 99 447 99 c 0
 528 99 532 124 532 283 c 2x98
 542 925 l 1
 601 925 l 1
 660 925 l 2
 661 925 661 925 660 922 c 0
 661 920 661 920 660 920 c 2x94
 650 283 l 1
 650 24 640 -17 447 -17 c 0
 235 -17 234 -16 234 215 c 2
 234 278 l 1x98
137 -15 m 1
 78 -14 l 1xb0
 66 901 l 1
 66 906 l 1
 66 912 l 1
 184 906 l 1xd0
 196 -12 l 1
 196 -17 l 1xb0
 137 -17 l 1
 137 -15 l 1
EndSplineSet
EndChar

StartChar: ij
Encoding: 307 307 234
Width: 487
VWidth: 1024
Flags: W
HStem: -172 87<213.036 310.516> 680 21G<73 193 295 418> 781 119<74 182 300 407>
VStem: 73 120<121.867 700> 73 109<8 571.133 781 867.491> 295 123<309.982 701> 300 107<785 874.2> 312 90<-80.6002 353.018>
LayerCount: 2
Fore
SplineSet
300 785 m 1xe2
 288 904 l 1
 419 904 l 1
 407 785 l 1
 300 785 l 1xe2
73 8 m 1xe8
 73 700 l 1
 193 700 l 1xf0
 182 -7 l 1
 73 8 l 1xe8
74 781 m 1
 62 900 l 1
 193 900 l 1xf0
 182 781 l 1xe8
 74 781 l 1
402 4 m 2xe1
 398 -168 401 -164 308 -172 c 0
 263 -172 213 -166 213 -166 c 1
 210 -73 l 2
 214 -79 233 -85 248 -85 c 0
 249 -85 250 -85 251 -85 c 0
 296 -81 312 -77 312 -41 c 0
 312 -40 312 -39 312 -38 c 2xe1
 295 701 l 1
 418 701 l 1xe4
 402 4 l 2xe1
EndSplineSet
EndChar

StartChar: Jcircumflex
Encoding: 308 308 235
Width: 628
VWidth: 1024
Flags: W
HStem: -15 116<188.278 341.401>
VStem: 61 118<109.811 280> 359 118<114.263 857.982> 369 118<349.521 922>
LayerCount: 2
Fore
SplineSet
61 280 m 1xe0
 179 301 l 1
 179 250 l 2
 179 102 180 101 274 101 c 0
 355 101 359 126 359 285 c 2xe0
 369 927 l 1
 428 927 l 1
 487 927 l 2
 488 927 488 927 487 924 c 0
 488 922 488 922 487 922 c 2xd0
 477 285 l 1
 477 26 467 -15 274 -15 c 0
 62 -15 61 -14 61 217 c 2
 61 280 l 1xe0
428 1071 m 1
 356 1007 l 1
 256 1007 l 1
 373 1157 l 1
 484 1157 l 1
 591 969 l 1
 507 985 l 1
 428 1071 l 1
EndSplineSet
EndChar

StartChar: Lacute
Encoding: 313 313 236
Width: 584
VWidth: 1024
Flags: W
HStem: 0 101<201 514.958> 911 20G<67.1722 185>
VStem: 67 118<460.882 923> 75 126<101 460.368>
LayerCount: 2
Fore
SplineSet
74 1007 m 1xc0
 130 1157 l 1
 273 1157 l 1
 174 1007 l 1
 74 1007 l 1xc0
210 918 m 1
 210 918 210 917 211 918 c 2
 210 918 l 1
75 2 m 1xd0
 67 931 l 1
 185 923 l 1xe0
 201 101 l 1
 459 101 515 101 515 99 c 2
 514 99 l 1
 535 0 l 1
 203 0 l 1
 203 -2 l 1
 75 2 l 1xd0
EndSplineSet
EndChar

StartChar: lacute
Encoding: 314 314 237
Width: 287
VWidth: 1024
Flags: W
HStem: 0 21G<73 183>
VStem: 73 110<0 927>
LayerCount: 2
Fore
SplineSet
128 0 m 1
 73 0 l 1
 73 5 l 1
 73 922 l 1
 73 927 l 1
 128 927 l 1
 183 927 l 1
 183 918 l 1
 183 5 l 1
 183 3 l 1
 183 0 l 1
 128 0 l 1
50 967 m 1
 106 1117 l 1
 250 1117 l 1
 150 967 l 1
 50 967 l 1
EndSplineSet
EndChar

StartChar: Lcaron
Encoding: 317 317 238
Width: 584
VWidth: 1024
Flags: W
HStem: 0 101<202 515.958> 791 150<298 378> 911 20G<68.1722 186>
VStem: 68 118<460.882 923> 76 126<101 460.368> 297 81<791 824.731>
LayerCount: 2
Fore
SplineSet
298 941 m 1xc4
 418 941 l 1
 378 791 l 1
 297 791 l 1
 298 941 l 1xc4
211 918 m 1
 211 918 211 917 212 918 c 2
 211 918 l 1
76 2 m 1xac
 68 931 l 1
 186 923 l 1xb4
 202 101 l 1
 460 101 516 101 516 99 c 2
 515 99 l 1
 536 0 l 1
 204 0 l 1
 204 -2 l 1
 76 2 l 1xac
EndSplineSet
EndChar

StartChar: lcaron
Encoding: 318 318 239
Width: 393
VWidth: 1024
Flags: W
HStem: 0 21G<72 182> 791 150<232 311>
VStem: 72 110<0 927> 230 81<791 824.731>
LayerCount: 2
Fore
SplineSet
127 0 m 1
 72 0 l 1
 72 5 l 1
 72 922 l 1
 72 927 l 1
 127 927 l 1
 182 927 l 1
 182 918 l 1
 182 5 l 1
 182 3 l 1
 182 0 l 1
 127 0 l 1
232 941 m 1
 351 941 l 1
 311 791 l 1
 230 791 l 1
 232 941 l 1
EndSplineSet
EndChar

StartChar: Ldot
Encoding: 319 319 240
Width: 584
VWidth: 1024
Flags: W
HStem: 0 101<202 515.958> 427 150<290 370> 911 20G<68.1722 186>
VStem: 68 118<460.882 923> 76 126<101 460.368> 289 81<427 460.731>
LayerCount: 2
Fore
SplineSet
290 577 m 1xe4
 410 577 l 1
 370 427 l 1
 289 427 l 1
 290 577 l 1xe4
211 918 m 1
 211 918 211 917 212 918 c 2
 211 918 l 1
76 2 m 1xec
 68 931 l 1
 186 923 l 1xf4
 202 101 l 1
 460 101 516 101 516 99 c 2
 515 99 l 1
 536 0 l 1
 204 0 l 1
 204 -2 l 1
 76 2 l 1xec
EndSplineSet
EndChar

StartChar: ldot
Encoding: 320 320 241
Width: 402
VWidth: 1024
Flags: W
HStem: 0 21G<67 177.306> 392 122<236 334.092> 910 20G<80.6973 136>
VStem: 67 110<0 587.245> 81 110<335.687 927> 236 98<392 483.449>
LayerCount: 2
Fore
SplineSet
224 514 m 1xe4
 346 522 l 1
 334 384 l 1
 236 392 l 1
 224 514 l 1xe4
122 0 m 1
 67 0 l 1
 67 5 l 1xf4
 81 930 l 1
 136 927 l 1
 191 927 l 1
 191 924 l 1
 191 914 l 1xec
 177 0 l 1xf4
 122 0 l 1
EndSplineSet
EndChar

StartChar: Lslash
Encoding: 321 321 242
Width: 635
VWidth: 1024
Flags: W
HStem: 0 101<247 579>
VStem: 129 118<101 393 510 924>
LayerCount: 2
Fore
SplineSet
49 371 m 1
 49 456 l 1
 129 478 l 1
 129 922 l 1
 129 927 l 1
 188 927 l 1
 255 924 l 1
 247 510 l 1
 413 556 l 1
 413 471 l 1
 247 425 l 1
 247 101 l 1
 247 101 392 101 490 101 c 0
 539 101 576 101 577 101 c 0
 579 102 579 102 579 101 c 2
 579 51 l 1
 579 0 l 1
 247 0 l 1
 188 0 l 1
 129 0 l 1
 129 5 l 1
 129 393 l 1
 49 371 l 1
EndSplineSet
EndChar

StartChar: lslash
Encoding: 322 322 243
Width: 374
VWidth: 1024
Flags: W
HStem: 0 21G<129 239>
VStem: 129 110<0 401 526 927>
LayerCount: 2
Fore
SplineSet
49 371 m 1
 49 456 l 1
 129 486 l 1
 129 922 l 1
 129 927 l 1
 184 927 l 1
 239 927 l 1
 239 918 l 1
 239 526 l 1
 319 556 l 1
 319 471 l 1
 239 441 l 1
 239 5 l 1
 239 3 l 1
 239 0 l 1
 184 0 l 1
 129 0 l 1
 129 5 l 1
 129 401 l 1
 49 371 l 1
EndSplineSet
EndChar

StartChar: Nacute
Encoding: 323 323 244
Width: 739
VWidth: 1024
Flags: W
HStem: 0 21G<72 196> 914 21G<72.9785 197.762 552.759 662>
VStem: 72 124<0 662> 544 122<186 925> 553 109<186.416 925>
LayerCount: 2
Fore
SplineSet
553 934 m 1xe8
 662 925 l 1xe8
 666 -1 l 1
 499 -7 l 1
 194 662 l 1
 196 5 l 1
 196 0 l 1
 72 0 l 1
 72 5 l 1
 73 935 l 1
 204 914 l 1
 544 186 l 1xf0
 553 934 l 1xe8
304 1005 m 1
 361 1155 l 1
 504 1155 l 1
 404 1005 l 1
 304 1005 l 1
EndSplineSet
EndChar

StartChar: nacute
Encoding: 324 324 245
Width: 569
VWidth: 1024
Flags: W
HStem: 617 97<179.066 383.938>
VStem: 70 108<6 611.423 691 707> 397 99<2 602.853>
LayerCount: 2
Fore
SplineSet
203 777 m 1
 259 927 l 1
 402 927 l 1
 303 777 l 1
 203 777 l 1
390 2 m 1
 397 502 l 1
 397 517 l 2
 397 612 377 617 271 617 c 0
 220 617 192 613 178 595 c 1
 175 6 l 1
 69 -7 l 1
 70 728 l 1
 178 707 l 1
 178 691 l 1
 209 709 256 714 329 714 c 0
 473 714 495 704 496 502 c 2
 499 -11 l 1
 390 2 l 1
EndSplineSet
EndChar

StartChar: Ncaron
Encoding: 327 327 246
Width: 739
VWidth: 1024
Flags: W
HStem: 0 21G<72 196> 914 21G<72.9785 197.762 552.759 662>
VStem: 72 124<0 662> 544 122<186 925> 553 109<186.416 925>
LayerCount: 2
Fore
SplineSet
372 1093 m 1xe0
 445 1157 l 1
 545 1157 l 1
 428 1007 l 1
 317 1007 l 1
 200 1157 l 1
 300 1157 l 1
 372 1093 l 1xe0
553 934 m 1xe8
 662 925 l 1xe8
 666 -1 l 1
 499 -7 l 1
 194 662 l 1
 196 5 l 1
 196 0 l 1
 72 0 l 1
 72 5 l 1
 73 935 l 1
 204 914 l 1
 544 186 l 1xf0
 553 934 l 1xe8
EndSplineSet
EndChar

StartChar: ncaron
Encoding: 328 328 247
Width: 556
VWidth: 1024
Flags: W
HStem: 0 21G<68 178 374 484> 600 105<189.329 364.566>
VStem: 68 110<0 588.095 672 697> 374 110<0 592.96>
LayerCount: 2
Fore
SplineSet
429 0 m 1
 374 0 l 1
 374 5 l 1
 374 492 l 2
 374 595 362 600 285 600 c 0
 192 600 178 586 178 499 c 2
 178 5 l 1
 178 0 l 1
 123 0 l 1
 68 0 l 1
 68 5 l 1
 68 692 l 1
 68 697 l 1
 96 697 l 1
 123 697 l 1
 178 697 l 1
 178 687 l 1
 178 672 l 1
 206 698 252 705 329 705 c 0
 463 705 484 694 484 492 c 2
 484 5 l 1
 484 0 l 1
 429 0 l 1
276 863 m 1
 348 927 l 1
 449 927 l 1
 331 777 l 1
 221 777 l 1
 104 927 l 1
 204 927 l 1
 276 863 l 1
EndSplineSet
EndChar

StartChar: napostrophe
Encoding: 329 329 248
Width: 673
VWidth: 1024
Flags: W
HStem: 609 97<282.066 486.938> 700 20G<172.973 275.857>
VStem: 173 108<-2 603.423 683 699> 500 99<-4 594.853>
LayerCount: 2
Fore
SplineSet
43 787 m 1x30
 104 801 l 1
 141 641 l 1
 63 621 l 1
 43 787 l 1x30
493 -4 m 1
 500 494 l 1
 500 509 l 2
 500 604 480 609 374 609 c 0xb0
 323 609 295 605 281 587 c 1
 278 -2 l 1
 172 -15 l 1
 173 720 l 1x70
 281 699 l 1
 281 683 l 1
 312 701 359 706 432 706 c 0xb0
 576 706 598 696 599 494 c 2
 602 -15 l 1
 493 -4 l 1
EndSplineSet
EndChar

StartChar: Omacron
Encoding: 332 332 249
Width: 777
VWidth: 1024
Flags: W
HStem: -15 102<258.565 520.268> 840 101<262.409 495.139> 1002 81<231 522>
VStem: 59 127<172.229 741.246> 585 127<151.647 687.805>
LayerCount: 2
Fore
SplineSet
59 463 m 0
 59 856 117 941 383 941 c 0
 631 941 689 856 708 463 c 0
 710 410 712 363 712 321 c 0
 712 40 650 -15 413 -15 c 2
 383 -15 l 1
 103 -9 59 56 59 463 c 0
383 87 m 2
 398 87 l 2
 544 87 585 127 585 334 c 0
 585 372 583 414 581 463 c 0
 566 773 531 840 383 840 c 0
 221 840 186 773 186 463 c 0
 186 141 213 90 383 87 c 2
231 1002 m 1
 231 1083 l 1
 522 1083 l 1
 522 1007 l 1
 231 1002 l 1
EndSplineSet
EndChar

StartChar: omacron
Encoding: 333 333 250
Width: 623
VWidth: 1024
Flags: W
HStem: -15 86<208.964 406.238> 626 85<209.762 407.036> 777 76<163 453>
VStem: 60 119<101.284 600.075> 437 119<100.476 595.183>
LayerCount: 2
Fore
SplineSet
60 348 m 0
 60 709 93 711 308 711 c 0
 555 711 556 662 556 348 c 0
 556 -13 523 -15 308 -15 c 0
 61 -15 60 34 60 348 c 0
308 71 m 0
 420 71 437 72 437 348 c 0
 437 589 436 626 308 626 c 0
 196 626 179 626 179 348 c 0
 179 108 180 71 308 71 c 0
163 777 m 1
 163 853 l 1
 453 853 l 1
 453 777 l 1
 163 777 l 1
EndSplineSet
EndChar

StartChar: Obreve
Encoding: 334 334 251
Width: 777
VWidth: 1024
Flags: W
HStem: -15 102<257.694 522.556> 840 101<262.409 495.139> 990 77<278.07 415.983>
VStem: 59 127<174.64 741.246> 193 80<1072.63 1138> 421 81<1072.63 1138> 585 127<151.647 687.805>
LayerCount: 2
Fore
SplineSet
186 463 m 0
 186 133 213 87 398 87 c 0
 544 87 585 127 585 334 c 0
 585 372 583 414 581 463 c 0
 566 773 531 840 383 840 c 0
 221 840 186 773 186 463 c 0
413 -15 m 0
 109 -15 59 42 59 463 c 0
 59 856 117 941 383 941 c 0
 631 941 689 856 708 463 c 0
 710 410 712 363 712 321 c 0
 712 40 650 -15 413 -15 c 0
193 1138 m 1
 273 1138 l 1
 273 1077 284 1067 347 1067 c 0
 410 1067 421 1077 421 1138 c 1
 502 1138 l 1
 502 1010 481 990 347 990 c 0
 213 990 193 1010 193 1138 c 1
EndSplineSet
EndChar

StartChar: obreve
Encoding: 335 335 252
Width: 623
VWidth: 1024
Flags: W
HStem: -15 86<208.964 406.238> 626 85<209.762 407.036> 762 77<239.017 376.983>
VStem: 60 119<101.284 600.075> 153 81<844.631 910> 382 81<844.631 910> 437 119<100.476 595.183>
LayerCount: 2
Fore
SplineSet
60 348 m 0xf2
 60 709 93 711 308 711 c 0
 555 711 556 662 556 348 c 0
 556 -13 523 -15 308 -15 c 0
 61 -15 60 34 60 348 c 0xf2
308 71 m 0
 420 71 437 72 437 348 c 0
 437 589 436 626 308 626 c 0
 196 626 179 626 179 348 c 0
 179 108 180 71 308 71 c 0
153 910 m 1xec
 234 910 l 1
 234 849 245 839 308 839 c 0
 371 839 382 849 382 910 c 1
 463 910 l 1
 463 782 442 762 308 762 c 0
 174 762 153 782 153 910 c 1xec
EndSplineSet
EndChar

StartChar: OE
Encoding: 338 338 253
Width: 1065
VWidth: 1024
Flags: W
HStem: -10 103<273.998 419 506 506 691.978 1007> 375 84<625 967> 840 101<284.024 506 625 992>
VStem: 59 127<198.17 717.182> 506 119<96 375 459 839>
LayerCount: 2
Fore
SplineSet
419 941 m 1
 992 939 l 1
 992 836 l 1
 830 836 771 842 625 843 c 1
 625 459 l 1
 972 467 l 1
 972 417 l 1
 967 368 l 1
 625 375 l 1
 625 96 l 1
 778 96 983 104 1005 104 c 2
 1007 104 l 1
 1007 48 l 1
 1007 -10 l 1
 506 -10 l 2
 482 -9 453 -9 419 -9 c 0
 117 -9 59 86 59 411 c 2
 59 465 l 1
 65 833 113 941 403 941 c 2
 419 941 l 1
506 93 m 1
 506 839 l 1
 482 839 454 839 419 840 c 2
 409 840 l 2
 222 840 191 754 186 465 c 1
 186 414 l 2
 186 166 225 93 419 93 c 2
 506 93 l 1
EndSplineSet
EndChar

StartChar: oe
Encoding: 339 339 254
Width: 946
VWidth: 1024
Flags: W
HStem: -14 84<551.514 750.62> -10 94<206.481 410.643> 303 98<537 689.335> 317 77<689.522 788> 617 91<204.444 408.125 556.44 759.812>
VStem: 60 119<108.477 595.275> 417 120<401 601.889> 418 103<100.552 303> 790 100<113.608 152.339> 790 77<394 586.312>
LayerCount: 2
Fore
SplineSet
788 394 m 1x1e40
 788 411 790 427 790 441 c 0
 790 591 767 622 656 622 c 2
 641 622 l 2
 558 619 537 617 537 416 c 2
 537 401 l 1x2e40
 788 394 l 1x1e40
427 170 m 1
 422 219 419 280 418 359 c 0x4d
 418 384 417 408 417 430 c 0
 417 479 419 519 422 552 c 1
 416 606 390 617 298 617 c 2
 276 617 l 2
 193 617 179 598 179 355 c 0
 179 85 195 84 298 84 c 2
 319 84 l 2x4e
 393 84 418 87 427 170 c 1
790 176 m 1xad40
 890 150 l 1
 844 10 812 -14 664 -14 c 2
 654 -14 l 2xac80
 567 -13 512 -12 477 20 c 1
 448 -6 396 -10 298 -10 c 0
 92 -10 60 -7 60 355 c 0
 60 677 86 708 246 708 c 0
 262 708 279 707 298 707 c 0
 389 706 442 701 474 683 c 1
 510 710 566 712 654 714 c 0
 672 714 688 715 703 715 c 0
 841 715 867 689 867 525 c 0
 867 473 865 406 862 321 c 1
 783 317 l 1x5c40
 521 303 l 1
 526 72 546 71 654 70 c 2
 662 70 l 2
 742 70 761 86 790 176 c 1xad40
EndSplineSet
EndChar

StartChar: Racute
Encoding: 340 340 255
Width: 655
VWidth: 1024
Flags: W
HStem: 347 97<189 327> 845 82<192.845 445.333>
VStem: 71 118<3 347 444 834.891> 460 118<463.201 833.404>
LayerCount: 2
Fore
SplineSet
189 444 m 1
 329 444 l 2
 454 444 460 454 460 649 c 0
 460 835 456 845 376 845 c 0
 292 845 251 837 190 833 c 1
 189 444 l 1
603 5 m 1
 605 0 l 1
 470 -5 l 1
 327 347 l 1
 324 347 l 1
 189 347 l 1
 189 -8 l 1
 71 3 l 1
 71 927 l 1
 325 927 l 2
 566 927 578 914 578 649 c 0
 578 411 570 360 429 350 c 1
 603 5 l 1
275 1007 m 1
 331 1157 l 1
 474 1157 l 1
 375 1007 l 1
 275 1007 l 1
EndSplineSet
EndChar

StartChar: racute
Encoding: 341 341 256
Width: 448
VWidth: 1024
Flags: W
HStem: 610 98<221.954 393>
VStem: 68 107<-2 570.766 675 705>
LayerCount: 2
Fore
SplineSet
393 706 m 1
 393 608 l 1
 382 609 369 610 355 610 c 0
 283 610 182 588 175 525 c 1
 179 -2 l 1
 70 -9 l 1
 68 725 l 1
 175 705 l 1
 175 675 l 1
 198 695 301 708 361 708 c 0
 374 708 385 707 393 706 c 1
177 777 m 1
 233 927 l 1
 376 927 l 1
 278 777 l 1
 177 777 l 1
EndSplineSet
EndChar

StartChar: Rcaron
Encoding: 344 344 257
Width: 655
VWidth: 1024
Flags: W
HStem: 347 97<189 327> 845 82<192.845 445.333>
VStem: 71 118<3 347 444 834.891> 460 118<463.201 833.404>
LayerCount: 2
Fore
SplineSet
189 444 m 1
 329 444 l 2
 454 444 460 454 460 649 c 0
 460 835 456 845 376 845 c 0
 292 845 251 837 190 833 c 1
 189 444 l 1
603 5 m 1
 605 0 l 1
 470 -5 l 1
 327 347 l 1
 324 347 l 1
 189 347 l 1
 189 -8 l 1
 71 3 l 1
 71 927 l 1
 325 927 l 2
 566 927 578 914 578 649 c 0
 578 411 570 360 429 350 c 1
 603 5 l 1
325 1093 m 1
 397 1157 l 1
 497 1157 l 1
 380 1007 l 1
 269 1007 l 1
 152 1157 l 1
 252 1157 l 1
 325 1093 l 1
EndSplineSet
EndChar

StartChar: rcaron
Encoding: 345 345 258
Width: 441
VWidth: 1024
Flags: W
HStem: 598 88<226.096 362.551> 701 20G<78.9457 164.6>
VStem: 77 109<-8 561.178 657 696>
LayerCount: 2
Fore
SplineSet
360 596 m 1
 351 597 341 598 330 598 c 0
 268 598 193 573 186 507 c 1
 186 -8 l 1
 77 -15 l 1
 79 721 l 1
 186 696 l 1
 186 695 l 1
 186 686 l 1
 186 657 l 1
 208 677 274 686 323 686 c 0
 336 686 349 686 358 684 c 2
 391 683 l 1
 360 596 l 1
222 863 m 1
 294 927 l 1
 394 927 l 1
 278 777 l 1
 166 777 l 1
 49 927 l 1
 150 927 l 1
 222 863 l 1
EndSplineSet
EndChar

StartChar: Sacute
Encoding: 346 346 259
Width: 662
VWidth: 1024
Flags: W
HStem: -2 104<191.883 459.173> 722 21G<464.5 535> 831 111<200.163 444.499>
VStem: 56 101<138.543 212.405> 58 112<554.03 803.044> 481 117<122.366 357.849>
LayerCount: 2
Fore
SplineSet
61 180 m 0xec
 59 190 58 200 56 210 c 1
 157 237 l 1xf4
 176 119 195 102 281 102 c 0
 309 102 343 103 386 104 c 0
 474 106 470 126 479 251 c 0
 480 265 481 278 481 289 c 0
 481 365 450 376 307 406 c 0
 71 455 65 471 59 690 c 0
 59 703 58 716 58 728 c 0
 58 911 105 941 303 941 c 0
 342 941 374 942 401 942 c 0
 505 942 532 926 584 773 c 0
 586 768 587 763 589 758 c 1
 535 740 l 1
 481 722 l 1
 448 822 432 831 365 831 c 0
 348 831 328 831 303 831 c 0
 200 831 170 810 170 686 c 0
 170 673 170 657 171 641 c 0
 175 544 182 537 393 493 c 0
 569 457 598 444 598 307 c 0
 598 293 597 278 597 261 c 0
 591 56 584 6 350 1 c 0
 299 0 258 -2 224 -2 c 0
 118 -2 89 20 61 180 c 0xec
268 1007 m 1
 324 1157 l 1
 467 1157 l 1
 368 1007 l 1
 268 1007 l 1
EndSplineSet
EndChar

StartChar: sacute
Encoding: 347 347 260
Width: 566
VWidth: 1024
Flags: W
HStem: -7 90<179.294 377.333> 618 87<201.539 375.022>
VStem: 389 99<478 608.316>
LayerCount: 2
Fore
SplineSet
239 777 m 1
 295 927 l 1
 438 927 l 1
 339 777 l 1
 239 777 l 1
486 591 m 0
 488 571 488 554 488 539 c 0
 488 508 486 486 486 461 c 1
 471 464 455 466 440 469 c 2
 389 478 l 1
 389 615 377 618 305 618 c 2
 289 618 l 2
 204 618 191 605 191 516 c 4
 191 441 196 427 300 397 c 0
 493 341 490 316 503 190 c 4
 520.447066362 20.8976644888 474 -7 286 -7 c 2
 249 -7 l 2
 109 -7 57 -3 57 131 c 0
 57 144 54 160 52 177 c 1
 164 187 l 1
 172 86 186 83 267 83 c 2
 286 83 l 2
 379 83 393 96 393 180 c 4
 393 254 387 267 274 300 c 0
 96 352 72.8602367353 376.765338351 87 507 c 4
 106 682 114 705 289 705 c 2
 324 705 l 2
 434 705 478 668 486 591 c 0
EndSplineSet
EndChar

StartChar: Scircumflex
Encoding: 348 348 261
Width: 674
VWidth: 1024
Flags: W
HStem: -16 109<215.263 467.768> 831 111<204.13 424.499>
VStem: 61 122<124.324 207.11 587.873 808.768> 490 119<115.607 360.375>
LayerCount: 2
Fore
SplineSet
60 176 m 0
 58 186 57 196 55 206 c 1
 177 249 l 1
 200 107 216 93 288 93 c 0
 306 93 328 94 354 94 c 0
 484 94 490 116 490 255 c 0
 490 364 482 372 316 417 c 0
 73 483 61 495 61 674 c 0
 61 905 94 941 305 941 c 0
 342 941 372 942 398 942 c 0
 499 942 524 922 590 725 c 1
 534 706 l 1
 478 687 l 1
 433 819 418 831 358 831 c 0
 343 831 327 831 305 831 c 0
 199 831 183 812 183 687 c 0
 183 586 191 579 348 537 c 0
 596 469 609 456 609 260 c 0
 609 22 597 -15 354 -15 c 0
 310 -15 273 -16 242 -16 c 0
 121 -16 91 2 60 176 c 0
323 1071 m 1
 251 1007 l 1
 150 1007 l 1
 268 1157 l 1
 378 1157 l 1
 495 1007 l 1
 395 1007 l 1
 323 1071 l 1
EndSplineSet
EndChar

StartChar: Scedilla
Encoding: 350 350 262
Width: 674
VWidth: 1024
Flags: W
HStem: -248 53<324.427 399.751> -104 55<349.337 399.795> -16 109<213.696 317 358 462.209> 831 111<204.13 424.499>
VStem: 61 122<124.324 207.11 587.873 808.768> 401 62<-194.023 -104.889> 490 119<115.818 360.375>
LayerCount: 2
Fore
SplineSet
349 -52 m 1
 354 -50 362 -49 373 -49 c 0
 451 -49 463 -63 463 -150 c 0
 463 -235 450 -248 364 -248 c 0
 303 -248 290 -240 273 -190 c 1
 319 -155 l 1
 331 -190 337 -195 361 -195 c 0
 396 -195 401 -189 401 -150 c 0
 401 -110 396 -104 364 -104 c 0
 342 -104 335 -106 332 -116 c 2
 331 -120 l 1
 296 -100 l 1
 317 -15 l 1
 288 -15 262 -16 240 -16 c 0
 121 -16 91 2 60 176 c 0
 58 186 57 196 55 206 c 1
 177 249 l 1
 200 107 216 93 288 93 c 0
 306 93 328 94 354 94 c 0
 484 94 490 116 490 255 c 0
 490 364 482 372 316 417 c 0
 73 483 61 495 61 674 c 0
 61 905 94 941 305 941 c 0
 342 941 372 942 398 942 c 0
 499 942 524 922 590 725 c 1
 534 706 l 1
 478 687 l 1
 433 819 418 831 358 831 c 0
 343 831 327 831 305 831 c 0
 199 831 183 812 183 687 c 0
 183 586 191 579 348 537 c 0
 596 469 609 456 609 260 c 0
 609 23 597 -15 358 -15 c 1
 349 -52 l 1
EndSplineSet
EndChar

StartChar: scedilla
Encoding: 351 351 263
Width: 568
VWidth: 1024
Flags: W
HStem: -248 53<256.516 332.451> -104 55<281.282 332.791> -7 90<176.796 253 293 380.427> 618 87<206.374 375.655>
VStem: 53 112<131.612 177> 88 105<429.423 606.446> 334 62<-194.023 -104.889> 390 100<470 604.659> 394 110<93.8938 264.363>
LayerCount: 2
Fore
SplineSet
281 -52 m 1xf480
 287 -50 294 -49 306 -49 c 0
 384 -49 396 -63 396 -150 c 0
 396 -235 383 -248 296 -248 c 0
 235 -248 223 -240 206 -190 c 1
 251 -155 l 1
 263 -190 269 -195 294 -195 c 0
 329 -195 334 -189 334 -150 c 0xf2
 334 -110 329 -104 296 -104 c 0
 272 -104 267 -106 263 -120 c 1
 229 -100 l 1
 253 -7 l 1
 110 -7 58 -4 58 131 c 0
 58 144 55 160 53 177 c 1
 165 177 l 1
 172 88 184 83 241 83 c 0
 249 83 258 83 268 83 c 2
 287 83 l 2
 380 83 394 96 394 180 c 0xf880
 394 254 388 267 275 300 c 0
 97 352 88 376 88 507 c 0
 88 677 115 705 290 705 c 2
 325 705 l 2
 435 705 474 699 487 590 c 0
 490 568 490 547 490 518 c 0
 490 504 490 488 490 470 c 1
 474 470 456 469 441 469 c 2
 390 469 l 1xf5
 390 606 378 618 306 618 c 2
 290 618 l 2
 205 618 193 605 193 516 c 0
 193 441 197 427 301 397 c 0
 494 341 504 318 504 190 c 0
 504 22 476 -6 293 -7 c 1
 281 -52 l 1xf480
EndSplineSet
EndChar

StartChar: Scaron
Encoding: 352 352 264
Width: 662
VWidth: 1024
Flags: W
HStem: -2 104<191.883 459.173> 722 21G<464.5 535> 831 111<200.163 444.499>
VStem: 56 101<138.543 212.405> 58 112<554.03 803.044> 481 117<122.366 357.849>
LayerCount: 2
Fore
SplineSet
61 180 m 0xec
 59 190 58 200 56 210 c 1
 157 237 l 1xf4
 176 119 195 102 281 102 c 0
 309 102 343 103 386 104 c 0
 474 106 470 126 479 251 c 0
 480 265 481 278 481 289 c 0
 481 365 450 376 307 406 c 0
 71 455 65 471 59 690 c 0
 59 703 58 716 58 728 c 0
 58 911 105 941 303 941 c 0
 342 941 374 942 401 942 c 0
 505 942 532 926 584 773 c 0
 586 768 587 763 589 758 c 1
 535 740 l 1
 481 722 l 1
 448 822 432 831 365 831 c 0
 348 831 328 831 303 831 c 0
 200 831 170 810 170 686 c 0
 170 673 170 657 171 641 c 0
 175 544 182 537 393 493 c 0
 569 457 598 444 598 307 c 0
 598 293 597 278 597 261 c 0
 591 56 584 6 350 1 c 0
 299 0 258 -2 224 -2 c 0
 118 -2 89 20 61 180 c 0xec
318 1093 m 1
 390 1157 l 1
 490 1157 l 1
 373 1007 l 1
 269 1015 l 1
 145 1157 l 1
 246 1157 l 1
 318 1093 l 1
EndSplineSet
EndChar

StartChar: scaron
Encoding: 353 353 265
Width: 565
VWidth: 1024
Flags: W
HStem: -7 80<178.836 367.506> 615 91<192.136 386.828>
VStem: 85 92<439.438 601.387> 391 110<97.7516 274.822> 397 87<543.01 606.042>
LayerCount: 2
Fore
SplineSet
55 132 m 2xf0
 53 145 52 160 50 177 c 1
 106 182 l 1
 162 187 l 1
 171 79 170 73 268 73 c 0
 361 73 391 96 391 180 c 2
 391 202 l 2xf0
 391 265 386 278 284 300 c 0
 106 335 85 360 85 507 c 0
 85 677 112 706 287 706 c 2
 312 706 l 2
 430 706 471 703 484 591 c 1
 484 590 l 1
 488 557 488 543 488 543 c 1
 397 526 l 1
 397 535 l 2xe8
 397 613 372 615 300 615 c 2
 285 615 l 2
 200 615 177 607 177 518 c 0
 177 434 215 419 319 397 c 0
 492 363 501 339 501 231 c 2
 501 190 l 2
 501 20 472 -7 284 -7 c 2
 247 -7 l 2
 107 -7 73 -2 55 131 c 1
 55 132 l 2xf0
289 869 m 1
 371 927 l 1
 471 927 l 1
 354 777 l 1
 243 777 l 1
 126 927 l 1
 226 927 l 1
 289 869 l 1
EndSplineSet
EndChar

StartChar: Tcaron
Encoding: 356 356 266
Width: 681
VWidth: 1024
Flags: W
HStem: 841 86<50 632>
VStem: 282 118<4 831>
LayerCount: 2
Fore
SplineSet
341 0 m 1
 341 -4 l 1
 282 -4 l 1
 282 1 l 1
 282 835 l 1
 46 841 l 1
 46 884 l 1
 48 884 l 1
 50 927 l 1
 282 927 l 1
 400 927 l 1
 632 927 l 1
 632 876 l 1
 632 826 l 1
 627 826 l 1
 400 831 l 1
 400 9 l 1
 400 4 l 1
 341 0 l 1
353 1083 m 1
 413 1157 l 1
 513 1157 l 1
 396 1007 l 1
 286 1007 l 1
 169 1157 l 1
 269 1157 l 1
 353 1083 l 1
EndSplineSet
EndChar

StartChar: tcaron
Encoding: 357 357 267
Width: 439
VWidth: 1024
Flags: W
HStem: -9 93<239.449 346.553> 611 86<59.5725 132 238 357> 791 150<278 357>
VStem: 132 106<84.9214 611 697 878> 276 81<791 825.596>
LayerCount: 2
Fore
SplineSet
357 697 m 1
 357 607 l 1
 238 611 l 1
 238 150 l 2
 241 93 237 84 250 84 c 0
 253 84 257 85 262 85 c 2
 356 94 l 1
 357 -9 l 1
 212 -9 l 1
 178 -9 l 2
 119 -9 140 -1 132 121 c 1
 132 614 l 1
 45 617 l 1
 45 697 l 1
 132 697 l 1
 132 878 l 1
 238 887 l 1
 238 697 l 1
 357 697 l 1
278 941 m 1
 396 941 l 1
 357 791 l 1
 276 791 l 1
 278 941 l 1
EndSplineSet
EndChar

StartChar: Utilde
Encoding: 360 360 268
Width: 707
VWidth: 1024
Flags: W
HStem: -15 116<221.198 478.336> 978 85<367.757 431.827> 1067 85<270.173 334.243>
VStem: 67 119<140.86 927> 187 81<992 1066.89> 434 81<1063.11 1138> 511 124<140.86 927>
LayerCount: 2
Fore
SplineSet
67 922 m 1xfa
 67 927 l 1
 126 927 l 1
 186 927 l 1
 186 924 l 1
 186 922 l 1
 185 380 l 2
 185 115 193 101 351 101 c 0
 503 101 511 115 511 381 c 2
 511 922 l 1
 511 927 l 1
 573 927 l 1
 635 927 l 1
 635 922 l 1
 635 359 l 2
 635 3 621 -15 351 -15 c 0
 81 -15 67 3 67 359 c 2
 67 922 l 1xfa
268 992 m 1
 187 992 l 1
 187 1130 200 1152 282 1152 c 0
 393 1152 338 1063 412 1063 c 0
 431 1063 434 1073 434 1138 c 1
 515 1138 l 1xfc
 515 1000 502 978 420 978 c 0
 309 978 364 1067 290 1067 c 0
 271 1067 268 1057 268 992 c 1
EndSplineSet
EndChar

StartChar: utilde
Encoding: 361 361 269
Width: 556
VWidth: 1024
Flags: W
HStem: -15 105<179.556 361.375> 689 12G<65.9602 174 375 483.028> 762 86<271.62 335.827> 851 86<174.155 237.921>
VStem: 65 110<96.6526 685> 91 81<777 847.523> 338 81<851.477 922> 375 109<-15 25 103.949 693>
LayerCount: 2
Fore
SplineSet
172 777 m 1xf6
 91 777 l 1
 91 915 104 937 186 937 c 0
 296 937 242 848 316 848 c 0
 335 848 338 859 338 922 c 1
 419 922 l 1
 419 784 406 762 324 762 c 0
 213 762 268 851 193 851 c 0
 175 851 172 840 172 777 c 1xf6
375 210 m 2xf9
 375 693 l 1
 483 709 l 1
 484 -5 l 1
 484 -15 l 1
 381 -38 l 1
 375 5 l 1
 375 25 l 1
 351 -7 339 -15 264 -15 c 0
 76 -15 65 -5 65 198 c 2
 66 701 l 1
 174 685 l 1
 175 198 l 1
 175 150 l 2
 175 93 183 90 268 90 c 0
 361 90 375 106 375 210 c 2xf9
EndSplineSet
EndChar

StartChar: Umacron
Encoding: 362 362 270
Width: 708
VWidth: 1024
Flags: W
HStem: -15 116<221.198 478.336> 992 77<206 496>
VStem: 67 119<140.86 927> 511 124<140.86 927>
LayerCount: 2
Fore
SplineSet
67 922 m 1
 67 927 l 1
 126 927 l 1
 186 927 l 1
 186 924 l 1
 186 922 l 1
 185 380 l 2
 185 115 193 101 351 101 c 0
 503 101 511 115 511 381 c 2
 511 922 l 1
 511 927 l 1
 573 927 l 1
 635 927 l 1
 635 922 l 1
 635 359 l 2
 635 3 621 -15 351 -15 c 0
 81 -15 67 3 67 359 c 2
 67 922 l 1
206 992 m 1
 206 1069 l 1
 496 1069 l 1
 496 992 l 1
 206 992 l 1
EndSplineSet
EndChar

StartChar: umacron
Encoding: 363 363 271
Width: 560
VWidth: 1024
Flags: W
HStem: -15 105<181.408 363.199> 0 21G<377 487> 677 20G<68 178 377 487> 777 76<133 423>
VStem: 68 110<94.7138 697> 377 110<0 25 102.749 697>
LayerCount: 2
Fore
SplineSet
432 697 m 1xbc
 487 697 l 1
 487 10 l 1
 487 5 l 1
 487 0 l 1
 432 0 l 1
 377 0 l 1x7c
 377 10 l 1
 377 25 l 1
 353 -7 309 -15 234 -15 c 0
 80 -15 67 -8 67 105 c 0
 67 130 68 161 68 198 c 2
 68 692 l 1
 68 697 l 1
 123 697 l 1
 178 697 l 1
 178 198 l 1
 178 150 l 2
 178 93 186 90 271 90 c 0
 363 90 377 106 377 210 c 2
 377 692 l 1
 377 697 l 1
 432 697 l 1xbc
133 777 m 1
 133 853 l 1
 423 853 l 1
 423 777 l 1
 133 777 l 1
EndSplineSet
EndChar

StartChar: Ubreve
Encoding: 364 364 272
Width: 706
VWidth: 1024
Flags: W
HStem: -15 116<221.198 469.607> 909 20G<67.9651 184 502 635.93> 978 76<281.047 418.224>
VStem: 67 118<140.86 908> 194 81<1059.33 1126> 423 81<1060.63 1126> 510 124<150.375 921>
LayerCount: 2
Fore
SplineSet
184 910 m 2
 185 908 184 908 184 908 c 1
 185 380 l 2
 185 115 193 101 351 101 c 0
 490 101 498 115 510 381 c 1
 502 921 l 1
 636 929 l 1
 634 359 l 1
 618 3 604 -15 351 -15 c 0
 81 -15 67 3 67 359 c 2
 68 932 l 1
 184 913 l 2
 185 913 184 910 184 910 c 2
194 1126 m 1
 275 1126 l 1
 275 1064 286 1054 349 1054 c 0
 412 1054 423 1064 423 1126 c 1
 504 1126 l 1
 504 998 459 978 325 978 c 0
 197 978 194 996 194 1110 c 2
 194 1126 l 1
EndSplineSet
EndChar

StartChar: ubreve
Encoding: 365 365 273
Width: 556
VWidth: 1024
Flags: W
HStem: -15 105<179.556 361.375> 689 12G<65.9602 174 375 483.028> 762 77<207.027 342.57>
VStem: 65 110<96.6526 685> 120 81<844.631 910> 349 81<845.221 910> 375 109<-15 25 103.949 693>
LayerCount: 2
Fore
SplineSet
375 210 m 2xf2
 375 693 l 1
 483 709 l 1
 484 -11 l 1
 484 -15 l 1
 381 -38 l 1
 375 5 l 1
 375 15 l 1
 375 25 l 1
 351 -7 339 -15 264 -15 c 0
 76 -15 65 -5 65 198 c 2
 66 701 l 1
 174 685 l 1
 175 198 l 1
 175 150 l 2
 175 93 183 90 268 90 c 0
 361 90 375 106 375 210 c 2xf2
120 910 m 1xec
 201 910 l 1
 201 849 212 839 275 839 c 0
 338 839 349 849 349 910 c 1
 430 910 l 1
 430 904 l 2
 430 781 429 762 297 762 c 0
 163 762 120 782 120 910 c 1xec
EndSplineSet
EndChar

StartChar: Uring
Encoding: 366 366 274
Width: 706
VWidth: 1024
Flags: W
HStem: -15 116<221.198 469.607> 909 20G<67.9651 184 502 635.93> 992 51<316.87 380.376> 1116 51<316.213 381.234>
VStem: 67 118<140.86 908> 264 52<1043.23 1115.33> 382 57<1043.21 1115.36> 510 124<150.375 921>
LayerCount: 2
Fore
SplineSet
184 910 m 2
 185 908 184 908 184 908 c 1
 185 380 l 2
 185 115 193 101 351 101 c 0
 490 101 498 115 510 381 c 1
 502 921 l 1
 636 929 l 1
 634 359 l 1
 618 3 604 -15 351 -15 c 0
 81 -15 67 3 67 359 c 2
 68 932 l 1
 184 913 l 2
 185 913 184 910 184 910 c 2
264 1080 m 0
 264 1159 272 1167 351 1167 c 0
 431 1167 439 1159 439 1080 c 0
 439 996 435 992 351 992 c 0
 268 992 264 996 264 1080 c 0
349 1043 m 0
 380 1043 382 1045 382 1080 c 0
 382 1113 379 1116 349 1116 c 0
 319 1116 316 1113 316 1080 c 0
 316 1045 318 1043 349 1043 c 0
EndSplineSet
EndChar

StartChar: uring
Encoding: 367 367 275
Width: 556
VWidth: 1024
Flags: W
HStem: -15 105<179.556 361.375> 689 12G<65.9602 174 375 483.028> 777 50<241.195 306.672> 901 50<241.888 307.413>
VStem: 65 110<96.6526 685> 187 54<827.451 899.83> 308 54<827.437 899.847> 375 109<-15 25 103.949 693>
LayerCount: 2
Fore
SplineSet
375 210 m 2
 375 693 l 1
 483 709 l 1
 484 -11 l 1
 484 -15 l 1
 381 -38 l 1
 375 5 l 1
 375 15 l 1
 375 25 l 1
 351 -7 339 -15 264 -15 c 0
 76 -15 65 -5 65 198 c 2
 66 701 l 1
 174 685 l 1
 175 198 l 1
 175 150 l 2
 175 93 183 90 268 90 c 0
 361 90 375 106 375 210 c 2
187 864 m 0
 187 943 195 951 275 951 c 0
 354 951 362 943 362 864 c 0
 362 781 358 777 275 777 c 0
 191 777 187 781 187 864 c 0
275 827 m 0
 306 827 308 829 308 864 c 0
 308 898 305 901 275 901 c 0
 244 901 241 898 241 864 c 0
 241 829 243 827 275 827 c 0
EndSplineSet
EndChar

StartChar: Wcircumflex
Encoding: 372 372 276
Width: 885
VWidth: 1024
Flags: W
HStem: 921 20G<84 169.856 378.797 498>
LayerCount: 2
Fore
SplineSet
43 911 m 1
 166 941 l 1
 284 329 l 1
 382 941 l 1
 498 934 l 1
 639 294 l 1
 714 947 l 1
 838 911 l 1
 706 -16 l 1
 596 0 l 1
 450 632 l 1
 344 16 l 1
 341 0 l 1
 236 -10 l 1
 43 911 l 1
425 1071 m 1
 351 1017 l 1
 253 1007 l 1
 370 1157 l 1
 481 1145 l 1
 598 1007 l 1
 498 1007 l 1
 425 1071 l 1
EndSplineSet
EndChar

StartChar: Ycircumflex
Encoding: 374 374 277
Width: 687
VWidth: 1024
Flags: W
VStem: 283 119<3 440>
LayerCount: 2
Fore
SplineSet
523 951 m 1
 645 919 l 1
 402 439 l 1
 400 440 l 1
 402 -5 l 1
 283 3 l 1
 285 443 l 1
 283 442 l 1
 41 921 l 1
 159 944 l 1
 340 559 l 1
 523 951 l 1
355 1083 m 1
 271 1007 l 1
 171 1007 l 1
 288 1157 l 1
 399 1157 l 1
 516 1007 l 1
 416 1007 l 1
 355 1083 l 1
EndSplineSet
EndChar

StartChar: Ydieresis
Encoding: 376 376 278
Width: 687
VWidth: 1024
Flags: W
HStem: 1007 119<204 323 372 483>
VStem: 204 119<1007 1126> 283 119<3 440> 372 111<1015 1126>
LayerCount: 2
Fore
SplineSet
523 951 m 1xa0
 645 919 l 1
 402 439 l 1
 400 440 l 1
 402 -5 l 1
 283 3 l 1
 285 443 l 1
 283 442 l 1
 41 921 l 1
 159 944 l 1
 340 559 l 1
 523 951 l 1xa0
204 1007 m 1xc0
 204 1126 l 1
 323 1126 l 1
 323 1007 l 1
 204 1007 l 1xc0
372 1015 m 1x90
 364 1126 l 1
 483 1126 l 1
 483 1007 l 1
 372 1015 l 1x90
EndSplineSet
EndChar

StartChar: Zacute
Encoding: 377 377 279
Width: 702
VWidth: 1024
Flags: W
HStem: 0 97<172.268 627> 8 101<55 57 172 534.049> 826 101<81 467 623 627>
LayerCount: 2
Fore
SplineSet
172 106 m 1x60
 655 97 l 1
 627 0 l 1xa0
 55 8 l 1
 55 105 l 1
 55 109 l 1
 57 109 l 1
 467 826 l 1
 81 826 l 1
 70 927 l 1
 627 927 l 1
 627 831 l 1
 627 826 l 1
 623 826 l 1
 172 106 l 1x60
268 1007 m 1
 325 1157 l 1
 468 1133 l 1
 369 1007 l 1
 268 1007 l 1
EndSplineSet
EndChar

StartChar: zacute
Encoding: 378 378 280
Width: 510
VWidth: 1024
Flags: W
HStem: 0 100<184.15 454> 0 90<154 423.85> 597 100<82 301.878> 606 91<82.1222 302>
VStem: 53 401<0 70>
LayerCount: 2
Fore
SplineSet
82 697 m 1x28
 438 697 l 1
 438 627 l 1
 154 90 l 1x58
 454 100 l 1
 454 0 l 1x88
 53 0 l 1
 53 70 l 1
 302 606 l 1x58
 82 597 l 1
 82 697 l 1x28
219 777 m 1
 281 918 l 1
 418 927 l 1
 319 777 l 1
 219 777 l 1
EndSplineSet
EndChar

StartChar: Zdotaccent
Encoding: 379 379 281
Width: 702
VWidth: 1024
Flags: W
HStem: 0 97<172.268 627> 8 101<55 57 172 534.049> 826 101<81 467 623 627> 1013 113<265 378>
VStem: 265 113<1013 1126>
LayerCount: 2
Fore
SplineSet
172 106 m 1x78
 655 97 l 1
 627 0 l 1xb8
 55 8 l 1
 55 105 l 1
 55 109 l 1
 57 109 l 1
 467 826 l 1
 81 826 l 1
 70 927 l 1
 627 927 l 1
 627 831 l 1
 627 826 l 1
 623 826 l 1
 172 106 l 1x78
265 1013 m 1
 259 1126 l 1
 378 1126 l 1
 378 1007 l 1
 265 1013 l 1
EndSplineSet
EndChar

StartChar: zdotaccent
Encoding: 380 380 282
Width: 510
VWidth: 1024
Flags: W
HStem: 0 100<184.15 454> 0 90<154 423.85> 597 100<82 301.878> 606 91<82.1222 302> 777 111<217 329>
VStem: 209 120<777 888>
LayerCount: 2
Fore
SplineSet
82 697 m 1x2c
 438 697 l 1
 438 627 l 1
 154 90 l 1x5c
 454 100 l 1
 454 0 l 1x8c
 53 0 l 1
 53 70 l 1
 302 606 l 1x5c
 82 597 l 1
 82 697 l 1x2c
209 777 m 1
 217 888 l 1
 329 896 l 1
 329 777 l 1
 209 777 l 1
EndSplineSet
EndChar

StartChar: Zcaron
Encoding: 381 381 283
Width: 702
VWidth: 1024
Flags: W
HStem: 0 97<172.268 627> 8 101<55 57 172 534.049> 826 101<81 467 623 627>
LayerCount: 2
Fore
SplineSet
172 106 m 1x60
 655 97 l 1
 627 0 l 1xa0
 55 8 l 1
 55 105 l 1
 55 109 l 1
 57 109 l 1
 467 826 l 1
 81 826 l 1
 70 927 l 1
 627 927 l 1
 627 831 l 1
 627 826 l 1
 623 826 l 1
 172 106 l 1x60
319 1093 m 1
 391 1157 l 1
 490 1157 l 1
 374 1007 l 1
 263 1007 l 1
 146 1157 l 1
 246 1157 l 1
 319 1093 l 1
EndSplineSet
EndChar

StartChar: zcaron
Encoding: 382 382 284
Width: 510
VWidth: 1024
Flags: W
HStem: 0 100<184.15 454> 0 90<154 423.85> 597 100<82 301.878> 606 91<82.1222 302>
VStem: 53 401<0 70>
LayerCount: 2
Fore
SplineSet
82 697 m 1x28
 438 697 l 1
 438 627 l 1
 154 90 l 1x58
 454 100 l 1
 454 0 l 1x88
 53 0 l 1
 53 70 l 1
 302 606 l 1x58
 82 597 l 1
 82 697 l 1x28
269 863 m 1
 341 927 l 1
 441 927 l 1
 324 777 l 1
 214 777 l 1
 97 927 l 1
 197 927 l 1
 269 863 l 1
EndSplineSet
EndChar

StartChar: florin
Encoding: 402 402 286
Width: 441
VWidth: 1024
Flags: W
HStem: 689 20G<59.5824 148> 838 89<256.514 377>
VStem: 148 104<703 836.641> 150 90<29.1924 332.157>
LayerCount: 2
Fore
SplineSet
252 696 m 1xe0
 377 688 l 1
 386 598 l 1
 252 606 l 1xe0
 252 606 241 219 240 36 c 0
 240 -36 124 -137 124 -137 c 1
 37 -82 l 1
 37 -82 150 34 150 102 c 0xd0
 150 282 148 613 148 613 c 1
 51 618 l 1
 62 709 l 1
 148 703 l 1
 148 762 l 1
 154 922 150 927 248 927 c 2
 270 927 l 1
 377 927 l 1
 391 833 l 1
 311 837 l 2
 302 837 294 838 287 838 c 0
 254 838 255 825 252 726 c 2
 252 696 l 1xe0
EndSplineSet
EndChar

StartChar: CapitalLetterAwithdo
Encoding: 550 550 288
Width: 786
VWidth: 1024
Flags: W
HStem: 184 95<252 560> 193 87<252 560> 1007 111<332 445>
LayerCount: 2
Fore
SplineSet
332 1007 m 1x20
 322 1118 l 1
 445 1116 l 1
 451 1007 l 1
 332 1007 l 1x20
46 6 m 1
 330 928 l 1
 461 927 l 1
 741 5 l 1
 649 -26 l 1
 577 193 l 1x60
 214 184 l 1xa0
 154 -22 l 1
 46 6 l 1
252 279 m 1xa0
 560 280 l 1x60
 396 779 l 1
 252 279 l 1xa0
EndSplineSet
EndChar

StartChar: LETTERSMALLCAPITALG
Encoding: 610 610 289
Width: 744
VWidth: 1024
Flags: W
HStem: -15 92<250.179 512.518> 364 91<365 568> 850 91<250.179 523.884>
VStem: 59 115<168.212 758.421> 568 107<124.231 364 656 804.734>
LayerCount: 2
Fore
SplineSet
365 364 m 1
 365 455 l 1
 675 455 l 1
 675 92 l 1
 565 -1 540 -15 389 -15 c 0
 104 -15 59 50 59 463 c 0
 59 877 104 941 389 941 c 0
 633 941 671 903 671 656 c 1
 565 647 l 1
 565 823 541 850 389 850 c 0
 203 850 174 798 174 463 c 0
 174 129 203 77 389 77 c 0
 479 77 495 86 568 147 c 1
 568 364 l 1
 365 364 l 1
EndSplineSet
EndChar

StartChar: LETTERSMALLCAPITALI
Encoding: 618 618 290
Width: 256
VWidth: 1024
Flags: W
HStem: 0 21G<72 179>
VStem: 72 107<0 927>
LayerCount: 2
Fore
SplineSet
126 0 m 1
 72 0 l 1
 72 5 l 1
 72 922 l 1
 72 927 l 1
 126 927 l 1
 179 927 l 1
 179 922 l 1
 179 5 l 1
 179 0 l 1
 126 0 l 1
EndSplineSet
EndChar

StartChar: LETTERSMALLCAPITALN
Encoding: 628 628 291
Width: 740
VWidth: 1024
Flags: W
HStem: 0 21G<72 196> 914 21G<72.9785 197.762 552.759 662>
VStem: 72 124<0 662> 544 122<186 925> 553 109<186.416 925>
LayerCount: 2
Fore
SplineSet
553 934 m 1xe8
 662 925 l 1xe8
 666 -1 l 1
 499 -7 l 1
 194 662 l 1
 196 5 l 1
 196 0 l 1
 72 0 l 1
 72 5 l 1
 73 935 l 1
 204 914 l 1
 544 186 l 1xf0
 553 934 l 1xe8
EndSplineSet
EndChar

StartChar: LETTERSMALLCAPITALR
Encoding: 640 640 292
Width: 656
VWidth: 1024
Flags: W
HStem: 0 5<603 604> 347 97<190 328> 833 94<191 373.094> 845 82<193.845 446.333>
VStem: 72 118<3 347 444 834.891> 461 118<463.201 833.404>
LayerCount: 2
Fore
SplineSet
604 5 m 1xec
 605 3 l 1
 606 0 l 1
 471 -5 l 1
 328 347 l 1
 325 347 l 1
 190 347 l 1
 190 -8 l 1
 131 -3 l 1
 72 3 l 1
 72 8 l 1
 72 922 l 1
 72 927 l 1
 102 927 l 1
 131 927 l 1xdc
 191 927 l 1
 326 927 l 2
 567 927 579 914 579 649 c 0
 579 411 571 360 430 350 c 1
 603 5 l 1
 604 5 l 1xec
190 444 m 1
 330 444 l 2
 455 444 461 454 461 649 c 0
 461 835 457 845 377 845 c 0xdc
 293 845 252 837 191 833 c 1xec
 190 444 l 1
EndSplineSet
EndChar

StartChar: LETTERSMALLCAPITALY
Encoding: 655 655 293
Width: 688
VWidth: 1024
Flags: W
VStem: 283 119<3 440>
LayerCount: 2
Fore
SplineSet
523 951 m 1
 645 919 l 1
 402 439 l 1
 400 440 l 1
 402 -5 l 1
 283 3 l 1
 285 443 l 1
 283 442 l 1
 41 921 l 1
 159 944 l 1
 340 559 l 1
 523 951 l 1
EndSplineSet
EndChar

StartChar: LETTERSMALLCAPITALB
Encoding: 665 665 294
Width: 747
VWidth: 1024
Flags: W
HStem: 0 97<188 543.19> 372 94<184 452.453> 830 97<176 477.957>
VStem: 71 113<97 372 466 692.024> 76 106<234.729 372 466 828> 492 116<504.842 817.188> 556 129<113.201 348.092>
LayerCount: 2
Fore
SplineSet
530 438 m 1xec
 650 428 673 390 679 267 c 0
 682 210 685 165 685 130 c 0
 685 5 649 0 458 0 c 0
 440 0 421 0 401 0 c 2
 71 0 l 1xf2
 73 309 74 618 76 927 c 1
 329 927 l 2
 349 927 367 927 384 927 c 0
 600 927 608 920 608 738 c 0
 608 723 608 707 608 690 c 0
 608 542 593 471 530 438 c 1xec
182 466 m 1xec
 287 461 l 1
 464 461 492 486 492 649 c 0
 492 662 492 674 492 685 c 0
 492 825 488 830 366 830 c 0
 356 830 345 830 334 830 c 0
 266 830 243 828 176 828 c 1
 182 466 l 1xec
188 97 m 1
 365 97 l 2
 379 97 391 97 403 97 c 0
 533 97 556 102 556 193 c 0
 556 217 555 247 553 286 c 0
 549 360 521 372 348 372 c 2
 184 372 l 1xf2
 188 97 l 1
EndSplineSet
EndChar

StartChar: LETTERSMALLCAPITALH
Encoding: 668 668 295
Width: 736
VWidth: 1024
Flags: W
HStem: 388 85<186 555> 909 20G<70.0873 193>
VStem: 70 123<473 922> 72 113<2 388 473 641.094> 549 114<1 381 480 748.051> 564 94<480 927>
LayerCount: 2
Fore
SplineSet
555 381 m 1xc8
 185 388 l 1
 179 -7 l 1
 75 2 l 1
 72 469 l 1
 71 471 l 1
 72 471 l 1xd8
 70 929 l 1
 193 922 l 1
 186 473 l 1
 557 480 l 1
 564 927 l 1
 658 927 l 1xe4
 663 1 l 1
 549 -3 l 1
 555 381 l 1xc8
EndSplineSet
EndChar

StartChar: circumflex
Encoding: 710 710 297
Width: 504
VWidth: 1024
Flags: W
HStem: 989 168
VStem: 79 345
LayerCount: 2
Fore
SplineSet
252 1071 m 1
 183 989 l 1
 79 1007 l 1
 212 1139 l 1
 307 1157 l 1
 424 1007 l 1
 324 1007 l 1
 252 1071 l 1
EndSplineSet
EndChar

StartChar: caron
Encoding: 711 711 298
Width: 500
VWidth: 1024
Flags: W
HStem: 1007 150
VStem: 78 344
LayerCount: 2
Fore
SplineSet
232 1081 m 1
 322 1157 l 1
 422 1157 l 1
 305 1007 l 1
 195 1007 l 1
 78 1157 l 1
 178 1157 l 1
 232 1081 l 1
EndSplineSet
EndChar

StartChar: breve
Encoding: 728 728 302
Width: 470
VWidth: 1024
Flags: W
HStem: 986 83<166.228 303.634>
VStem: 80 81<1075.25 1134> 309 81<1074.9 1140>
LayerCount: 2
Fore
SplineSet
80 1134 m 1
 161 1140 l 1
 161 1079 171 1069 234 1069 c 0
 297 1069 309 1079 309 1140 c 1
 390 1140 l 1
 390 1034 373 986 292 986 c 0
 276 986 256 988 234 992 c 0
 104 1014 80 1006 80 1134 c 1
EndSplineSet
EndChar

StartChar: dotaccent
Encoding: 729 729 303
Width: 282
VWidth: 1024
Flags: W
HStem: 1007 119<81 193>
VStem: 81 120<1007 1120>
LayerCount: 2
Fore
SplineSet
81 1007 m 1
 81 1126 l 1
 193 1120 l 1
 201 1007 l 1
 81 1007 l 1
EndSplineSet
EndChar

StartChar: ring
Encoding: 730 730 304
Width: 328
VWidth: 1024
Flags: W
HStem: 1015 42<129.211 195.427> 1130 44<131.172 196.507>
VStem: 81 48<1057.58 1128.72> 196 50<1057.15 1129.73>
LayerCount: 2
Fore
SplineSet
81 1086 m 0
 81 1165 89 1174 169 1174 c 0
 244 1174 246 1166 246 1097 c 2
 246 1059 l 2
 247 1054 247 1050 247 1046 c 0
 247 1020 235 1014 215 1014 c 0
 205 1014 193 1015 180 1015 c 0
 177 1015 173 1015 169 1015 c 0
 167 1015 166 1015 164 1015 c 0
 147 1015 133 1014 122 1014 c 0
 92 1014 81 1023 81 1086 c 0
161 1057 m 0
 192 1057 196 1059 196 1094 c 0
 196 1095 196 1096 196 1097 c 0
 196 1105 197 1112 197 1118 c 0
 197 1126 194 1130 180 1130 c 0
 178 1130 176 1130 173 1130 c 0
 142 1130 129 1128 129 1094 c 0
 129 1059 129 1057 161 1057 c 0
EndSplineSet
EndChar

StartChar: ogonek
Encoding: 731 731 305
Width: 299
VWidth: 1024
Flags: W
HStem: -220 58<129.693 223.093>
VStem: 62 67<-155.631 -67.9482>
LayerCount: 2
Fore
SplineSet
190 -8 m 0
 191 -9 191 -9 191 -11 c 0
 191 -23 154 -66 139 -98 c 0
 133 -112 129 -121 129 -129 c 0
 129 -140 138 -147 157 -156 c 0
 165 -160 171 -162 176 -162 c 0
 186 -162 195 -155 212 -137 c 1
 239 -188 l 1
 217 -210 204 -220 186 -220 c 0
 172 -220 156 -214 132 -203 c 0
 83 -180 62 -165 62 -138 c 0
 62 -121 70 -101 83 -72 c 0
 102 -31 111 -7 125 3 c 0
 130 6 135 8 141 8 c 0
 152 8 167 2 190 -8 c 0
EndSplineSet
EndChar

StartChar: tilde
Encoding: 732 732 306
Width: 602
VWidth: 1024
Flags: W
HStem: 962 76<336.681 428.287> 1057 80<170.036 268.123>
VStem: 78 87<991 1055.97> 433 91<1038.78 1118>
LayerCount: 2
Fore
SplineSet
165 991 m 1
 78 977 l 1
 78 1115 93 1137 205 1137 c 0
 357 1137 297 1038 399 1038 c 0
 425 1038 433 1055 433 1118 c 1
 524 1122 l 1
 524 984 506 962 394 962 c 0
 242 962 309 1057 208 1057 c 0
 182 1057 165 1054 165 991 c 1
EndSplineSet
EndChar

StartChar: hungarumlaut
Encoding: 733 733 307
Width: 421
VWidth: 1024
Flags: W
HStem: 676 229
VStem: 61 300
LayerCount: 2
Fore
SplineSet
281 676 m 1
 205 708 l 1
 261 894 l 1
 361 862 l 1
 281 676 l 1
141 683 m 1
 61 721 l 1
 129 905 l 1
 229 867 l 1
 141 683 l 1
EndSplineSet
EndChar

StartChar: LETTERSMALLCAPITALA
Encoding: 7424 7424 308
Width: 786
VWidth: 1024
Flags: W
HStem: 184 95<252 560> 193 87<252 560>
LayerCount: 2
Fore
SplineSet
46 6 m 1x80
 330 928 l 1
 461 927 l 1
 741 5 l 1
 649 -26 l 1
 577 193 l 1x40
 214 184 l 1
 154 -22 l 1
 46 6 l 1x80
252 279 m 1x80
 560 280 l 1x40
 396 779 l 1
 252 279 l 1x80
EndSplineSet
EndChar

StartChar: LETTERSMALLCAPITALC
Encoding: 7428 7428 309
Width: 688
VWidth: 1024
Flags: W
HStem: -9 102<273.816 615.71> 840 101<284.024 616.823>
VStem: 59 127<198.17 717.182>
LayerCount: 2
Fore
SplineSet
613 97 m 2
 633 -1 l 2
 632 -8 603 -9 419 -9 c 0
 117 -9 59 86 59 411 c 2
 59 465 l 1
 65 833 113 941 403 941 c 2
 419 941 l 2
 605 938 634 938 634 937 c 2
 612 844 l 2
 612 842 597 839 520 839 c 0
 494 839 461 839 419 840 c 2
 409 840 l 2
 222 840 191 754 186 465 c 1
 186 414 l 2
 186 166 225 93 419 93 c 0
 586 93 612 94 613 97 c 2
EndSplineSet
EndChar

StartChar: LETTERSMALLCAPITALD
Encoding: 7429 7429 310
Width: 703
VWidth: 1024
Flags: W
HStem: 0 87<179 463.399> 840 87<179 454.698>
VStem: 72 107<87 840> 521 114<143.253 768.748>
LayerCount: 2
Fore
SplineSet
125 0 m 1
 72 0 l 1
 72 5 l 1
 72 922 l 1
 72 927 l 1
 125 927 l 1
 179 927 l 1
 272 927 l 2
 617 927 635 905 635 463 c 0
 635 10 627 0 302 0 c 2
 179 0 l 1
 125 0 l 1
179 87 m 1
 295 87 l 2
 516 87 521 95 521 463 c 0
 521 822 510 840 278 840 c 2
 179 840 l 1
 179 87 l 1
EndSplineSet
EndChar

StartChar: LETTERSMALLCAPITALE
Encoding: 7431 7431 311
Width: 556
VWidth: 1024
Flags: W
HStem: 0 91<179 499> 374 87<179 464> 836 91<179 484>
VStem: 72 107<91 374 461 836>
LayerCount: 2
Fore
SplineSet
499 46 m 1
 499 0 l 1
 179 0 l 1
 178 0 l 1
 125 0 l 1
 72 0 l 1
 72 5 l 1
 72 922 l 1
 72 927 l 1
 125 927 l 1
 178 927 l 1
 179 927 l 1
 484 927 l 1
 484 881 l 1
 484 836 l 1
 479 836 l 1
 179 836 l 1
 179 461 l 1
 459 461 l 1
 464 461 l 1
 464 417 l 1
 464 374 l 1
 459 374 l 1
 179 374 l 1
 179 91 l 1
 494 91 l 1
 499 91 l 1
 499 46 l 1
EndSplineSet
EndChar

StartChar: LETTERSMALLCAPITALJ
Encoding: 7434 7434 312
Width: 483
VWidth: 1024
Flags: W
HStem: -15 104<175.971 291.875>
VStem: 61 106<96.0268 280> 304 106<101.937 922>
LayerCount: 2
Fore
SplineSet
61 280 m 1
 168 299 l 1
 167 248 l 2
 167 90 167 89 236 89 c 0
 301 89 304 114 304 272 c 2
 304 922 l 1
 304 927 l 1
 357 927 l 1
 410 927 l 2
 411 927 411 927 410 924 c 0
 411 922 411 922 410 922 c 2
 410 272 l 2
 410 24 402 -15 236 -15 c 0
 62 -15 61 -14 61 217 c 2
 61 280 l 1
EndSplineSet
EndChar

StartChar: LETTERSMALLCAPITALK
Encoding: 7435 7435 313
Width: 617
VWidth: 1024
Flags: W
HStem: 0 21G<72 179 453 574>
VStem: 72 107<0 333 523 927>
LayerCount: 2
Fore
SplineSet
514 0 m 1
 453 0 l 1
 453 1 l 2
 452 2 452 4 451 5 c 2
 283 500 l 1
 180 333 l 1
 179 333 l 1
 179 5 l 1
 179 3 l 1
 179 0 l 1
 125 0 l 1
 72 0 l 1
 72 5 l 1
 72 922 l 1
 72 927 l 1
 125 927 l 1
 179 927 l 1
 179 924 l 1
 179 922 l 1
 179 523 l 1
 412 922 l 1
 415 927 l 1
 480 927 l 1
 546 927 l 1
 543 922 l 1
 343 598 l 1
 572 4 l 1
 573 3 l 1
 574 0 l 1
 514 0 l 1
EndSplineSet
EndChar

StartChar: LETTERSMALLCAPITALM
Encoding: 7437 7437 314
Width: 803
VWidth: 1024
Flags: W
HStem: 0 21G<72 180 350 453.551 624 727>
VStem: 72 108<0 748> 624 103<0 769>
LayerCount: 2
Fore
SplineSet
675 0 m 1
 624 0 l 1
 624 5 l 1
 624 769 l 1
 449 0 l 1
 355 0 l 1
 350 0 l 1
 352 11 l 1
 180 748 l 1
 180 5 l 1
 180 3 l 1
 180 0 l 1
 126 0 l 1
 72 0 l 1
 72 5 l 1
 72 922 l 1
 72 927 l 1
 126 927 l 1
 138 927 l 1
 180 927 l 1
 237 927 l 1
 399 219 l 1
 557 927 l 1
 624 927 l 1
 660 927 l 1
 675 927 l 1
 727 927 l 1
 727 922 l 1
 727 5 l 1
 727 0 l 1
 675 0 l 1
EndSplineSet
EndChar

StartChar: LETTERSMALLCAPITALO
Encoding: 7439 7439 315
Width: 768
VWidth: 1024
Flags: W
HStem: -15 92<245.9 514.459> 850 91<259.397 500.941>
VStem: 59 115<168.212 747.021> 587 114<168.212 747.021>
LayerCount: 2
Fore
SplineSet
380 77 m 0
 559 77 587 129 587 463 c 0
 587 781 550 850 380 850 c 0
 211 850 174 781 174 463 c 0
 174 129 202 77 380 77 c 0
59 463 m 0
 59 856 116 941 380 941 c 0
 644 941 701 856 701 463 c 0
 701 50 658 -15 380 -15 c 0
 102 -15 59 50 59 463 c 0
EndSplineSet
EndChar

StartChar: LETTERSMALLCAPITALP
Encoding: 7448 7448 316
Width: 580
VWidth: 1024
Flags: W
HStem: 0 21G<72 179> 328 87<179 380.277> 840 87<179 387.405>
VStem: 72 107<0 328 415 840> 408 106<437.682 819.604>
LayerCount: 2
Fore
SplineSet
125 0 m 1
 72 0 l 1
 72 5 l 1
 72 922 l 1
 72 927 l 1
 99 927 l 1
 125 927 l 1
 179 927 l 1
 273 927 l 2
 502 927 514 914 514 649 c 0
 514 344 502 328 273 328 c 2
 179 328 l 1
 179 5 l 1
 179 3 l 1
 179 0 l 1
 125 0 l 1
179 415 m 1
 278 415 l 2
 403 415 408 426 408 649 c 0
 408 831 401 840 268 840 c 2
 179 840 l 1
 179 415 l 1
EndSplineSet
EndChar

StartChar: LETTERSMALLCAPITALT
Encoding: 7451 7451 317
Width: 617
VWidth: 1024
Flags: W
HStem: 0 21G<254 360> 836 91<47 254 360 567>
VStem: 254 106<0 836>
LayerCount: 2
Fore
SplineSet
307 0 m 1
 254 0 l 1
 254 5 l 1
 254 836 l 1
 52 836 l 1
 47 836 l 1
 47 881 l 1
 47 927 l 1
 254 927 l 1
 360 927 l 1
 567 927 l 1
 567 881 l 1
 567 836 l 1
 562 836 l 1
 360 836 l 1
 360 5 l 1
 360 0 l 1
 307 0 l 1
EndSplineSet
EndChar

StartChar: LETTERSMALLCAPITALU
Encoding: 7452 7452 318
Width: 631
VWidth: 1024
Flags: W
HStem: -15 104<203.612 416.19>
VStem: 67 107<123.281 927> 446 112<123.281 927>
LayerCount: 2
Fore
SplineSet
67 922 m 1
 67 927 l 1
 120 927 l 1
 174 927 l 1
 174 924 l 1
 174 922 l 1
 174 379 l 2
 174 103 181 89 313 89 c 0
 440 89 446 103 446 379 c 2
 446 922 l 1
 446 927 l 1
 502 927 l 1
 558 927 l 1
 558 922 l 1
 558 360 l 2
 558 3 546 -15 313 -15 c 0
 79 -15 67 3 67 360 c 2
 67 922 l 1
EndSplineSet
EndChar

StartChar: LETTERSMALLCAPITALV
Encoding: 7456 7456 319
Width: 615
VWidth: 1024
Flags: W
HStem: 0 21G<256 364.555>
LayerCount: 2
Fore
SplineSet
450 922 m 1
 449 922 l 1
 450 924 l 1
 450 927 l 1
 451 927 l 1
 511 927 l 1
 571 927 l 1
 570 923 l 1
 570 922 l 1
 360 0 l 1
 356 0 l 1
 257 0 l 1
 256 0 l 1
 256 2 l 1
 43 922 l 1
 43 923 l 1
 42 927 l 1
 99 927 l 1
 157 927 l 1
 305 234 l 1
 450 922 l 1
EndSplineSet
EndChar

StartChar: LETTERSMALLCAPITALW
Encoding: 7457 7457 320
Width: 885
VWidth: 1024
Flags: W
HStem: 921 20G<84 169.856 378.797 498>
LayerCount: 2
Fore
SplineSet
43 911 m 1
 166 941 l 1
 284 329 l 1
 382 941 l 1
 498 934 l 1
 639 294 l 1
 714 947 l 1
 838 911 l 1
 706 -16 l 1
 596 0 l 1
 450 632 l 1
 344 16 l 1
 341 0 l 1
 236 -10 l 1
 43 911 l 1
EndSplineSet
EndChar

StartChar: LETTERSMALLCAPITALZ
Encoding: 7458 7458 321
Width: 625
VWidth: 1024
Flags: W
HStem: 0 91<175 565> 836 91<70 445>
LayerCount: 2
Fore
SplineSet
565 46 m 1
 565 0 l 1
 55 0 l 1
 55 91 l 1
 445 836 l 1
 75 836 l 1
 70 836 l 1
 70 881 l 1
 70 927 l 1
 565 927 l 1
 565 836 l 1
 175 91 l 1
 560 91 l 1
 565 91 l 1
 565 46 l 1
EndSplineSet
EndChar

StartChar: Wgrave
Encoding: 7808 7808 322
Width: 885
VWidth: 1024
Flags: W
HStem: 921 20G<84 169.856 378.797 498>
LayerCount: 2
Fore
SplineSet
375 1007 m 1
 276 1157 l 1
 419 1157 l 1
 476 1007 l 1
 375 1007 l 1
43 911 m 1
 166 941 l 1
 284 329 l 1
 382 941 l 1
 498 934 l 1
 639 294 l 1
 714 947 l 1
 838 911 l 1
 706 -16 l 1
 596 0 l 1
 450 632 l 1
 344 16 l 1
 341 0 l 1
 236 -10 l 1
 43 911 l 1
EndSplineSet
EndChar

StartChar: Wacute
Encoding: 7810 7810 323
Width: 885
VWidth: 1024
Flags: W
HStem: 921 20G<84 169.856 378.797 498>
LayerCount: 2
Fore
SplineSet
375 999 m 1
 435 1157 l 1
 585 1157 l 1
 481 999 l 1
 375 999 l 1
43 911 m 1
 166 941 l 1
 284 329 l 1
 382 941 l 1
 498 934 l 1
 639 294 l 1
 714 947 l 1
 838 911 l 1
 706 -16 l 1
 596 0 l 1
 450 632 l 1
 344 16 l 1
 341 0 l 1
 236 -10 l 1
 43 911 l 1
EndSplineSet
EndChar

StartChar: Wdieresis
Encoding: 7812 7812 324
Width: 885
VWidth: 1024
Flags: W
HStem: 921 20G<84 169.856 378.797 498> 1007 113<296 406.227 455.748 565>
VStem: 296 110<1018.36 1120> 456 109<1007 1108.64>
LayerCount: 2
Fore
SplineSet
456 1001 m 1
 446 1126 l 1
 575 1120 l 1
 565 1007 l 1
 456 1001 l 1
286 1007 m 1
 296 1120 l 1
 406 1126 l 1
 415 1001 l 1
 286 1007 l 1
43 911 m 1
 166 941 l 1
 284 329 l 1
 382 941 l 1
 498 934 l 1
 639 294 l 1
 714 947 l 1
 838 911 l 1
 706 -16 l 1
 596 0 l 1
 450 632 l 1
 344 16 l 1
 341 0 l 1
 236 -10 l 1
 43 911 l 1
EndSplineSet
EndChar

StartChar: CapitalLetterEWITHTI
Encoding: 7868 7868 325
Width: 632
VWidth: 1024
Flags: W
HStem: 4 105<191 568> 380 99<191 538> 853 96<191 558> 1002 74<346.901 411.827> 1079 74<250.173 315.099>
VStem: 72 119<109 387 471 853> 167 81<1005 1078.42> 414 81<1076.58 1150>
LayerCount: 2
Fore
SplineSet
189 4 m 1xfd
 187 4 l 1
 72 4 l 1
 72 949 l 1
 190 949 l 1
 191 949 l 1
 558 949 l 1
 558 846 l 1
 396 846 337 852 191 853 c 1
 191 471 l 1
 534 479 l 1
 538 479 l 1
 538 429 l 1
 538 380 l 1
 534 380 l 1
 191 387 l 1
 191 109 l 1
 353 109 408 117 568 117 c 1
 568 118 568 118 570 117 c 0
 573 118 573 118 573 117 c 2
 573 61 l 1
 573 4 l 1
 189 4 l 1xfd
248 1005 m 1xfb
 167 1005 l 1
 167 1143 180 1153 262 1153 c 0
 373 1153 318 1076 392 1076 c 0
 411 1076 414 1087 414 1150 c 1
 495 1150 l 1
 495 1012 482 1002 400 1002 c 0
 289 1002 344 1079 270 1079 c 0
 251 1079 248 1068 248 1005 c 1xfb
EndSplineSet
EndChar

StartChar: Ygrave
Encoding: 7922 7922 326
Width: 687
VWidth: 1024
Flags: W
VStem: 283 119<3 440>
LayerCount: 2
Fore
SplineSet
293 1007 m 1
 194 1157 l 1
 337 1157 l 1
 393 1007 l 1
 293 1007 l 1
523 951 m 1
 645 919 l 1
 402 439 l 1
 400 440 l 1
 402 -3 l 1
 283 3 l 1
 285 443 l 1
 283 442 l 1
 41 921 l 1
 159 944 l 1
 340 559 l 1
 523 951 l 1
EndSplineSet
EndChar

StartChar: endash
Encoding: 8211 8211 327
Width: 553
VWidth: 1024
Flags: W
HStem: 280 90<81 474>
VStem: 67 421
LayerCount: 2
Fore
SplineSet
81 280 m 1
 67 370 l 1
 488 370 l 1
 474 280 l 1
 81 280 l 1
EndSplineSet
EndChar

StartChar: emdash
Encoding: 8212 8212 328
Width: 756
VWidth: 1024
Flags: W
HStem: 280 90<83 674>
LayerCount: 2
Fore
SplineSet
83 280 m 1
 67 370 l 1
 690 370 l 1
 674 280 l 1
 83 280 l 1
EndSplineSet
EndChar

StartChar: quoteleft
Encoding: 8216 8216 330
Width: 285
VWidth: 1024
Flags: W
HStem: 687 232
VStem: 60 160
LayerCount: 2
Fore
SplineSet
60 890 m 1
 181 919 l 1
 220 710 l 1
 127 687 l 1
 60 890 l 1
EndSplineSet
EndChar

StartChar: quoteright
Encoding: 8217 8217 331
Width: 276
VWidth: 1024
Flags: W
HStem: 695 228
VStem: 62 154
LayerCount: 2
Fore
SplineSet
109 923 m 1
 216 872 l 1
 133 695 l 1
 62 726 l 1
 109 923 l 1
EndSplineSet
EndChar

StartChar: quotesinglbase
Encoding: 8218 8218 332
Width: 280
VWidth: 1024
Flags: W
HStem: -9 228
VStem: 63 155
LayerCount: 2
Fore
SplineSet
111 219 m 1
 218 168 l 1
 135 -9 l 1
 63 22 l 1
 111 219 l 1
EndSplineSet
EndChar

StartChar: quotedblleft
Encoding: 8220 8220 334
Width: 422
VWidth: 1024
Flags: W
HStem: 672 229
VStem: 60 300
LayerCount: 2
Fore
SplineSet
360 715 m 1
 260 683 l 1
 204 869 l 1
 280 901 l 1
 360 715 l 1
228 710 m 1
 128 672 l 1
 60 856 l 1
 140 894 l 1
 228 710 l 1
EndSplineSet
EndChar

StartChar: quotedblright
Encoding: 8221 8221 335
Width: 421
VWidth: 1024
Flags: W
HStem: 676 229
VStem: 61 300
LayerCount: 2
Fore
SplineSet
281 676 m 1
 205 708 l 1
 261 894 l 1
 361 862 l 1
 281 676 l 1
141 683 m 1
 61 721 l 1
 129 905 l 1
 229 867 l 1
 141 683 l 1
EndSplineSet
EndChar

StartChar: quotedblbase
Encoding: 8222 8222 336
Width: 425
VWidth: 1024
Flags: W
HStem: -28 229
VStem: 62 300
LayerCount: 2
Fore
SplineSet
282 -28 m 1
 206 4 l 1
 262 190 l 1
 362 158 l 1
 282 -28 l 1
142 -22 m 1
 62 17 l 1
 130 201 l 1
 230 163 l 1
 142 -22 l 1
EndSplineSet
EndChar

StartChar: dagger
Encoding: 8224 8224 337
Width: 559
VWidth: 1024
Flags: W
HStem: 662 95<149.427 222 331 501> 678 79<56 149.323>
VStem: 222 95<817.06 925> 242 89<-32 280.127>
LayerCount: 2
Fore
SplineSet
501 757 m 1x90
 505 660 l 1
 331 662 l 1
 331 -50 l 1
 242 -32 l 1x90
 222 662 l 1xa0
 56 678 l 1
 52 757 l 1x60
 222 757 l 1
 222 927 l 1
 317 925 l 1xa0
 331 757 l 1
 501 757 l 1x90
EndSplineSet
EndChar

StartChar: daggerdbl
Encoding: 8225 8225 338
Width: 567
VWidth: 1024
Flags: W
HStem: 120 99<66 230 349 428.943> 134 79<406.2 509> 662 105<60 212.915> 662 95<77.085 230> 672 85<356.085 509>
VStem: 230 119<-50 118 217 439.278> 230 109<261.722 662> 230 91<799.571 927>
LayerCount: 2
Fore
SplineSet
60 120 m 1x84
 66 219 l 1
 230 215 l 1x81
 230 662 l 1x92
 60 662 l 1
 60 767 l 1x22
 230 757 l 1x11
 230 927 l 1
 321 927 l 1
 333 757 l 1
 509 757 l 1
 509 672 l 1x09
 339 662 l 1x12
 349 217 l 1
 509 213 l 1
 509 134 l 1x54
 349 120 l 1
 353 -50 l 1
 230 -50 l 1
 230 118 l 1
 60 120 l 1x84
EndSplineSet
EndChar

StartChar: bullet
Encoding: 8226 8226 339
Width: 309
VWidth: 1024
Flags: W
HStem: 281 177<81.3287 231.025>
VStem: 68 175<293.521 445.75>
LayerCount: 2
Fore
SplineSet
68 382 m 0
 69 431 87 458 153 458 c 0
 155 458 158 458 160 458 c 0
 213 457 238 455 242 372 c 0
 242 366 243 359 243 354 c 0
 243 287 222 281 181 281 c 0
 177 281 172 281 168 281 c 0
 103 282 68 285 68 375 c 0
 68 377 68 380 68 382 c 0
EndSplineSet
EndChar

StartChar: ellipsis
Encoding: 8230 8230 340
Width: 657
VWidth: 1024
Flags: W
HStem: -4 123<82 187 276 381 470 575>
VStem: 82 105<0 73.8875> 276 105<41.1125 115> 470 105<0 73.8875>
CounterMasks: 1 70
LayerCount: 2
Fore
SplineSet
470 -4 m 1
 456 119 l 1
 589 115 l 1
 575 0 l 1
 470 -4 l 1
262 0 m 1
 276 115 l 1
 381 119 l 1
 395 -4 l 1
 262 0 l 1
82 -4 m 1
 68 119 l 1
 201 115 l 1
 187 0 l 1
 82 -4 l 1
EndSplineSet
EndChar

